  0
SECTION
  2
HEADER
  9
$ACADVER
  1
AC1014
  9
$HANDSEED
  5
FFFF
  9
$MEASUREMENT
 70
     1
  0
ENDSEC
  0
SECTION
  2
TABLES
  0
TABLE
  2
VPORT
  5
8
330
0
100
AcDbSymbolTable
 70
     4
  0
VPORT
  5
2E
330
8
100
AcDbSymbolTableRecord
100
AcDbViewportTableRecord
  2
*ACTIVE
 70
     0
 10
0.0
 20
0.0
 11
1.0
 21
1.0
 12
210.0
 22
148.5
 13
0.0
 23
0.0
 14
10.0
 24
10.0
 15
10.0
 25
10.0
 16
0.0
 26
0.0
 36
1.0
 17
0.0
 27
0.0
 37
0.0
 40
341.0
 41
1.24
 42
50.0
 43
0.0
 44
0.0
 50
0.0
 51
0.0
 71
     0
 72
   100
 73
     1
 74
     3
 75
     0
 76
     0
 77
     0
 78
     0
  0
ENDTAB
  0
TABLE
  2
LTYPE
  5
5
330
0
100
AcDbSymbolTable
 70
     1
  0
LTYPE
  5
14
330
5
100
AcDbSymbolTableRecord
100
AcDbLinetypeTableRecord
  2
BYBLOCK
 70
     0
  3

 72
    65
 73
     0
 40
0.0
  0
LTYPE
  5
15
330
5
100
AcDbSymbolTableRecord
100
AcDbLinetypeTableRecord
  2
BYLAYER
 70
     0
  3

 72
    65
 73
     0
 40
0.0
  0
LTYPE
  5
16
330
5
100
AcDbSymbolTableRecord
100
AcDbLinetypeTableRecord
  2
CONTINUOUS
 70
     0
  3
Solid line
 72
    65
 73
     0
 40
0.0
  0
ENDTAB
  0
TABLE
  2
LAYER
  5
2
100
AcDbSymbolTable
 70
1
  0
LAYER
  5
50
100
AcDbSymbolTableRecord
100
AcDbLayerTableRecord
  2
0
 70
0
  6
CONTINUOUS
  0
ENDTAB
  0
TABLE
  2
STYLE
  5
3
330
0
100
AcDbSymbolTable
 70
     1
  0
STYLE
  5
11
330
3
100
AcDbSymbolTableRecord
100
AcDbTextStyleTableRecord
  2
STANDARD
 70
     0
 40
0.0
 41
1.0
 50
0.0
 71
     0
 42
2.5
  3
txt
  4

  0
ENDTAB
  0
TABLE
  2
VIEW
  5
6
330
0
100
AcDbSymbolTable
 70
     0
  0
ENDTAB
  0
TABLE
  2
UCS
  5
7
330
0
100
AcDbSymbolTable
 70
     0
  0
ENDTAB
  0
TABLE
  2
APPID
  5
9
330
0
100
AcDbSymbolTable
 70
     2
  0
APPID
  5
12
330
9
100
AcDbSymbolTableRecord
100
AcDbRegAppTableRecord
  2
ACAD
 70
     0
  0
ENDTAB
  0
TABLE
  2
DIMSTYLE
  5
A
330
0
100
AcDbSymbolTable
 70
     1
  0
DIMSTYLE
105
27
330
A
100
AcDbSymbolTableRecord
100
AcDbDimStyleTableRecord
  2
ISO-25
 70
     0
  3

  4

  5

  6

  7

 40
1.0
 41
2.5
 42
0.625
 43
3.75
 44
1.25
 45
0.0
 46
0.0
 47
0.0
 48
0.0
140
2.5
141
2.5
142
0.0
143
0.03937007874016
144
1.0
145
0.0
146
1.0
147
0.625
 71
     0
 72
     0
 73
     0
 74
     0
 75
     0
 76
     0
 77
     1
 78
     8
170
     0
171
     3
172
     1
173
     0
174
     0
175
     0
176
     0
177
     0
178
     0
270
     2
271
     2
272
     2
273
     2
274
     3
340
11
275
     0
280
     0
281
     0
282
     0
283
     0
284
     8
285
     0
286
     0
287
     3
288
     0
  0
ENDTAB
  0
TABLE
  2
BLOCK_RECORD
  5
1
330
0
100
AcDbSymbolTable
 70
     1
  0
BLOCK_RECORD
  5
1F
330
1
100
AcDbSymbolTableRecord
100
AcDbBlockTableRecord
  2
*MODEL_SPACE
  0
BLOCK_RECORD
  5
1B
330
1
100
AcDbSymbolTableRecord
100
AcDbBlockTableRecord
  2
*PAPER_SPACE
  0
ENDTAB
  0
ENDSEC
  0
SECTION
  2
BLOCKS
  0
BLOCK
  5
20
330
1F
100
AcDbEntity
  8
0
100
AcDbBlockBegin
  2
*MODEL_SPACE
 70
     0
 10
0.0
 20
0.0
 30
0.0
  3
*MODEL_SPACE
  1

  0
ENDBLK
  5
21
330
1F
100
AcDbEntity
  8
0
100
AcDbBlockEnd
  0
BLOCK
  5
1C
330
1B
100
AcDbEntity
 67
     1
  8
0
100
AcDbBlockBegin
  2
*PAPER_SPACE
  1

  0
ENDBLK
  5
1D
330
1B
100
AcDbEntity
 67
     1
  8
0
100
AcDbBlockEnd
  0
ENDSEC
  0
SECTION
  2
ENTITIES
  0
SPLINE
  5
100
100
AcDbEntity
  8
0
 62
7
100
AcDbSpline
 70
8
 71
3
 72
8
 73
4
 74
0
 40
0
 40
0
 40
0
 40
0
 40
1
 40
1
 40
1
 40
1
 10
62.225314
 20
70.609553
 30
0.0
 10
62.225878
 20
71.135076
 30
0.0
 10
61.945839
 20
71.620920
 30
0.0
 10
61.490817
 20
71.883845
 30
0.0
  0
SPLINE
  5
101
100
AcDbEntity
  8
0
 62
7
100
AcDbSpline
 70
8
 71
3
 72
8
 73
4
 74
0
 40
0
 40
0
 40
0
 40
0
 40
1
 40
1
 40
1
 40
1
 10
61.490817
 20
71.883845
 30
0.0
 10
61.035795
 20
72.146769
 30
0.0
 10
60.475021
 20
72.146769
 30
0.0
 10
60.019999
 20
71.883845
 30
0.0
  0
SPLINE
  5
102
100
AcDbEntity
  8
0
 62
7
100
AcDbSpline
 70
8
 71
3
 72
8
 73
4
 74
0
 40
0
 40
0
 40
0
 40
0
 40
1
 40
1
 40
1
 40
1
 10
60.019999
 20
71.883845
 30
0.0
 10
59.564976
 20
71.620920
 30
0.0
 10
59.284937
 20
71.135076
 30
0.0
 10
59.285501
 20
70.609553
 30
0.0
  0
SPLINE
  5
103
100
AcDbEntity
  8
0
 62
7
100
AcDbSpline
 70
8
 71
3
 72
8
 73
4
 74
0
 40
0
 40
0
 40
0
 40
0
 40
1
 40
1
 40
1
 40
1
 10
59.285501
 20
70.609553
 30
0.0
 10
59.284937
 20
70.084030
 30
0.0
 10
59.564976
 20
69.598186
 30
0.0
 10
60.019999
 20
69.335261
 30
0.0
  0
SPLINE
  5
104
100
AcDbEntity
  8
0
 62
7
100
AcDbSpline
 70
8
 71
3
 72
8
 73
4
 74
0
 40
0
 40
0
 40
0
 40
0
 40
1
 40
1
 40
1
 40
1
 10
60.019999
 20
69.335261
 30
0.0
 10
60.475021
 20
69.072337
 30
0.0
 10
61.035795
 20
69.072337
 30
0.0
 10
61.490817
 20
69.335261
 30
0.0
  0
SPLINE
  5
105
100
AcDbEntity
  8
0
 62
7
100
AcDbSpline
 70
8
 71
3
 72
8
 73
4
 74
0
 40
0
 40
0
 40
0
 40
0
 40
1
 40
1
 40
1
 40
1
 10
61.490817
 20
69.335261
 30
0.0
 10
61.945839
 20
69.598186
 30
0.0
 10
62.225878
 20
70.084030
 30
0.0
 10
62.225314
 20
70.609553
 30
0.0
  0
SPLINE
  5
106
100
AcDbEntity
  8
0
 62
7
100
AcDbSpline
 70
8
 71
3
 72
8
 73
4
 74
0
 40
0
 40
0
 40
0
 40
0
 40
1
 40
1
 40
1
 40
1
 10
48.250474
 20
70.609553
 30
0.0
 10
48.250474
 20
71.134701
 30
0.0
 10
47.970311
 20
71.619957
 30
0.0
 10
47.515520
 20
71.882531
 30
0.0
  0
SPLINE
  5
107
100
AcDbEntity
  8
0
 62
7
100
AcDbSpline
 70
8
 71
3
 72
8
 73
4
 74
0
 40
0
 40
0
 40
0
 40
0
 40
1
 40
1
 40
1
 40
1
 10
47.515520
 20
71.882531
 30
0.0
 10
47.060729
 20
72.145105
 30
0.0
 10
46.500403
 20
72.145105
 30
0.0
 10
46.045612
 20
71.882531
 30
0.0
  0
SPLINE
  5
108
100
AcDbEntity
  8
0
 62
7
100
AcDbSpline
 70
8
 71
3
 72
8
 73
4
 74
0
 40
0
 40
0
 40
0
 40
0
 40
1
 40
1
 40
1
 40
1
 10
46.045612
 20
71.882531
 30
0.0
 10
45.590821
 20
71.619957
 30
0.0
 10
45.310658
 20
71.134701
 30
0.0
 10
45.310658
 20
70.609553
 30
0.0
  0
SPLINE
  5
109
100
AcDbEntity
  8
0
 62
7
100
AcDbSpline
 70
8
 71
3
 72
8
 73
4
 74
0
 40
0
 40
0
 40
0
 40
0
 40
1
 40
1
 40
1
 40
1
 10
45.310658
 20
70.609553
 30
0.0
 10
45.310658
 20
70.084406
 30
0.0
 10
45.590821
 20
69.599149
 30
0.0
 10
46.045612
 20
69.336576
 30
0.0
  0
SPLINE
  5
10a
100
AcDbEntity
  8
0
 62
7
100
AcDbSpline
 70
8
 71
3
 72
8
 73
4
 74
0
 40
0
 40
0
 40
0
 40
0
 40
1
 40
1
 40
1
 40
1
 10
46.045612
 20
69.336576
 30
0.0
 10
46.500403
 20
69.074002
 30
0.0
 10
47.060729
 20
69.074002
 30
0.0
 10
47.515520
 20
69.336576
 30
0.0
  0
SPLINE
  5
10b
100
AcDbEntity
  8
0
 62
7
100
AcDbSpline
 70
8
 71
3
 72
8
 73
4
 74
0
 40
0
 40
0
 40
0
 40
0
 40
1
 40
1
 40
1
 40
1
 10
47.515520
 20
69.336576
 30
0.0
 10
47.970311
 20
69.599149
 30
0.0
 10
48.250474
 20
70.084406
 30
0.0
 10
48.250474
 20
70.609553
 30
0.0
  0
LWPOLYLINE
  5
10c
100
AcDbEntity
  8
0
 62
7
100
AcDbPolyline
 90
2
 70
1
 10
62.225314
 20
70.609553
 30
0.0
 10
62.225314
 20
70.609553
 30
0.0
  0
SPLINE
  5
10d
100
AcDbEntity
  8
0
 62
7
100
AcDbSpline
 70
8
 71
3
 72
8
 73
4
 74
0
 40
0
 40
0
 40
0
 40
0
 40
1
 40
1
 40
1
 40
1
 10
77.720562
 20
65.400747
 30
0.0
 10
77.720562
 20
66.015197
 30
0.0
 10
77.392756
 20
66.582972
 30
0.0
 10
76.860627
 20
66.890197
 30
0.0
  0
SPLINE
  5
10e
100
AcDbEntity
  8
0
 62
7
100
AcDbSpline
 70
8
 71
3
 72
8
 73
4
 74
0
 40
0
 40
0
 40
0
 40
0
 40
1
 40
1
 40
1
 40
1
 10
76.860627
 20
66.890197
 30
0.0
 10
76.328498
 20
67.197422
 30
0.0
 10
75.672887
 20
67.197422
 30
0.0
 10
75.140758
 20
66.890197
 30
0.0
  0
SPLINE
  5
10f
100
AcDbEntity
  8
0
 62
7
100
AcDbSpline
 70
8
 71
3
 72
8
 73
4
 74
0
 40
0
 40
0
 40
0
 40
0
 40
1
 40
1
 40
1
 40
1
 10
75.140758
 20
66.890197
 30
0.0
 10
74.608628
 20
66.582972
 30
0.0
 10
74.280823
 20
66.015197
 30
0.0
 10
74.280823
 20
65.400747
 30
0.0
  0
SPLINE
  5
110
100
AcDbEntity
  8
0
 62
7
100
AcDbSpline
 70
8
 71
3
 72
8
 73
4
 74
0
 40
0
 40
0
 40
0
 40
0
 40
1
 40
1
 40
1
 40
1
 10
74.280823
 20
65.400747
 30
0.0
 10
74.280823
 20
64.786297
 30
0.0
 10
74.608628
 20
64.218521
 30
0.0
 10
75.140758
 20
63.911296
 30
0.0
  0
SPLINE
  5
111
100
AcDbEntity
  8
0
 62
7
100
AcDbSpline
 70
8
 71
3
 72
8
 73
4
 74
0
 40
0
 40
0
 40
0
 40
0
 40
1
 40
1
 40
1
 40
1
 10
75.140758
 20
63.911296
 30
0.0
 10
75.672887
 20
63.604071
 30
0.0
 10
76.328498
 20
63.604071
 30
0.0
 10
76.860627
 20
63.911296
 30
0.0
  0
SPLINE
  5
112
100
AcDbEntity
  8
0
 62
7
100
AcDbSpline
 70
8
 71
3
 72
8
 73
4
 74
0
 40
0
 40
0
 40
0
 40
0
 40
1
 40
1
 40
1
 40
1
 10
76.860627
 20
63.911296
 30
0.0
 10
77.392757
 20
64.218521
 30
0.0
 10
77.720562
 20
64.786297
 30
0.0
 10
77.720562
 20
65.400747
 30
0.0
  0
LWPOLYLINE
  5
113
100
AcDbEntity
  8
0
 62
7
100
AcDbPolyline
 90
2
 70
1
 10
48.250474
 20
70.609553
 30
0.0
 10
48.250474
 20
70.609553
 30
0.0
  0
SPLINE
  5
114
100
AcDbEntity
  8
0
 62
7
100
AcDbSpline
 70
8
 71
3
 72
8
 73
4
 74
0
 40
0
 40
0
 40
0
 40
0
 40
1
 40
1
 40
1
 40
1
 10
92.715881
 20
70.609553
 30
0.0
 10
92.716445
 20
71.135076
 30
0.0
 10
92.436406
 20
71.620920
 30
0.0
 10
91.981383
 20
71.883845
 30
0.0
  0
SPLINE
  5
115
100
AcDbEntity
  8
0
 62
7
100
AcDbSpline
 70
8
 71
3
 72
8
 73
4
 74
0
 40
0
 40
0
 40
0
 40
0
 40
1
 40
1
 40
1
 40
1
 10
91.981383
 20
71.883845
 30
0.0
 10
91.526361
 20
72.146769
 30
0.0
 10
90.965587
 20
72.146769
 30
0.0
 10
90.510565
 20
71.883845
 30
0.0
  0
SPLINE
  5
116
100
AcDbEntity
  8
0
 62
7
100
AcDbSpline
 70
8
 71
3
 72
8
 73
4
 74
0
 40
0
 40
0
 40
0
 40
0
 40
1
 40
1
 40
1
 40
1
 10
90.510565
 20
71.883845
 30
0.0
 10
90.055543
 20
71.620920
 30
0.0
 10
89.775504
 20
71.135076
 30
0.0
 10
89.776068
 20
70.609553
 30
0.0
  0
SPLINE
  5
117
100
AcDbEntity
  8
0
 62
7
100
AcDbSpline
 70
8
 71
3
 72
8
 73
4
 74
0
 40
0
 40
0
 40
0
 40
0
 40
1
 40
1
 40
1
 40
1
 10
89.776068
 20
70.609553
 30
0.0
 10
89.775504
 20
70.084030
 30
0.0
 10
90.055543
 20
69.598186
 30
0.0
 10
90.510565
 20
69.335261
 30
0.0
  0
SPLINE
  5
118
100
AcDbEntity
  8
0
 62
7
100
AcDbSpline
 70
8
 71
3
 72
8
 73
4
 74
0
 40
0
 40
0
 40
0
 40
0
 40
1
 40
1
 40
1
 40
1
 10
90.510565
 20
69.335261
 30
0.0
 10
90.965587
 20
69.072337
 30
0.0
 10
91.526361
 20
69.072337
 30
0.0
 10
91.981383
 20
69.335261
 30
0.0
  0
SPLINE
  5
119
100
AcDbEntity
  8
0
 62
7
100
AcDbSpline
 70
8
 71
3
 72
8
 73
4
 74
0
 40
0
 40
0
 40
0
 40
0
 40
1
 40
1
 40
1
 40
1
 10
91.981383
 20
69.335261
 30
0.0
 10
92.436406
 20
69.598186
 30
0.0
 10
92.716445
 20
70.084030
 30
0.0
 10
92.715881
 20
70.609553
 30
0.0
  0
LWPOLYLINE
  5
11a
100
AcDbEntity
  8
0
 62
7
100
AcDbPolyline
 90
2
 70
1
 10
77.720562
 20
65.400747
 30
0.0
 10
77.720562
 20
65.400747
 30
0.0
  0
SPLINE
  5
11b
100
AcDbEntity
  8
0
 62
7
100
AcDbSpline
 70
8
 71
3
 72
8
 73
4
 74
0
 40
0
 40
0
 40
0
 40
0
 40
1
 40
1
 40
1
 40
1
 10
106.940685
 20
70.609553
 30
0.0
 10
106.940685
 20
71.224003
 30
0.0
 10
106.612880
 20
71.791779
 30
0.0
 10
106.080750
 20
72.099004
 30
0.0
  0
SPLINE
  5
11c
100
AcDbEntity
  8
0
 62
7
100
AcDbSpline
 70
8
 71
3
 72
8
 73
4
 74
0
 40
0
 40
0
 40
0
 40
0
 40
1
 40
1
 40
1
 40
1
 10
106.080750
 20
72.099004
 30
0.0
 10
105.548621
 20
72.406229
 30
0.0
 10
104.893010
 20
72.406229
 30
0.0
 10
104.360881
 20
72.099004
 30
0.0
  0
SPLINE
  5
11d
100
AcDbEntity
  8
0
 62
7
100
AcDbSpline
 70
8
 71
3
 72
8
 73
4
 74
0
 40
0
 40
0
 40
0
 40
0
 40
1
 40
1
 40
1
 40
1
 10
104.360881
 20
72.099004
 30
0.0
 10
103.828752
 20
71.791779
 30
0.0
 10
103.500946
 20
71.224003
 30
0.0
 10
103.500946
 20
70.609553
 30
0.0
  0
SPLINE
  5
11e
100
AcDbEntity
  8
0
 62
7
100
AcDbSpline
 70
8
 71
3
 72
8
 73
4
 74
0
 40
0
 40
0
 40
0
 40
0
 40
1
 40
1
 40
1
 40
1
 10
103.500946
 20
70.609553
 30
0.0
 10
103.500946
 20
69.995103
 30
0.0
 10
103.828752
 20
69.427328
 30
0.0
 10
104.360881
 20
69.120103
 30
0.0
  0
SPLINE
  5
11f
100
AcDbEntity
  8
0
 62
7
100
AcDbSpline
 70
8
 71
3
 72
8
 73
4
 74
0
 40
0
 40
0
 40
0
 40
0
 40
1
 40
1
 40
1
 40
1
 10
104.360881
 20
69.120103
 30
0.0
 10
104.893010
 20
68.812878
 30
0.0
 10
105.548621
 20
68.812878
 30
0.0
 10
106.080750
 20
69.120103
 30
0.0
  0
SPLINE
  5
120
100
AcDbEntity
  8
0
 62
7
100
AcDbSpline
 70
8
 71
3
 72
8
 73
4
 74
0
 40
0
 40
0
 40
0
 40
0
 40
1
 40
1
 40
1
 40
1
 10
106.080750
 20
69.120103
 30
0.0
 10
106.612880
 20
69.427328
 30
0.0
 10
106.940685
 20
69.995103
 30
0.0
 10
106.940685
 20
70.609553
 30
0.0
  0
LWPOLYLINE
  5
121
100
AcDbEntity
  8
0
 62
7
100
AcDbPolyline
 90
2
 70
1
 10
92.715881
 20
70.609553
 30
0.0
 10
92.715881
 20
70.609553
 30
0.0
  0
LWPOLYLINE
  5
122
100
AcDbEntity
  8
0
 62
7
100
AcDbPolyline
 90
2
 70
1
 10
106.940685
 20
70.609553
 30
0.0
 10
106.940685
 20
70.609553
 30
0.0
  0
LWPOLYLINE
  5
123
100
AcDbEntity
  8
0
 62
7
100
AcDbPolyline
 90
2
 70
0
 10
135.312276
 20
6.552249
 30
0.0
 10
135.312276
 20
21.552247
 30
0.0
  0
LWPOLYLINE
  5
124
100
AcDbEntity
  8
0
 62
7
100
AcDbPolyline
 90
2
 70
0
 10
17.070240
 20
21.552247
 30
0.0
 10
17.070240
 20
6.552249
 30
0.0
  0
LWPOLYLINE
  5
125
100
AcDbEntity
  8
0
 62
7
100
AcDbPolyline
 90
2
 70
0
 10
17.070240
 20
163.709466
 30
0.0
 10
17.070240
 20
148.709465
 30
0.0
  0
LWPOLYLINE
  5
126
100
AcDbEntity
  8
0
 62
7
100
AcDbPolyline
 90
2
 70
0
 10
135.312276
 20
148.709465
 30
0.0
 10
135.312276
 20
163.709466
 30
0.0
  0
LWPOLYLINE
  5
127
100
AcDbEntity
  8
0
 62
7
100
AcDbPolyline
 90
2
 70
0
 10
25.491257
 20
174.701502
 30
0.0
 10
16.191257
 20
174.701502
 30
0.0
  0
LWPOLYLINE
  5
128
100
AcDbEntity
  8
0
 62
7
100
AcDbPolyline
 90
2
 70
0
 10
136.191257
 20
174.701502
 30
0.0
 10
126.891256
 20
174.701502
 30
0.0
  0
LWPOLYLINE
  5
129
100
AcDbEntity
  8
0
 62
7
100
AcDbPolyline
 90
2
 70
0
 10
136.191257
 20
137.717431
 30
0.0
 10
16.191257
 20
137.717431
 30
0.0
  0
LWPOLYLINE
  5
12a
100
AcDbEntity
  8
0
 62
7
100
AcDbPolyline
 90
2
 70
0
 10
16.191257
 20
24.316642
 30
0.0
 10
136.191257
 20
24.316642
 30
0.0
  0
LWPOLYLINE
  5
12b
100
AcDbEntity
  8
0
 62
7
100
AcDbPolyline
 90
2
 70
0
 10
16.191257
 20
54.346554
 30
0.0
 10
136.191257
 20
54.346554
 30
0.0
  0
LWPOLYLINE
  5
12c
100
AcDbEntity
  8
0
 62
7
100
AcDbPolyline
 90
2
 70
0
 10
16.191257
 20
81.212332
 30
0.0
 10
136.191257
 20
81.212332
 30
0.0
  0
LWPOLYLINE
  5
12d
100
AcDbEntity
  8
0
 62
7
100
AcDbPolyline
 90
2
 70
0
 10
16.191257
 20
90.754378
 30
0.0
 10
136.191257
 20
90.754378
 30
0.0
  0
LWPOLYLINE
  5
12e
100
AcDbEntity
  8
0
 62
7
100
AcDbPolyline
 90
2
 70
0
 10
136.191257
 20
173.359465
 30
0.0
 10
126.891256
 20
173.359465
 30
0.0
  0
LWPOLYLINE
  5
12f
100
AcDbEntity
  8
0
 62
7
100
AcDbPolyline
 90
3
 70
0
 10
136.191257
 20
173.359465
 30
0.0
 10
136.191257
 20
183.859466
 30
0.0
 10
126.891256
 20
183.859466
 30
0.0
  0
LWPOLYLINE
  5
130
100
AcDbEntity
  8
0
 62
7
100
AcDbPolyline
 90
2
 70
0
 10
126.891256
 20
173.359465
 30
0.0
 10
126.891256
 20
183.859466
 30
0.0
  0
LWPOLYLINE
  5
131
100
AcDbEntity
  8
0
 62
7
100
AcDbPolyline
 90
2
 70
0
 10
16.191257
 20
173.359465
 30
0.0
 10
25.491257
 20
173.359465
 30
0.0
  0
LWPOLYLINE
  5
132
100
AcDbEntity
  8
0
 62
7
100
AcDbPolyline
 90
3
 70
0
 10
16.191257
 20
173.359465
 30
0.0
 10
16.191257
 20
183.859466
 30
0.0
 10
25.491257
 20
183.859466
 30
0.0
  0
SPLINE
  5
133
100
AcDbEntity
  8
0
 62
7
100
AcDbSpline
 70
8
 71
3
 72
8
 73
4
 74
0
 40
0
 40
0
 40
0
 40
0
 40
1
 40
1
 40
1
 40
1
 10
144.533292
 20
156.209467
 30
0.0
 10
144.533292
 20
156.959724
 30
0.0
 10
144.133034
 20
157.652991
 30
0.0
 10
143.483292
 20
158.028120
 30
0.0
  0
SPLINE
  5
134
100
AcDbEntity
  8
0
 62
7
100
AcDbSpline
 70
8
 71
3
 72
8
 73
4
 74
0
 40
0
 40
0
 40
0
 40
0
 40
1
 40
1
 40
1
 40
1
 10
143.483292
 20
158.028120
 30
0.0
 10
142.833549
 20
158.403249
 30
0.0
 10
142.033034
 20
158.403249
 30
0.0
 10
141.383292
 20
158.028120
 30
0.0
  0
SPLINE
  5
135
100
AcDbEntity
  8
0
 62
7
100
AcDbSpline
 70
8
 71
3
 72
8
 73
4
 74
0
 40
0
 40
0
 40
0
 40
0
 40
1
 40
1
 40
1
 40
1
 10
141.383292
 20
158.028120
 30
0.0
 10
140.733549
 20
157.652991
 30
0.0
 10
140.333292
 20
156.959724
 30
0.0
 10
140.333292
 20
156.209467
 30
0.0
  0
SPLINE
  5
136
100
AcDbEntity
  8
0
 62
7
100
AcDbSpline
 70
8
 71
3
 72
8
 73
4
 74
0
 40
0
 40
0
 40
0
 40
0
 40
1
 40
1
 40
1
 40
1
 10
140.333292
 20
156.209467
 30
0.0
 10
140.333292
 20
155.459209
 30
0.0
 10
140.733549
 20
154.765942
 30
0.0
 10
141.383292
 20
154.390813
 30
0.0
  0
SPLINE
  5
137
100
AcDbEntity
  8
0
 62
7
100
AcDbSpline
 70
8
 71
3
 72
8
 73
4
 74
0
 40
0
 40
0
 40
0
 40
0
 40
1
 40
1
 40
1
 40
1
 10
141.383292
 20
154.390813
 30
0.0
 10
142.033034
 20
154.015684
 30
0.0
 10
142.833550
 20
154.015684
 30
0.0
 10
143.483292
 20
154.390813
 30
0.0
  0
SPLINE
  5
138
100
AcDbEntity
  8
0
 62
7
100
AcDbSpline
 70
8
 71
3
 72
8
 73
4
 74
0
 40
0
 40
0
 40
0
 40
0
 40
1
 40
1
 40
1
 40
1
 10
143.483292
 20
154.390813
 30
0.0
 10
144.133034
 20
154.765942
 30
0.0
 10
144.533292
 20
155.459209
 30
0.0
 10
144.533292
 20
156.209467
 30
0.0
  0
LWPOLYLINE
  5
139
100
AcDbEntity
  8
0
 62
7
100
AcDbPolyline
 90
2
 70
0
 10
25.491257
 20
173.359465
 30
0.0
 10
25.491257
 20
183.859466
 30
0.0
  0
SPLINE
  5
13a
100
AcDbEntity
  8
0
 62
7
100
AcDbSpline
 70
8
 71
3
 72
8
 73
4
 74
0
 40
0
 40
0
 40
0
 40
0
 40
1
 40
1
 40
1
 40
1
 10
12.049222
 20
156.209467
 30
0.0
 10
12.049222
 20
156.959724
 30
0.0
 10
11.648964
 20
157.652991
 30
0.0
 10
10.999222
 20
158.028120
 30
0.0
  0
SPLINE
  5
13b
100
AcDbEntity
  8
0
 62
7
100
AcDbSpline
 70
8
 71
3
 72
8
 73
4
 74
0
 40
0
 40
0
 40
0
 40
0
 40
1
 40
1
 40
1
 40
1
 10
10.999222
 20
158.028120
 30
0.0
 10
10.349480
 20
158.403249
 30
0.0
 10
9.548964
 20
158.403249
 30
0.0
 10
8.899222
 20
158.028120
 30
0.0
  0
SPLINE
  5
13c
100
AcDbEntity
  8
0
 62
7
100
AcDbSpline
 70
8
 71
3
 72
8
 73
4
 74
0
 40
0
 40
0
 40
0
 40
0
 40
1
 40
1
 40
1
 40
1
 10
8.899222
 20
158.028120
 30
0.0
 10
8.249480
 20
157.652991
 30
0.0
 10
7.849222
 20
156.959724
 30
0.0
 10
7.849222
 20
156.209467
 30
0.0
  0
SPLINE
  5
13d
100
AcDbEntity
  8
0
 62
7
100
AcDbSpline
 70
8
 71
3
 72
8
 73
4
 74
0
 40
0
 40
0
 40
0
 40
0
 40
1
 40
1
 40
1
 40
1
 10
7.849222
 20
156.209467
 30
0.0
 10
7.849222
 20
155.459209
 30
0.0
 10
8.249480
 20
154.765942
 30
0.0
 10
8.899222
 20
154.390813
 30
0.0
  0
SPLINE
  5
13e
100
AcDbEntity
  8
0
 62
7
100
AcDbSpline
 70
8
 71
3
 72
8
 73
4
 74
0
 40
0
 40
0
 40
0
 40
0
 40
1
 40
1
 40
1
 40
1
 10
8.899222
 20
154.390813
 30
0.0
 10
9.548964
 20
154.015684
 30
0.0
 10
10.349480
 20
154.015684
 30
0.0
 10
10.999222
 20
154.390813
 30
0.0
  0
SPLINE
  5
13f
100
AcDbEntity
  8
0
 62
7
100
AcDbSpline
 70
8
 71
3
 72
8
 73
4
 74
0
 40
0
 40
0
 40
0
 40
0
 40
1
 40
1
 40
1
 40
1
 10
10.999222
 20
154.390813
 30
0.0
 10
11.648964
 20
154.765942
 30
0.0
 10
12.049222
 20
155.459209
 30
0.0
 10
12.049222
 20
156.209467
 30
0.0
  0
LWPOLYLINE
  5
140
100
AcDbEntity
  8
0
 62
7
100
AcDbPolyline
 90
2
 70
1
 10
144.533292
 20
156.209467
 30
0.0
 10
144.533292
 20
156.209467
 30
0.0
  0
SPLINE
  5
141
100
AcDbEntity
  8
0
 62
7
100
AcDbSpline
 70
8
 71
3
 72
8
 73
4
 74
0
 40
0
 40
0
 40
0
 40
0
 40
1
 40
1
 40
1
 40
1
 10
32.958147
 20
118.723001
 30
0.0
 10
32.958147
 20
119.276762
 30
0.0
 10
32.662719
 20
119.788459
 30
0.0
 10
32.183147
 20
120.065340
 30
0.0
  0
SPLINE
  5
142
100
AcDbEntity
  8
0
 62
7
100
AcDbSpline
 70
8
 71
3
 72
8
 73
4
 74
0
 40
0
 40
0
 40
0
 40
0
 40
1
 40
1
 40
1
 40
1
 10
32.183147
 20
120.065340
 30
0.0
 10
31.703576
 20
120.342221
 30
0.0
 10
31.112719
 20
120.342221
 30
0.0
 10
30.633147
 20
120.065340
 30
0.0
  0
SPLINE
  5
143
100
AcDbEntity
  8
0
 62
7
100
AcDbSpline
 70
8
 71
3
 72
8
 73
4
 74
0
 40
0
 40
0
 40
0
 40
0
 40
1
 40
1
 40
1
 40
1
 10
30.633147
 20
120.065340
 30
0.0
 10
30.153576
 20
119.788459
 30
0.0
 10
29.858147
 20
119.276762
 30
0.0
 10
29.858147
 20
118.723001
 30
0.0
  0
SPLINE
  5
144
100
AcDbEntity
  8
0
 62
7
100
AcDbSpline
 70
8
 71
3
 72
8
 73
4
 74
0
 40
0
 40
0
 40
0
 40
0
 40
1
 40
1
 40
1
 40
1
 10
29.858147
 20
118.723001
 30
0.0
 10
29.858147
 20
118.169239
 30
0.0
 10
30.153576
 20
117.657542
 30
0.0
 10
30.633147
 20
117.380661
 30
0.0
  0
SPLINE
  5
145
100
AcDbEntity
  8
0
 62
7
100
AcDbSpline
 70
8
 71
3
 72
8
 73
4
 74
0
 40
0
 40
0
 40
0
 40
0
 40
1
 40
1
 40
1
 40
1
 10
30.633147
 20
117.380661
 30
0.0
 10
31.112719
 20
117.103780
 30
0.0
 10
31.703576
 20
117.103780
 30
0.0
 10
32.183147
 20
117.380661
 30
0.0
  0
SPLINE
  5
146
100
AcDbEntity
  8
0
 62
7
100
AcDbSpline
 70
8
 71
3
 72
8
 73
4
 74
0
 40
0
 40
0
 40
0
 40
0
 40
1
 40
1
 40
1
 40
1
 10
32.183147
 20
117.380661
 30
0.0
 10
32.662719
 20
117.657542
 30
0.0
 10
32.958147
 20
118.169239
 30
0.0
 10
32.958147
 20
118.723001
 30
0.0
  0
LWPOLYLINE
  5
147
100
AcDbEntity
  8
0
 62
7
100
AcDbPolyline
 90
2
 70
1
 10
12.049222
 20
156.209467
 30
0.0
 10
12.049222
 20
156.209467
 30
0.0
  0
SPLINE
  5
148
100
AcDbEntity
  8
0
 62
7
100
AcDbSpline
 70
8
 71
3
 72
8
 73
4
 74
0
 40
0
 40
0
 40
0
 40
0
 40
1
 40
1
 40
1
 40
1
 10
32.958147
 20
112.243754
 30
0.0
 10
32.958147
 20
112.797516
 30
0.0
 10
32.662719
 20
113.309213
 30
0.0
 10
32.183147
 20
113.586094
 30
0.0
  0
SPLINE
  5
149
100
AcDbEntity
  8
0
 62
7
100
AcDbSpline
 70
8
 71
3
 72
8
 73
4
 74
0
 40
0
 40
0
 40
0
 40
0
 40
1
 40
1
 40
1
 40
1
 10
32.183147
 20
113.586094
 30
0.0
 10
31.703576
 20
113.862975
 30
0.0
 10
31.112719
 20
113.862975
 30
0.0
 10
30.633147
 20
113.586094
 30
0.0
  0
SPLINE
  5
14a
100
AcDbEntity
  8
0
 62
7
100
AcDbSpline
 70
8
 71
3
 72
8
 73
4
 74
0
 40
0
 40
0
 40
0
 40
0
 40
1
 40
1
 40
1
 40
1
 10
30.633147
 20
113.586094
 30
0.0
 10
30.153576
 20
113.309213
 30
0.0
 10
29.858147
 20
112.797516
 30
0.0
 10
29.858147
 20
112.243754
 30
0.0
  0
SPLINE
  5
14b
100
AcDbEntity
  8
0
 62
7
100
AcDbSpline
 70
8
 71
3
 72
8
 73
4
 74
0
 40
0
 40
0
 40
0
 40
0
 40
1
 40
1
 40
1
 40
1
 10
29.858147
 20
112.243754
 30
0.0
 10
29.858147
 20
111.689993
 30
0.0
 10
30.153576
 20
111.178296
 30
0.0
 10
30.633147
 20
110.901415
 30
0.0
  0
SPLINE
  5
14c
100
AcDbEntity
  8
0
 62
7
100
AcDbSpline
 70
8
 71
3
 72
8
 73
4
 74
0
 40
0
 40
0
 40
0
 40
0
 40
1
 40
1
 40
1
 40
1
 10
30.633147
 20
110.901415
 30
0.0
 10
31.112719
 20
110.624534
 30
0.0
 10
31.703576
 20
110.624534
 30
0.0
 10
32.183147
 20
110.901415
 30
0.0
  0
SPLINE
  5
14d
100
AcDbEntity
  8
0
 62
7
100
AcDbSpline
 70
8
 71
3
 72
8
 73
4
 74
0
 40
0
 40
0
 40
0
 40
0
 40
1
 40
1
 40
1
 40
1
 10
32.183147
 20
110.901415
 30
0.0
 10
32.662719
 20
111.178296
 30
0.0
 10
32.958147
 20
111.689993
 30
0.0
 10
32.958147
 20
112.243754
 30
0.0
  0
LWPOLYLINE
  5
14e
100
AcDbEntity
  8
0
 62
7
100
AcDbPolyline
 90
2
 70
1
 10
32.958147
 20
118.723001
 30
0.0
 10
32.958147
 20
118.723001
 30
0.0
  0
SPLINE
  5
14f
100
AcDbEntity
  8
0
 62
7
100
AcDbSpline
 70
8
 71
3
 72
8
 73
4
 74
0
 40
0
 40
0
 40
0
 40
0
 40
1
 40
1
 40
1
 40
1
 10
32.958147
 20
105.891553
 30
0.0
 10
32.958147
 20
106.445315
 30
0.0
 10
32.662719
 20
106.957012
 30
0.0
 10
32.183147
 20
107.233892
 30
0.0
  0
SPLINE
  5
150
100
AcDbEntity
  8
0
 62
7
100
AcDbSpline
 70
8
 71
3
 72
8
 73
4
 74
0
 40
0
 40
0
 40
0
 40
0
 40
1
 40
1
 40
1
 40
1
 10
32.183147
 20
107.233892
 30
0.0
 10
31.703576
 20
107.510773
 30
0.0
 10
31.112719
 20
107.510773
 30
0.0
 10
30.633147
 20
107.233892
 30
0.0
  0
SPLINE
  5
151
100
AcDbEntity
  8
0
 62
7
100
AcDbSpline
 70
8
 71
3
 72
8
 73
4
 74
0
 40
0
 40
0
 40
0
 40
0
 40
1
 40
1
 40
1
 40
1
 10
30.633147
 20
107.233892
 30
0.0
 10
30.153576
 20
106.957012
 30
0.0
 10
29.858147
 20
106.445315
 30
0.0
 10
29.858147
 20
105.891553
 30
0.0
  0
SPLINE
  5
152
100
AcDbEntity
  8
0
 62
7
100
AcDbSpline
 70
8
 71
3
 72
8
 73
4
 74
0
 40
0
 40
0
 40
0
 40
0
 40
1
 40
1
 40
1
 40
1
 10
29.858147
 20
105.891553
 30
0.0
 10
29.858147
 20
105.337791
 30
0.0
 10
30.153576
 20
104.826094
 30
0.0
 10
30.633147
 20
104.549214
 30
0.0
  0
SPLINE
  5
153
100
AcDbEntity
  8
0
 62
7
100
AcDbSpline
 70
8
 71
3
 72
8
 73
4
 74
0
 40
0
 40
0
 40
0
 40
0
 40
1
 40
1
 40
1
 40
1
 10
30.633147
 20
104.549214
 30
0.0
 10
31.112719
 20
104.272333
 30
0.0
 10
31.703576
 20
104.272333
 30
0.0
 10
32.183147
 20
104.549214
 30
0.0
  0
SPLINE
  5
154
100
AcDbEntity
  8
0
 62
7
100
AcDbSpline
 70
8
 71
3
 72
8
 73
4
 74
0
 40
0
 40
0
 40
0
 40
0
 40
1
 40
1
 40
1
 40
1
 10
32.183147
 20
104.549214
 30
0.0
 10
32.662719
 20
104.826094
 30
0.0
 10
32.958147
 20
105.337791
 30
0.0
 10
32.958147
 20
105.891553
 30
0.0
  0
LWPOLYLINE
  5
155
100
AcDbEntity
  8
0
 62
7
100
AcDbPolyline
 90
2
 70
1
 10
32.958147
 20
112.243754
 30
0.0
 10
32.958147
 20
112.243754
 30
0.0
  0
SPLINE
  5
156
100
AcDbEntity
  8
0
 62
7
100
AcDbSpline
 70
8
 71
3
 72
8
 73
4
 74
0
 40
0
 40
0
 40
0
 40
0
 40
1
 40
1
 40
1
 40
1
 10
32.958147
 20
99.539363
 30
0.0
 10
32.958147
 20
100.093125
 30
0.0
 10
32.662719
 20
100.604821
 30
0.0
 10
32.183147
 20
100.881702
 30
0.0
  0
SPLINE
  5
157
100
AcDbEntity
  8
0
 62
7
100
AcDbSpline
 70
8
 71
3
 72
8
 73
4
 74
0
 40
0
 40
0
 40
0
 40
0
 40
1
 40
1
 40
1
 40
1
 10
32.183147
 20
100.881702
 30
0.0
 10
31.703576
 20
101.158583
 30
0.0
 10
31.112719
 20
101.158583
 30
0.0
 10
30.633147
 20
100.881702
 30
0.0
  0
SPLINE
  5
158
100
AcDbEntity
  8
0
 62
7
100
AcDbSpline
 70
8
 71
3
 72
8
 73
4
 74
0
 40
0
 40
0
 40
0
 40
0
 40
1
 40
1
 40
1
 40
1
 10
30.633147
 20
100.881702
 30
0.0
 10
30.153576
 20
100.604821
 30
0.0
 10
29.858147
 20
100.093125
 30
0.0
 10
29.858147
 20
99.539363
 30
0.0
  0
SPLINE
  5
159
100
AcDbEntity
  8
0
 62
7
100
AcDbSpline
 70
8
 71
3
 72
8
 73
4
 74
0
 40
0
 40
0
 40
0
 40
0
 40
1
 40
1
 40
1
 40
1
 10
29.858147
 20
99.539363
 30
0.0
 10
29.858147
 20
98.985601
 30
0.0
 10
30.153576
 20
98.473904
 30
0.0
 10
30.633147
 20
98.197023
 30
0.0
  0
SPLINE
  5
15a
100
AcDbEntity
  8
0
 62
7
100
AcDbSpline
 70
8
 71
3
 72
8
 73
4
 74
0
 40
0
 40
0
 40
0
 40
0
 40
1
 40
1
 40
1
 40
1
 10
30.633147
 20
98.197023
 30
0.0
 10
31.112719
 20
97.920143
 30
0.0
 10
31.703576
 20
97.920143
 30
0.0
 10
32.183147
 20
98.197023
 30
0.0
  0
SPLINE
  5
15b
100
AcDbEntity
  8
0
 62
7
100
AcDbSpline
 70
8
 71
3
 72
8
 73
4
 74
0
 40
0
 40
0
 40
0
 40
0
 40
1
 40
1
 40
1
 40
1
 10
32.183147
 20
98.197023
 30
0.0
 10
32.662719
 20
98.473904
 30
0.0
 10
32.958147
 20
98.985601
 30
0.0
 10
32.958147
 20
99.539363
 30
0.0
  0
LWPOLYLINE
  5
15c
100
AcDbEntity
  8
0
 62
7
100
AcDbPolyline
 90
2
 70
1
 10
32.958147
 20
105.891553
 30
0.0
 10
32.958147
 20
105.891553
 30
0.0
  0
SPLINE
  5
15d
100
AcDbEntity
  8
0
 62
7
100
AcDbSpline
 70
8
 71
3
 72
8
 73
4
 74
0
 40
0
 40
0
 40
0
 40
0
 40
1
 40
1
 40
1
 40
1
 10
41.228993
 20
94.075400
 30
0.0
 10
41.228993
 20
94.647025
 30
0.0
 10
40.924035
 20
95.175228
 30
0.0
 10
40.428993
 20
95.461040
 30
0.0
  0
SPLINE
  5
15e
100
AcDbEntity
  8
0
 62
7
100
AcDbSpline
 70
8
 71
3
 72
8
 73
4
 74
0
 40
0
 40
0
 40
0
 40
0
 40
1
 40
1
 40
1
 40
1
 10
40.428993
 20
95.461040
 30
0.0
 10
39.933952
 20
95.746853
 30
0.0
 10
39.324035
 20
95.746853
 30
0.0
 10
38.828993
 20
95.461040
 30
0.0
  0
SPLINE
  5
15f
100
AcDbEntity
  8
0
 62
7
100
AcDbSpline
 70
8
 71
3
 72
8
 73
4
 74
0
 40
0
 40
0
 40
0
 40
0
 40
1
 40
1
 40
1
 40
1
 10
38.828993
 20
95.461040
 30
0.0
 10
38.333951
 20
95.175228
 30
0.0
 10
38.028993
 20
94.647025
 30
0.0
 10
38.028993
 20
94.075400
 30
0.0
  0
SPLINE
  5
160
100
AcDbEntity
  8
0
 62
7
100
AcDbSpline
 70
8
 71
3
 72
8
 73
4
 74
0
 40
0
 40
0
 40
0
 40
0
 40
1
 40
1
 40
1
 40
1
 10
38.028993
 20
94.075400
 30
0.0
 10
38.028993
 20
93.503775
 30
0.0
 10
38.333951
 20
92.975571
 30
0.0
 10
38.828993
 20
92.689759
 30
0.0
  0
SPLINE
  5
161
100
AcDbEntity
  8
0
 62
7
100
AcDbSpline
 70
8
 71
3
 72
8
 73
4
 74
0
 40
0
 40
0
 40
0
 40
0
 40
1
 40
1
 40
1
 40
1
 10
38.828993
 20
92.689759
 30
0.0
 10
39.324035
 20
92.403946
 30
0.0
 10
39.933952
 20
92.403946
 30
0.0
 10
40.428993
 20
92.689759
 30
0.0
  0
SPLINE
  5
162
100
AcDbEntity
  8
0
 62
7
100
AcDbSpline
 70
8
 71
3
 72
8
 73
4
 74
0
 40
0
 40
0
 40
0
 40
0
 40
1
 40
1
 40
1
 40
1
 10
40.428993
 20
92.689759
 30
0.0
 10
40.924035
 20
92.975571
 30
0.0
 10
41.228993
 20
93.503775
 30
0.0
 10
41.228993
 20
94.075400
 30
0.0
  0
LWPOLYLINE
  5
163
100
AcDbEntity
  8
0
 62
7
100
AcDbPolyline
 90
2
 70
1
 10
32.958147
 20
99.539363
 30
0.0
 10
32.958147
 20
99.539363
 30
0.0
  0
SPLINE
  5
164
100
AcDbEntity
  8
0
 62
7
100
AcDbSpline
 70
8
 71
3
 72
8
 73
4
 74
0
 40
0
 40
0
 40
0
 40
0
 40
1
 40
1
 40
1
 40
1
 10
41.228993
 20
125.075397
 30
0.0
 10
41.228993
 20
125.647022
 30
0.0
 10
40.924035
 20
126.175225
 30
0.0
 10
40.428993
 20
126.461038
 30
0.0
  0
SPLINE
  5
165
100
AcDbEntity
  8
0
 62
7
100
AcDbSpline
 70
8
 71
3
 72
8
 73
4
 74
0
 40
0
 40
0
 40
0
 40
0
 40
1
 40
1
 40
1
 40
1
 10
40.428993
 20
126.461038
 30
0.0
 10
39.933952
 20
126.746850
 30
0.0
 10
39.324035
 20
126.746850
 30
0.0
 10
38.828993
 20
126.461038
 30
0.0
  0
SPLINE
  5
166
100
AcDbEntity
  8
0
 62
7
100
AcDbSpline
 70
8
 71
3
 72
8
 73
4
 74
0
 40
0
 40
0
 40
0
 40
0
 40
1
 40
1
 40
1
 40
1
 10
38.828993
 20
126.461038
 30
0.0
 10
38.333951
 20
126.175225
 30
0.0
 10
38.028993
 20
125.647022
 30
0.0
 10
38.028993
 20
125.075397
 30
0.0
  0
SPLINE
  5
167
100
AcDbEntity
  8
0
 62
7
100
AcDbSpline
 70
8
 71
3
 72
8
 73
4
 74
0
 40
0
 40
0
 40
0
 40
0
 40
1
 40
1
 40
1
 40
1
 10
38.028993
 20
125.075397
 30
0.0
 10
38.028993
 20
124.503772
 30
0.0
 10
38.333951
 20
123.975569
 30
0.0
 10
38.828993
 20
123.689756
 30
0.0
  0
SPLINE
  5
168
100
AcDbEntity
  8
0
 62
7
100
AcDbSpline
 70
8
 71
3
 72
8
 73
4
 74
0
 40
0
 40
0
 40
0
 40
0
 40
1
 40
1
 40
1
 40
1
 10
38.828993
 20
123.689756
 30
0.0
 10
39.324035
 20
123.403944
 30
0.0
 10
39.933952
 20
123.403944
 30
0.0
 10
40.428993
 20
123.689756
 30
0.0
  0
SPLINE
  5
169
100
AcDbEntity
  8
0
 62
7
100
AcDbSpline
 70
8
 71
3
 72
8
 73
4
 74
0
 40
0
 40
0
 40
0
 40
0
 40
1
 40
1
 40
1
 40
1
 10
40.428993
 20
123.689756
 30
0.0
 10
40.924035
 20
123.975569
 30
0.0
 10
41.228993
 20
124.503772
 30
0.0
 10
41.228993
 20
125.075397
 30
0.0
  0
LWPOLYLINE
  5
16a
100
AcDbEntity
  8
0
 62
7
100
AcDbPolyline
 90
2
 70
1
 10
41.228993
 20
94.075400
 30
0.0
 10
41.228993
 20
94.075400
 30
0.0
  0
SPLINE
  5
16b
100
AcDbEntity
  8
0
 62
7
100
AcDbSpline
 70
8
 71
3
 72
8
 73
4
 74
0
 40
0
 40
0
 40
0
 40
0
 40
1
 40
1
 40
1
 40
1
 10
116.228994
 20
94.075400
 30
0.0
 10
116.229333
 20
94.647251
 30
0.0
 10
115.924449
 20
95.175808
 30
0.0
 10
115.429268
 20
95.461832
 30
0.0
  0
SPLINE
  5
16c
100
AcDbEntity
  8
0
 62
7
100
AcDbSpline
 70
8
 71
3
 72
8
 73
4
 74
0
 40
0
 40
0
 40
0
 40
0
 40
1
 40
1
 40
1
 40
1
 10
115.429268
 20
95.461832
 30
0.0
 10
114.934087
 20
95.747856
 30
0.0
 10
114.323901
 20
95.747856
 30
0.0
 10
113.828720
 20
95.461832
 30
0.0
  0
SPLINE
  5
16d
100
AcDbEntity
  8
0
 62
7
100
AcDbSpline
 70
8
 71
3
 72
8
 73
4
 74
0
 40
0
 40
0
 40
0
 40
0
 40
1
 40
1
 40
1
 40
1
 10
113.828720
 20
95.461832
 30
0.0
 10
113.333539
 20
95.175808
 30
0.0
 10
113.028655
 20
94.647251
 30
0.0
 10
113.028994
 20
94.075400
 30
0.0
  0
SPLINE
  5
16e
100
AcDbEntity
  8
0
 62
7
100
AcDbSpline
 70
8
 71
3
 72
8
 73
4
 74
0
 40
0
 40
0
 40
0
 40
0
 40
1
 40
1
 40
1
 40
1
 10
113.028994
 20
94.075400
 30
0.0
 10
113.028655
 20
93.503548
 30
0.0
 10
113.333539
 20
92.974991
 30
0.0
 10
113.828720
 20
92.688967
 30
0.0
  0
SPLINE
  5
16f
100
AcDbEntity
  8
0
 62
7
100
AcDbSpline
 70
8
 71
3
 72
8
 73
4
 74
0
 40
0
 40
0
 40
0
 40
0
 40
1
 40
1
 40
1
 40
1
 10
113.828720
 20
92.688967
 30
0.0
 10
114.323901
 20
92.402943
 30
0.0
 10
114.934087
 20
92.402943
 30
0.0
 10
115.429268
 20
92.688967
 30
0.0
  0
SPLINE
  5
170
100
AcDbEntity
  8
0
 62
7
100
AcDbSpline
 70
8
 71
3
 72
8
 73
4
 74
0
 40
0
 40
0
 40
0
 40
0
 40
1
 40
1
 40
1
 40
1
 10
115.429268
 20
92.688967
 30
0.0
 10
115.924449
 20
92.974991
 30
0.0
 10
116.229333
 20
93.503548
 30
0.0
 10
116.228994
 20
94.075400
 30
0.0
  0
LWPOLYLINE
  5
171
100
AcDbEntity
  8
0
 62
7
100
AcDbPolyline
 90
2
 70
1
 10
41.228993
 20
125.075397
 30
0.0
 10
41.228993
 20
125.075397
 30
0.0
  0
SPLINE
  5
172
100
AcDbEntity
  8
0
 62
7
100
AcDbSpline
 70
8
 71
3
 72
8
 73
4
 74
0
 40
0
 40
0
 40
0
 40
0
 40
1
 40
1
 40
1
 40
1
 10
116.228994
 20
125.075397
 30
0.0
 10
116.229333
 20
125.647248
 30
0.0
 10
115.924449
 20
126.175806
 30
0.0
 10
115.429268
 20
126.461829
 30
0.0
  0
SPLINE
  5
173
100
AcDbEntity
  8
0
 62
7
100
AcDbSpline
 70
8
 71
3
 72
8
 73
4
 74
0
 40
0
 40
0
 40
0
 40
0
 40
1
 40
1
 40
1
 40
1
 10
115.429268
 20
126.461829
 30
0.0
 10
114.934087
 20
126.747853
 30
0.0
 10
114.323901
 20
126.747853
 30
0.0
 10
113.828720
 20
126.461829
 30
0.0
  0
SPLINE
  5
174
100
AcDbEntity
  8
0
 62
7
100
AcDbSpline
 70
8
 71
3
 72
8
 73
4
 74
0
 40
0
 40
0
 40
0
 40
0
 40
1
 40
1
 40
1
 40
1
 10
113.828720
 20
126.461829
 30
0.0
 10
113.333539
 20
126.175806
 30
0.0
 10
113.028655
 20
125.647248
 30
0.0
 10
113.028994
 20
125.075397
 30
0.0
  0
SPLINE
  5
175
100
AcDbEntity
  8
0
 62
7
100
AcDbSpline
 70
8
 71
3
 72
8
 73
4
 74
0
 40
0
 40
0
 40
0
 40
0
 40
1
 40
1
 40
1
 40
1
 10
113.028994
 20
125.075397
 30
0.0
 10
113.028655
 20
124.503546
 30
0.0
 10
113.333539
 20
123.974988
 30
0.0
 10
113.828720
 20
123.688964
 30
0.0
  0
SPLINE
  5
176
100
AcDbEntity
  8
0
 62
7
100
AcDbSpline
 70
8
 71
3
 72
8
 73
4
 74
0
 40
0
 40
0
 40
0
 40
0
 40
1
 40
1
 40
1
 40
1
 10
113.828720
 20
123.688964
 30
0.0
 10
114.323901
 20
123.402941
 30
0.0
 10
114.934087
 20
123.402941
 30
0.0
 10
115.429268
 20
123.688964
 30
0.0
  0
SPLINE
  5
177
100
AcDbEntity
  8
0
 62
7
100
AcDbSpline
 70
8
 71
3
 72
8
 73
4
 74
0
 40
0
 40
0
 40
0
 40
0
 40
1
 40
1
 40
1
 40
1
 10
115.429268
 20
123.688964
 30
0.0
 10
115.924449
 20
123.974988
 30
0.0
 10
116.229333
 20
124.503546
 30
0.0
 10
116.228994
 20
125.075397
 30
0.0
  0
LWPOLYLINE
  5
178
100
AcDbEntity
  8
0
 62
7
100
AcDbPolyline
 90
2
 70
1
 10
116.228994
 20
94.075400
 30
0.0
 10
116.228994
 20
94.075400
 30
0.0
  0
SPLINE
  5
179
100
AcDbEntity
  8
0
 62
7
100
AcDbSpline
 70
8
 71
3
 72
8
 73
4
 74
0
 40
0
 40
0
 40
0
 40
0
 40
1
 40
1
 40
1
 40
1
 10
144.683293
 20
14.052248
 30
0.0
 10
144.683696
 20
14.856364
 30
0.0
 10
144.254936
 20
15.599570
 30
0.0
 10
143.558618
 20
16.001744
 30
0.0
  0
SPLINE
  5
17a
100
AcDbEntity
  8
0
 62
7
100
AcDbSpline
 70
8
 71
3
 72
8
 73
4
 74
0
 40
0
 40
0
 40
0
 40
0
 40
1
 40
1
 40
1
 40
1
 10
143.558618
 20
16.001744
 30
0.0
 10
142.862301
 20
16.403919
 30
0.0
 10
142.004286
 20
16.403919
 30
0.0
 10
141.307968
 20
16.001744
 30
0.0
  0
SPLINE
  5
17b
100
AcDbEntity
  8
0
 62
7
100
AcDbSpline
 70
8
 71
3
 72
8
 73
4
 74
0
 40
0
 40
0
 40
0
 40
0
 40
1
 40
1
 40
1
 40
1
 10
141.307968
 20
16.001744
 30
0.0
 10
140.611650
 20
15.599570
 30
0.0
 10
140.182891
 20
14.856364
 30
0.0
 10
140.183293
 20
14.052248
 30
0.0
  0
SPLINE
  5
17c
100
AcDbEntity
  8
0
 62
7
100
AcDbSpline
 70
8
 71
3
 72
8
 73
4
 74
0
 40
0
 40
0
 40
0
 40
0
 40
1
 40
1
 40
1
 40
1
 10
140.183293
 20
14.052248
 30
0.0
 10
140.182891
 20
13.248132
 30
0.0
 10
140.611650
 20
12.504926
 30
0.0
 10
141.307968
 20
12.102752
 30
0.0
  0
SPLINE
  5
17d
100
AcDbEntity
  8
0
 62
7
100
AcDbSpline
 70
8
 71
3
 72
8
 73
4
 74
0
 40
0
 40
0
 40
0
 40
0
 40
1
 40
1
 40
1
 40
1
 10
141.307968
 20
12.102752
 30
0.0
 10
142.004286
 20
11.700577
 30
0.0
 10
142.862301
 20
11.700577
 30
0.0
 10
143.558618
 20
12.102752
 30
0.0
  0
SPLINE
  5
17e
100
AcDbEntity
  8
0
 62
7
100
AcDbSpline
 70
8
 71
3
 72
8
 73
4
 74
0
 40
0
 40
0
 40
0
 40
0
 40
1
 40
1
 40
1
 40
1
 10
143.558618
 20
12.102752
 30
0.0
 10
144.254936
 20
12.504926
 30
0.0
 10
144.683696
 20
13.248132
 30
0.0
 10
144.683293
 20
14.052248
 30
0.0
  0
LWPOLYLINE
  5
17f
100
AcDbEntity
  8
0
 62
7
100
AcDbPolyline
 90
2
 70
1
 10
116.228994
 20
125.075397
 30
0.0
 10
116.228994
 20
125.075397
 30
0.0
  0
SPLINE
  5
180
100
AcDbEntity
  8
0
 62
7
100
AcDbSpline
 70
8
 71
3
 72
8
 73
4
 74
0
 40
0
 40
0
 40
0
 40
0
 40
1
 40
1
 40
1
 40
1
 10
12.199222
 20
14.052248
 30
0.0
 10
12.199222
 20
14.856096
 30
0.0
 10
11.770374
 20
15.598881
 30
0.0
 10
11.074222
 20
16.000805
 30
0.0
  0
SPLINE
  5
181
100
AcDbEntity
  8
0
 62
7
100
AcDbSpline
 70
8
 71
3
 72
8
 73
4
 74
0
 40
0
 40
0
 40
0
 40
0
 40
1
 40
1
 40
1
 40
1
 10
11.074222
 20
16.000805
 30
0.0
 10
10.378070
 20
16.402729
 30
0.0
 10
9.520374
 20
16.402729
 30
0.0
 10
8.824222
 20
16.000805
 30
0.0
  0
SPLINE
  5
182
100
AcDbEntity
  8
0
 62
7
100
AcDbSpline
 70
8
 71
3
 72
8
 73
4
 74
0
 40
0
 40
0
 40
0
 40
0
 40
1
 40
1
 40
1
 40
1
 10
8.824222
 20
16.000805
 30
0.0
 10
8.128070
 20
15.598881
 30
0.0
 10
7.699222
 20
14.856096
 30
0.0
 10
7.699222
 20
14.052248
 30
0.0
  0
SPLINE
  5
183
100
AcDbEntity
  8
0
 62
7
100
AcDbSpline
 70
8
 71
3
 72
8
 73
4
 74
0
 40
0
 40
0
 40
0
 40
0
 40
1
 40
1
 40
1
 40
1
 10
7.699222
 20
14.052248
 30
0.0
 10
7.699222
 20
13.248400
 30
0.0
 10
8.128070
 20
12.505615
 30
0.0
 10
8.824222
 20
12.103691
 30
0.0
  0
SPLINE
  5
184
100
AcDbEntity
  8
0
 62
7
100
AcDbSpline
 70
8
 71
3
 72
8
 73
4
 74
0
 40
0
 40
0
 40
0
 40
0
 40
1
 40
1
 40
1
 40
1
 10
8.824222
 20
12.103691
 30
0.0
 10
9.520374
 20
11.701767
 30
0.0
 10
10.378070
 20
11.701767
 30
0.0
 10
11.074222
 20
12.103691
 30
0.0
  0
SPLINE
  5
185
100
AcDbEntity
  8
0
 62
7
100
AcDbSpline
 70
8
 71
3
 72
8
 73
4
 74
0
 40
0
 40
0
 40
0
 40
0
 40
1
 40
1
 40
1
 40
1
 10
11.074222
 20
12.103691
 30
0.0
 10
11.770374
 20
12.505615
 30
0.0
 10
12.199222
 20
13.248400
 30
0.0
 10
12.199222
 20
14.052248
 30
0.0
  0
LWPOLYLINE
  5
186
100
AcDbEntity
  8
0
 62
7
100
AcDbPolyline
 90
2
 70
1
 10
144.683293
 20
14.052248
 30
0.0
 10
144.683293
 20
14.052248
 30
0.0
  0
LWPOLYLINE
  5
187
100
AcDbEntity
  8
0
 62
7
100
AcDbPolyline
 90
2
 70
1
 10
12.199222
 20
14.052248
 30
0.0
 10
12.199222
 20
14.052248
 30
0.0
  0
LWPOLYLINE
  5
188
100
AcDbEntity
  8
0
 62
7
100
AcDbPolyline
 90
2
 70
0
 10
108.878993
 20
116.825395
 30
0.0
 10
45.378993
 20
116.825395
 30
0.0
  0
LWPOLYLINE
  5
189
100
AcDbEntity
  8
0
 62
7
100
AcDbPolyline
 90
2
 70
0
 10
44.378993
 20
115.825394
 30
0.0
 10
44.378993
 20
103.325402
 30
0.0
  0
LWPOLYLINE
  5
18a
100
AcDbEntity
  8
0
 62
7
100
AcDbPolyline
 90
2
 70
0
 10
45.378993
 20
102.325404
 30
0.0
 10
108.878993
 20
102.325404
 30
0.0
  0
LWPOLYLINE
  5
18b
100
AcDbEntity
  8
0
 62
7
100
AcDbPolyline
 90
2
 70
0
 10
109.878994
 20
103.325402
 30
0.0
 10
109.878994
 20
115.825394
 30
0.0
  0
LWPOLYLINE
  5
18c
100
AcDbEntity
  8
0
 62
7
100
AcDbPolyline
 90
3
 70
0
 10
16.191257
 20
148.109466
 30
0.0
 10
18.691257
 20
148.109466
 30
0.0
 10
18.691257
 20
148.709465
 30
0.0
  0
LWPOLYLINE
  5
18d
100
AcDbEntity
  8
0
 62
7
100
AcDbPolyline
 90
2
 70
0
 10
7.949222
 20
148.709465
 30
0.0
 10
18.691257
 20
148.709465
 30
0.0
  0
LWPOLYLINE
  5
18e
100
AcDbEntity
  8
0
 62
7
100
AcDbPolyline
 90
2
 70
0
 10
2.949222
 20
158.709467
 30
0.0
 10
2.949222
 20
153.709466
 30
0.0
  0
LWPOLYLINE
  5
18f
100
AcDbEntity
  8
0
 62
7
100
AcDbPolyline
 90
2
 70
0
 10
18.691257
 20
163.709466
 30
0.0
 10
7.949222
 20
163.709466
 30
0.0
  0
LWPOLYLINE
  5
190
100
AcDbEntity
  8
0
 62
7
100
AcDbPolyline
 90
8
 70
0
 10
18.691257
 20
163.709466
 30
0.0
 10
18.691257
 20
164.309467
 30
0.0
 10
16.191257
 20
164.309467
 30
0.0
 10
16.191257
 20
185.943536
 30
0.0
 10
25.491257
 20
185.943536
 30
0.0
 10
25.491257
 20
172.059465
 30
0.0
 10
26.091257
 20
172.059465
 30
0.0
 10
26.091257
 20
173.359465
 30
0.0
  0
LWPOLYLINE
  5
191
100
AcDbEntity
  8
0
 62
7
100
AcDbPolyline
 90
2
 70
0
 10
126.291257
 20
173.359465
 30
0.0
 10
26.091257
 20
173.359465
 30
0.0
  0
LWPOLYLINE
  5
192
100
AcDbEntity
  8
0
 62
7
100
AcDbPolyline
 90
8
 70
0
 10
126.291257
 20
173.359465
 30
0.0
 10
126.291257
 20
172.059465
 30
0.0
 10
126.891256
 20
172.059465
 30
0.0
 10
126.891256
 20
185.943536
 30
0.0
 10
136.191257
 20
185.943536
 30
0.0
 10
136.191257
 20
164.309467
 30
0.0
 10
133.691257
 20
164.309467
 30
0.0
 10
133.691257
 20
163.709466
 30
0.0
  0
LWPOLYLINE
  5
193
100
AcDbEntity
  8
0
 62
7
100
AcDbPolyline
 90
2
 70
0
 10
144.433292
 20
163.709466
 30
0.0
 10
133.691257
 20
163.709466
 30
0.0
  0
LWPOLYLINE
  5
194
100
AcDbEntity
  8
0
 62
7
100
AcDbPolyline
 90
2
 70
0
 10
149.433293
 20
153.709466
 30
0.0
 10
149.433293
 20
158.709467
 30
0.0
  0
LWPOLYLINE
  5
195
100
AcDbEntity
  8
0
 62
7
100
AcDbPolyline
 90
2
 70
0
 10
133.691257
 20
148.709465
 30
0.0
 10
144.433292
 20
148.709465
 30
0.0
  0
LWPOLYLINE
  5
196
100
AcDbEntity
  8
0
 62
7
100
AcDbPolyline
 90
6
 70
0
 10
133.691257
 20
148.709465
 30
0.0
 10
133.691257
 20
148.109466
 30
0.0
 10
136.191257
 20
148.109466
 30
0.0
 10
136.191257
 20
22.152252
 30
0.0
 10
133.691257
 20
22.152252
 30
0.0
 10
133.691257
 20
21.552247
 30
0.0
  0
LWPOLYLINE
  5
197
100
AcDbEntity
  8
0
 62
7
100
AcDbPolyline
 90
2
 70
0
 10
144.433292
 20
21.552247
 30
0.0
 10
133.691257
 20
21.552247
 30
0.0
  0
LWPOLYLINE
  5
198
100
AcDbEntity
  8
0
 62
7
100
AcDbPolyline
 90
2
 70
0
 10
149.433293
 20
11.552267
 30
0.0
 10
149.433293
 20
16.552257
 30
0.0
  0
LWPOLYLINE
  5
199
100
AcDbEntity
  8
0
 62
7
100
AcDbPolyline
 90
2
 70
0
 10
133.691257
 20
6.552249
 30
0.0
 10
144.433292
 20
6.552249
 30
0.0
  0
LWPOLYLINE
  5
19a
100
AcDbEntity
  8
0
 62
7
100
AcDbPolyline
 90
3
 70
0
 10
133.691257
 20
6.552249
 30
0.0
 10
133.691257
 20
5.952244
 30
0.0
 10
136.191257
 20
5.952244
 30
0.0
  0
LWPOLYLINE
  5
19b
100
AcDbEntity
  8
0
 62
7
100
AcDbPolyline
 90
2
 70
0
 10
136.191257
 20
5.149209
 30
0.0
 10
136.191257
 20
5.952244
 30
0.0
  0
LWPOLYLINE
  5
19c
100
AcDbEntity
  8
0
 62
7
100
AcDbPolyline
 90
2
 70
0
 10
18.391257
 20
2.949231
 30
0.0
 10
133.991256
 20
2.949231
 30
0.0
  0
LWPOLYLINE
  5
19d
100
AcDbEntity
  8
0
 62
7
100
AcDbPolyline
 90
2
 70
0
 10
16.191257
 20
5.952244
 30
0.0
 10
16.191257
 20
5.149209
 30
0.0
  0
LWPOLYLINE
  5
19e
100
AcDbEntity
  8
0
 62
7
100
AcDbPolyline
 90
3
 70
0
 10
16.191257
 20
5.952244
 30
0.0
 10
18.691257
 20
5.952244
 30
0.0
 10
18.691257
 20
6.552249
 30
0.0
  0
LWPOLYLINE
  5
19f
100
AcDbEntity
  8
0
 62
7
100
AcDbPolyline
 90
2
 70
0
 10
7.949222
 20
6.552249
 30
0.0
 10
18.691257
 20
6.552249
 30
0.0
  0
LWPOLYLINE
  5
1a0
100
AcDbEntity
  8
0
 62
7
100
AcDbPolyline
 90
2
 70
0
 10
2.949222
 20
16.552257
 30
0.0
 10
2.949222
 20
11.552267
 30
0.0
  0
LWPOLYLINE
  5
1a1
100
AcDbEntity
  8
0
 62
7
100
AcDbPolyline
 90
2
 70
0
 10
18.691257
 20
21.552247
 30
0.0
 10
7.949222
 20
21.552247
 30
0.0
  0
LWPOLYLINE
  5
1a2
100
AcDbEntity
  8
0
 62
7
100
AcDbPolyline
 90
4
 70
0
 10
18.691257
 20
21.552247
 30
0.0
 10
18.691257
 20
22.152252
 30
0.0
 10
16.191257
 20
22.152252
 30
0.0
 10
16.191257
 20
148.109466
 30
0.0
  0
LWPOLYLINE
  5
1a3
100
AcDbEntity
  8
0
 62
7
100
AcDbPolyline
 90
5
 70
0
 10
108.524333
 20
73.635991
 30
0.0
 10
102.224334
 20
73.635991
 30
0.0
 10
102.224334
 20
67.336001
 30
0.0
 10
108.524333
 20
67.336001
 30
0.0
 10
108.524333
 20
73.635991
 30
0.0
  0
LWPOLYLINE
  5
1a4
100
AcDbEntity
  8
0
 62
7
100
AcDbPolyline
 90
5
 70
0
 10
63.905409
 20
73.759576
 30
0.0
 10
57.605407
 20
73.759576
 30
0.0
 10
57.605407
 20
67.459558
 30
0.0
 10
63.905409
 20
67.459558
 30
0.0
 10
63.905409
 20
73.759576
 30
0.0
  0
LWPOLYLINE
  5
1a5
100
AcDbEntity
  8
0
 62
7
100
AcDbPolyline
 90
5
 70
0
 10
79.150692
 20
80.111778
 30
0.0
 10
72.850690
 20
80.111778
 30
0.0
 10
72.850690
 20
73.811759
 30
0.0
 10
79.150692
 20
73.811759
 30
0.0
 10
79.150692
 20
80.111778
 30
0.0
  0
LWPOLYLINE
  5
1a6
100
AcDbEntity
  8
0
 62
7
100
AcDbPolyline
 90
5
 70
0
 10
79.150692
 20
68.550770
 30
0.0
 10
72.850690
 20
68.550770
 30
0.0
 10
72.850690
 20
62.250752
 30
0.0
 10
79.150692
 20
62.250752
 30
0.0
 10
79.150692
 20
68.550770
 30
0.0
  0
LWPOLYLINE
  5
1a7
100
AcDbEntity
  8
0
 62
7
100
AcDbPolyline
 90
5
 70
0
 10
94.395975
 20
73.759576
 30
0.0
 10
88.095973
 20
73.759576
 30
0.0
 10
88.095973
 20
67.459558
 30
0.0
 10
94.395975
 20
67.459558
 30
0.0
 10
94.395975
 20
73.759576
 30
0.0
  0
LWPOLYLINE
  5
1a8
100
AcDbEntity
  8
0
 62
7
100
AcDbPolyline
 90
5
 70
0
 10
49.930566
 20
73.759576
 30
0.0
 10
43.630566
 20
73.759576
 30
0.0
 10
43.630566
 20
67.459558
 30
0.0
 10
49.930566
 20
67.459558
 30
0.0
 10
49.930566
 20
73.759576
 30
0.0
  0
SPLINE
  5
1a9
100
AcDbEntity
  8
0
 62
7
100
AcDbSpline
 70
8
 71
3
 72
8
 73
4
 74
0
 40
0
 40
0
 40
0
 40
0
 40
1
 40
1
 40
1
 40
1
 10
45.378993
 20
116.825395
 30
0.0
 10
45.113776
 20
116.825395
 30
0.0
 10
44.859422
 20
116.720038
 30
0.0
 10
44.671886
 20
116.532501
 30
0.0
  0
SPLINE
  5
1aa
100
AcDbEntity
  8
0
 62
7
100
AcDbSpline
 70
8
 71
3
 72
8
 73
4
 74
0
 40
0
 40
0
 40
0
 40
0
 40
1
 40
1
 40
1
 40
1
 10
44.671886
 20
116.532501
 30
0.0
 10
44.484350
 20
116.344965
 30
0.0
 10
44.378993
 20
116.090611
 30
0.0
 10
44.378993
 20
115.825394
 30
0.0
  0
SPLINE
  5
1ab
100
AcDbEntity
  8
0
 62
7
100
AcDbSpline
 70
8
 71
3
 72
8
 73
4
 74
0
 40
0
 40
0
 40
0
 40
0
 40
1
 40
1
 40
1
 40
1
 10
44.378993
 20
103.325402
 30
0.0
 10
44.378994
 20
102.773118
 30
0.0
 10
44.826709
 20
102.325404
 30
0.0
 10
45.378993
 20
102.325404
 30
0.0
  0
SPLINE
  5
1ac
100
AcDbEntity
  8
0
 62
7
100
AcDbSpline
 70
8
 71
3
 72
8
 73
4
 74
0
 40
0
 40
0
 40
0
 40
0
 40
1
 40
1
 40
1
 40
1
 10
108.878993
 20
102.325404
 30
0.0
 10
109.431277
 20
102.325404
 30
0.0
 10
109.878993
 20
102.773118
 30
0.0
 10
109.878994
 20
103.325402
 30
0.0
  0
SPLINE
  5
1ad
100
AcDbEntity
  8
0
 62
7
100
AcDbSpline
 70
8
 71
3
 72
8
 73
4
 74
0
 40
0
 40
0
 40
0
 40
0
 40
1
 40
1
 40
1
 40
1
 10
109.878994
 20
115.825394
 30
0.0
 10
109.878994
 20
116.090611
 30
0.0
 10
109.773637
 20
116.344965
 30
0.0
 10
109.586100
 20
116.532502
 30
0.0
  0
SPLINE
  5
1ae
100
AcDbEntity
  8
0
 62
7
100
AcDbSpline
 70
8
 71
3
 72
8
 73
4
 74
0
 40
0
 40
0
 40
0
 40
0
 40
1
 40
1
 40
1
 40
1
 10
109.586100
 20
116.532502
 30
0.0
 10
109.398564
 20
116.720038
 30
0.0
 10
109.144210
 20
116.825395
 30
0.0
 10
108.878993
 20
116.825395
 30
0.0
  0
SPLINE
  5
1af
100
AcDbEntity
  8
0
 62
7
100
AcDbSpline
 70
8
 71
3
 72
8
 73
4
 74
0
 40
0
 40
0
 40
0
 40
0
 40
1
 40
1
 40
1
 40
1
 10
2.949222
 20
153.709466
 30
0.0
 10
2.949222
 20
152.383383
 30
0.0
 10
3.476006
 20
151.111613
 30
0.0
 10
4.413688
 20
150.173931
 30
0.0
  0
SPLINE
  5
1b0
100
AcDbEntity
  8
0
 62
7
100
AcDbSpline
 70
8
 71
3
 72
8
 73
4
 74
0
 40
0
 40
0
 40
0
 40
0
 40
1
 40
1
 40
1
 40
1
 10
4.413688
 20
150.173931
 30
0.0
 10
5.351370
 20
149.236249
 30
0.0
 10
6.623139
 20
148.709465
 30
0.0
 10
7.949222
 20
148.709465
 30
0.0
  0
SPLINE
  5
1b1
100
AcDbEntity
  8
0
 62
7
100
AcDbSpline
 70
8
 71
3
 72
8
 73
4
 74
0
 40
0
 40
0
 40
0
 40
0
 40
1
 40
1
 40
1
 40
1
 10
7.949222
 20
163.709466
 30
0.0
 10
5.187799
 20
163.709466
 30
0.0
 10
2.949223
 20
161.470890
 30
0.0
 10
2.949222
 20
158.709467
 30
0.0
  0
SPLINE
  5
1b2
100
AcDbEntity
  8
0
 62
7
100
AcDbSpline
 70
8
 71
3
 72
8
 73
4
 74
0
 40
0
 40
0
 40
0
 40
0
 40
1
 40
1
 40
1
 40
1
 10
149.433293
 20
158.709467
 30
0.0
 10
149.433293
 20
160.035550
 30
0.0
 10
148.906508
 20
161.307319
 30
0.0
 10
147.968826
 20
162.245001
 30
0.0
  0
SPLINE
  5
1b3
100
AcDbEntity
  8
0
 62
7
100
AcDbSpline
 70
8
 71
3
 72
8
 73
4
 74
0
 40
0
 40
0
 40
0
 40
0
 40
1
 40
1
 40
1
 40
1
 10
147.968826
 20
162.245001
 30
0.0
 10
147.031144
 20
163.182682
 30
0.0
 10
145.759374
 20
163.709466
 30
0.0
 10
144.433292
 20
163.709466
 30
0.0
  0
SPLINE
  5
1b4
100
AcDbEntity
  8
0
 62
7
100
AcDbSpline
 70
8
 71
3
 72
8
 73
4
 74
0
 40
0
 40
0
 40
0
 40
0
 40
1
 40
1
 40
1
 40
1
 10
144.433292
 20
148.709465
 30
0.0
 10
145.759375
 20
148.709464
 30
0.0
 10
147.031145
 20
149.236249
 30
0.0
 10
147.968827
 20
150.173931
 30
0.0
  0
SPLINE
  5
1b5
100
AcDbEntity
  8
0
 62
7
100
AcDbSpline
 70
8
 71
3
 72
8
 73
4
 74
0
 40
0
 40
0
 40
0
 40
0
 40
1
 40
1
 40
1
 40
1
 10
147.968827
 20
150.173931
 30
0.0
 10
148.906509
 20
151.111613
 30
0.0
 10
149.433294
 20
152.383383
 30
0.0
 10
149.433293
 20
153.709466
 30
0.0
  0
SPLINE
  5
1b6
100
AcDbEntity
  8
0
 62
7
100
AcDbSpline
 70
8
 71
3
 72
8
 73
4
 74
0
 40
0
 40
0
 40
0
 40
0
 40
1
 40
1
 40
1
 40
1
 10
149.433293
 20
16.552257
 30
0.0
 10
149.433288
 20
19.313678
 30
0.0
 10
147.194712
 20
21.552248
 30
0.0
 10
144.433292
 20
21.552247
 30
0.0
  0
SPLINE
  5
1b7
100
AcDbEntity
  8
0
 62
7
100
AcDbSpline
 70
8
 71
3
 72
8
 73
4
 74
0
 40
0
 40
0
 40
0
 40
0
 40
1
 40
1
 40
1
 40
1
 10
144.433292
 20
6.552249
 30
0.0
 10
145.759378
 20
6.552249
 30
0.0
 10
147.031150
 20
7.079035
 30
0.0
 10
147.968833
 20
8.016721
 30
0.0
  0
SPLINE
  5
1b8
100
AcDbEntity
  8
0
 62
7
100
AcDbSpline
 70
8
 71
3
 72
8
 73
4
 74
0
 40
0
 40
0
 40
0
 40
0
 40
1
 40
1
 40
1
 40
1
 10
147.968833
 20
8.016721
 30
0.0
 10
148.906516
 20
8.954407
 30
0.0
 10
149.433298
 20
10.226181
 30
0.0
 10
149.433293
 20
11.552267
 30
0.0
  0
SPLINE
  5
1b9
100
AcDbEntity
  8
0
 62
7
100
AcDbSpline
 70
8
 71
3
 72
8
 73
4
 74
0
 40
0
 40
0
 40
0
 40
0
 40
1
 40
1
 40
1
 40
1
 10
133.991256
 20
2.949231
 30
0.0
 10
135.206275
 20
2.949230
 30
0.0
 10
136.191245
 20
3.934191
 30
0.0
 10
136.191257
 20
5.149209
 30
0.0
  0
SPLINE
  5
1ba
100
AcDbEntity
  8
0
 62
7
100
AcDbSpline
 70
8
 71
3
 72
8
 73
4
 74
0
 40
0
 40
0
 40
0
 40
0
 40
1
 40
1
 40
1
 40
1
 10
16.191257
 20
5.149209
 30
0.0
 10
16.191269
 20
3.934191
 30
0.0
 10
17.176239
 20
2.949231
 30
0.0
 10
18.391257
 20
2.949231
 30
0.0
  0
SPLINE
  5
1bb
100
AcDbEntity
  8
0
 62
7
100
AcDbSpline
 70
8
 71
3
 72
8
 73
4
 74
0
 40
0
 40
0
 40
0
 40
0
 40
1
 40
1
 40
1
 40
1
 10
2.949222
 20
11.552267
 30
0.0
 10
2.949217
 20
10.226182
 30
0.0
 10
3.475999
 20
8.954407
 30
0.0
 10
4.413682
 20
8.016721
 30
0.0
  0
SPLINE
  5
1bc
100
AcDbEntity
  8
0
 62
7
100
AcDbSpline
 70
8
 71
3
 72
8
 73
4
 74
0
 40
0
 40
0
 40
0
 40
0
 40
1
 40
1
 40
1
 40
1
 10
4.413682
 20
8.016721
 30
0.0
 10
5.351364
 20
7.079036
 30
0.0
 10
6.623137
 20
6.552249
 30
0.0
 10
7.949222
 20
6.552249
 30
0.0
  0
SPLINE
  5
1bd
100
AcDbEntity
  8
0
 62
7
100
AcDbSpline
 70
8
 71
3
 72
8
 73
4
 74
0
 40
0
 40
0
 40
0
 40
0
 40
1
 40
1
 40
1
 40
1
 10
7.949222
 20
21.552247
 30
0.0
 10
5.187802
 20
21.552247
 30
0.0
 10
2.949228
 20
19.313677
 30
0.0
 10
2.949222
 20
16.552257
 30
0.0
  0
LWPOLYLINE
  5
1be
100
AcDbEntity
  8
0
 62
7
100
AcDbPolyline
 90
5
 70
0
 10
112.802579
 20
63.691327
 30
0.0
 10
122.602579
 20
63.691327
 30
0.0
 10
122.602579
 20
77.691327
 30
0.0
 10
112.802579
 20
77.691327
 30
0.0
 10
112.802579
 20
63.691327
 30
0.0
  0
SPLINE
  5
1bf
100
AcDbEntity
  8
0
 62
7
100
AcDbSpline
 70
8
 71
3
 72
8
 73
4
 74
0
 40
0
 40
0
 40
0
 40
0
 40
1
 40
1
 40
1
 40
1
 10
73.472104
 20
75.270086
 30
0.0
 10
73.446591
 20
75.232805
 30
0.0
 10
73.443848
 20
75.184488
 30
0.0
 10
73.464512
 20
75.144667
 30
0.0
  0
SPLINE
  5
1c0
100
AcDbEntity
  8
0
 62
7
100
AcDbSpline
 70
8
 71
3
 72
8
 73
4
 74
0
 40
0
 40
0
 40
0
 40
0
 40
1
 40
1
 40
1
 40
1
 10
73.464512
 20
75.144667
 30
0.0
 10
73.485538
 20
75.104676
 30
0.0
 10
73.526850
 20
75.079699
 30
0.0
 10
73.571988
 20
75.079699
 30
0.0
  0
LWPOLYLINE
  5
1c1
100
AcDbEntity
  8
0
 62
7
100
AcDbPolyline
 90
2
 70
1
 10
75.900539
 20
78.791345
 30
0.0
 10
73.472104
 20
75.270086
 30
0.0
  0
SPLINE
  5
1c2
100
AcDbEntity
  8
0
 62
7
100
AcDbSpline
 70
8
 71
3
 72
8
 73
4
 74
0
 40
0
 40
0
 40
0
 40
0
 40
1
 40
1
 40
1
 40
1
 10
78.428889
 20
75.079699
 30
0.0
 10
78.474064
 20
75.079699
 30
0.0
 10
78.515483
 20
75.104817
 30
0.0
 10
78.536469
 20
75.144667
 30
0.0
  0
SPLINE
  5
1c3
100
AcDbEntity
  8
0
 62
7
100
AcDbSpline
 70
8
 71
3
 72
8
 73
4
 74
0
 40
0
 40
0
 40
0
 40
0
 40
1
 40
1
 40
1
 40
1
 10
78.536469
 20
75.144667
 30
0.0
 10
78.545782
 20
75.162447
 30
0.0
 10
78.550608
 20
75.181807
 30
0.0
 10
78.550608
 20
75.201083
 30
0.0
  0
SPLINE
  5
1c4
100
AcDbEntity
  8
0
 62
7
100
AcDbSpline
 70
8
 71
3
 72
8
 73
4
 74
0
 40
0
 40
0
 40
0
 40
0
 40
1
 40
1
 40
1
 40
1
 10
78.550608
 20
75.201083
 30
0.0
 10
78.550608
 20
75.225354
 30
0.0
 10
78.543383
 20
75.249315
 30
0.0
 10
78.529244
 20
75.270086
 30
0.0
  0
LWPOLYLINE
  5
1c5
100
AcDbEntity
  8
0
 62
7
100
AcDbPolyline
 90
2
 70
1
 10
73.571988
 20
75.079699
 30
0.0
 10
78.428889
 20
75.079699
 30
0.0
  0
SPLINE
  5
1c6
100
AcDbEntity
  8
0
 62
7
100
AcDbSpline
 70
8
 71
3
 72
8
 73
4
 74
0
 40
0
 40
0
 40
0
 40
0
 40
1
 40
1
 40
1
 40
1
 10
76.100775
 20
78.791345
 30
0.0
 10
76.078028
 20
78.824421
 30
0.0
 10
76.040783
 20
78.843782
 30
0.0
 10
76.000846
 20
78.843782
 30
0.0
  0
SPLINE
  5
1c7
100
AcDbEntity
  8
0
 62
7
100
AcDbSpline
 70
8
 71
3
 72
8
 73
4
 74
0
 40
0
 40
0
 40
0
 40
0
 40
1
 40
1
 40
1
 40
1
 10
76.000846
 20
78.843782
 30
0.0
 10
75.960875
 20
78.843782
 30
0.0
 10
75.923591
 20
78.824026
 30
0.0
 10
75.900883
 20
78.791345
 30
0.0
  0
LWPOLYLINE
  5
1c8
100
AcDbEntity
  8
0
 62
7
100
AcDbPolyline
 90
2
 70
1
 10
78.529244
 20
75.270086
 30
0.0
 10
76.100775
 20
78.791345
 30
0.0
  0
LWPOLYLINE
  5
1c9
100
AcDbEntity
  8
0
 62
7
100
AcDbPolyline
 90
2
 70
1
 10
75.900883
 20
78.791345
 30
0.0
 10
75.900539
 20
78.791345
 30
0.0
  0
LWPOLYLINE
  5
1ca
100
AcDbEntity
  8
0
 62
1
100
AcDbPolyline
 90
5
 70
1
 10
72.760052
 20
80.202117
 30
0.0
 10
79.241327
 20
80.202117
 30
0.0
 10
79.241327
 20
73.721317
 30
0.0
 10
72.760052
 20
73.721317
 30
0.0
 10
72.760052
 20
80.202117
 30
0.0
  0
ENDSEC
  0
SECTION
  2
OBJECTS
  0
DICTIONARY
  5
C
330
0
100
AcDbDictionary
  3
ACAD_GROUP
350
D
  3
ACAD_MLINESTYLE
350
17
  0
DICTIONARY
  5
D
330
C
100
AcDbDictionary
  0
DICTIONARY
  5
1A
330
C
100
AcDbDictionary
  0
DICTIONARY
  5
17
330
C
100
AcDbDictionary
  3
STANDARD
350
18
  0
DICTIONARY
  5
19
330
C
100
AcDbDictionary
  0
ENDSEC
  0
EOF
