  0
SECTION
  2
HEADER
  9
$ACADVER
  1
AC1014
  9
$HANDSEED
  5
FFFF
  9
$MEASUREMENT
 70
     1
  0
ENDSEC
  0
SECTION
  2
TABLES
  0
TABLE
  2
VPORT
  5
8
330
0
100
AcDbSymbolTable
 70
     4
  0
VPORT
  5
2E
330
8
100
AcDbSymbolTableRecord
100
AcDbViewportTableRecord
  2
*ACTIVE
 70
     0
 10
0.0
 20
0.0
 11
1.0
 21
1.0
 12
210.0
 22
148.5
 13
0.0
 23
0.0
 14
10.0
 24
10.0
 15
10.0
 25
10.0
 16
0.0
 26
0.0
 36
1.0
 17
0.0
 27
0.0
 37
0.0
 40
341.0
 41
1.24
 42
50.0
 43
0.0
 44
0.0
 50
0.0
 51
0.0
 71
     0
 72
   100
 73
     1
 74
     3
 75
     0
 76
     0
 77
     0
 78
     0
  0
ENDTAB
  0
TABLE
  2
LTYPE
  5
5
330
0
100
AcDbSymbolTable
 70
     1
  0
LTYPE
  5
14
330
5
100
AcDbSymbolTableRecord
100
AcDbLinetypeTableRecord
  2
BYBLOCK
 70
     0
  3

 72
    65
 73
     0
 40
0.0
  0
LTYPE
  5
15
330
5
100
AcDbSymbolTableRecord
100
AcDbLinetypeTableRecord
  2
BYLAYER
 70
     0
  3

 72
    65
 73
     0
 40
0.0
  0
LTYPE
  5
16
330
5
100
AcDbSymbolTableRecord
100
AcDbLinetypeTableRecord
  2
CONTINUOUS
 70
     0
  3
Solid line
 72
    65
 73
     0
 40
0.0
  0
ENDTAB
  0
TABLE
  2
LAYER
  5
2
100
AcDbSymbolTable
 70
1
  0
LAYER
  5
50
100
AcDbSymbolTableRecord
100
AcDbLayerTableRecord
  2
0
 70
0
  6
CONTINUOUS
  0
ENDTAB
  0
TABLE
  2
STYLE
  5
3
330
0
100
AcDbSymbolTable
 70
     1
  0
STYLE
  5
11
330
3
100
AcDbSymbolTableRecord
100
AcDbTextStyleTableRecord
  2
STANDARD
 70
     0
 40
0.0
 41
1.0
 50
0.0
 71
     0
 42
2.5
  3
txt
  4

  0
ENDTAB
  0
TABLE
  2
VIEW
  5
6
330
0
100
AcDbSymbolTable
 70
     0
  0
ENDTAB
  0
TABLE
  2
UCS
  5
7
330
0
100
AcDbSymbolTable
 70
     0
  0
ENDTAB
  0
TABLE
  2
APPID
  5
9
330
0
100
AcDbSymbolTable
 70
     2
  0
APPID
  5
12
330
9
100
AcDbSymbolTableRecord
100
AcDbRegAppTableRecord
  2
ACAD
 70
     0
  0
ENDTAB
  0
TABLE
  2
DIMSTYLE
  5
A
330
0
100
AcDbSymbolTable
 70
     1
  0
DIMSTYLE
105
27
330
A
100
AcDbSymbolTableRecord
100
AcDbDimStyleTableRecord
  2
ISO-25
 70
     0
  3

  4

  5

  6

  7

 40
1.0
 41
2.5
 42
0.625
 43
3.75
 44
1.25
 45
0.0
 46
0.0
 47
0.0
 48
0.0
140
2.5
141
2.5
142
0.0
143
0.03937007874016
144
1.0
145
0.0
146
1.0
147
0.625
 71
     0
 72
     0
 73
     0
 74
     0
 75
     0
 76
     0
 77
     1
 78
     8
170
     0
171
     3
172
     1
173
     0
174
     0
175
     0
176
     0
177
     0
178
     0
270
     2
271
     2
272
     2
273
     2
274
     3
340
11
275
     0
280
     0
281
     0
282
     0
283
     0
284
     8
285
     0
286
     0
287
     3
288
     0
  0
ENDTAB
  0
TABLE
  2
BLOCK_RECORD
  5
1
330
0
100
AcDbSymbolTable
 70
     1
  0
BLOCK_RECORD
  5
1F
330
1
100
AcDbSymbolTableRecord
100
AcDbBlockTableRecord
  2
*MODEL_SPACE
  0
BLOCK_RECORD
  5
1B
330
1
100
AcDbSymbolTableRecord
100
AcDbBlockTableRecord
  2
*PAPER_SPACE
  0
ENDTAB
  0
ENDSEC
  0
SECTION
  2
BLOCKS
  0
BLOCK
  5
20
330
1F
100
AcDbEntity
  8
0
100
AcDbBlockBegin
  2
*MODEL_SPACE
 70
     0
 10
0.0
 20
0.0
 30
0.0
  3
*MODEL_SPACE
  1

  0
ENDBLK
  5
21
330
1F
100
AcDbEntity
  8
0
100
AcDbBlockEnd
  0
BLOCK
  5
1C
330
1B
100
AcDbEntity
 67
     1
  8
0
100
AcDbBlockBegin
  2
*PAPER_SPACE
  1

  0
ENDBLK
  5
1D
330
1B
100
AcDbEntity
 67
     1
  8
0
100
AcDbBlockEnd
  0
ENDSEC
  0
SECTION
  2
ENTITIES
  0
LWPOLYLINE
  5
100
100
AcDbEntity
  8
0
 62
7
100
AcDbPolyline
 90
5
 70
1
 10
19.369039
 20
96.061048
 30
0.0
 10
137.369038
 20
96.061048
 30
0.0
 10
137.369038
 20
55.061048
 30
0.0
 10
19.369039
 20
55.061048
 30
0.0
 10
19.369039
 20
96.061048
 30
0.0
  0
LWPOLYLINE
  5
101
100
AcDbEntity
  8
0
 62
7
100
AcDbPolyline
 90
2
 70
0
 10
138.369035
 20
215.424100
 30
0.0
 10
18.369035
 20
215.424100
 30
0.0
  0
LWPOLYLINE
  5
102
100
AcDbEntity
  8
0
 62
7
100
AcDbPolyline
 90
2
 70
0
 10
18.369035
 20
44.397984
 30
0.0
 10
138.369035
 20
44.397984
 30
0.0
  0
LWPOLYLINE
  5
103
100
AcDbEntity
  8
0
 62
7
100
AcDbPolyline
 90
2
 70
0
 10
138.369035
 20
97.182065
 30
0.0
 10
18.369035
 20
97.182065
 30
0.0
  0
LWPOLYLINE
  5
104
100
AcDbEntity
  8
0
 62
7
100
AcDbPolyline
 90
2
 70
0
 10
18.369035
 20
53.940030
 30
0.0
 10
138.369035
 20
53.940030
 30
0.0
  0
LWPOLYLINE
  5
105
100
AcDbEntity
  8
0
 62
7
100
AcDbPolyline
 90
2
 70
0
 10
138.369035
 20
289.337155
 30
0.0
 10
128.969034
 20
289.337155
 30
0.0
  0
LWPOLYLINE
  5
106
100
AcDbEntity
  8
0
 62
7
100
AcDbPolyline
 90
2
 70
0
 10
27.769035
 20
289.137152
 30
0.0
 10
18.369035
 20
289.137152
 30
0.0
  0
LWPOLYLINE
  5
107
100
AcDbEntity
  8
0
 62
7
100
AcDbPolyline
 90
2
 70
0
 10
19.248018
 20
83.061048
 30
0.0
 10
19.248018
 20
68.061047
 30
0.0
  0
LWPOLYLINE
  5
108
100
AcDbEntity
  8
0
 62
7
100
AcDbPolyline
 90
2
 70
0
 10
19.269478
 20
32.801981
 30
0.0
 10
19.269478
 20
17.801983
 30
0.0
  0
LWPOLYLINE
  5
109
100
AcDbEntity
  8
0
 62
7
100
AcDbPolyline
 90
2
 70
0
 10
19.248018
 20
280.495118
 30
0.0
 10
19.248018
 20
224.545119
 30
0.0
  0
LWPOLYLINE
  5
10a
100
AcDbEntity
  8
0
 62
7
100
AcDbPolyline
 90
2
 70
0
 10
137.490054
 20
68.061047
 30
0.0
 10
137.490054
 20
83.061048
 30
0.0
  0
LWPOLYLINE
  5
10b
100
AcDbEntity
  8
0
 62
7
100
AcDbPolyline
 90
2
 70
0
 10
137.490054
 20
17.801983
 30
0.0
 10
137.490054
 20
32.801981
 30
0.0
  0
SPLINE
  5
10c
100
AcDbEntity
  8
0
 62
7
100
AcDbSpline
 70
8
 71
3
 72
8
 73
4
 74
0
 40
0
 40
0
 40
0
 40
0
 40
1
 40
1
 40
1
 40
1
 10
146.711069
 20
25.301982
 30
0.0
 10
146.711069
 20
26.052239
 30
0.0
 10
146.310812
 20
26.745506
 30
0.0
 10
145.661069
 20
27.120635
 30
0.0
  0
SPLINE
  5
10d
100
AcDbEntity
  8
0
 62
7
100
AcDbSpline
 70
8
 71
3
 72
8
 73
4
 74
0
 40
0
 40
0
 40
0
 40
0
 40
1
 40
1
 40
1
 40
1
 10
145.661069
 20
27.120635
 30
0.0
 10
145.011327
 20
27.495764
 30
0.0
 10
144.210812
 20
27.495764
 30
0.0
 10
143.561069
 20
27.120635
 30
0.0
  0
SPLINE
  5
10e
100
AcDbEntity
  8
0
 62
7
100
AcDbSpline
 70
8
 71
3
 72
8
 73
4
 74
0
 40
0
 40
0
 40
0
 40
0
 40
1
 40
1
 40
1
 40
1
 10
143.561069
 20
27.120635
 30
0.0
 10
142.911327
 20
26.745506
 30
0.0
 10
142.511069
 20
26.052239
 30
0.0
 10
142.511069
 20
25.301982
 30
0.0
  0
SPLINE
  5
10f
100
AcDbEntity
  8
0
 62
7
100
AcDbSpline
 70
8
 71
3
 72
8
 73
4
 74
0
 40
0
 40
0
 40
0
 40
0
 40
1
 40
1
 40
1
 40
1
 10
142.511069
 20
25.301982
 30
0.0
 10
142.511069
 20
24.551724
 30
0.0
 10
142.911327
 20
23.858457
 30
0.0
 10
143.561069
 20
23.483328
 30
0.0
  0
SPLINE
  5
110
100
AcDbEntity
  8
0
 62
7
100
AcDbSpline
 70
8
 71
3
 72
8
 73
4
 74
0
 40
0
 40
0
 40
0
 40
0
 40
1
 40
1
 40
1
 40
1
 10
143.561069
 20
23.483328
 30
0.0
 10
144.210812
 20
23.108199
 30
0.0
 10
145.011327
 20
23.108199
 30
0.0
 10
145.661069
 20
23.483328
 30
0.0
  0
SPLINE
  5
111
100
AcDbEntity
  8
0
 62
7
100
AcDbSpline
 70
8
 71
3
 72
8
 73
4
 74
0
 40
0
 40
0
 40
0
 40
0
 40
1
 40
1
 40
1
 40
1
 10
145.661069
 20
23.483328
 30
0.0
 10
146.310812
 20
23.858457
 30
0.0
 10
146.711069
 20
24.551724
 30
0.0
 10
146.711069
 20
25.301982
 30
0.0
  0
LWPOLYLINE
  5
112
100
AcDbEntity
  8
0
 62
7
100
AcDbPolyline
 90
2
 70
0
 10
137.490054
 20
224.545119
 30
0.0
 10
137.490054
 20
280.495118
 30
0.0
  0
SPLINE
  5
113
100
AcDbEntity
  8
0
 62
7
100
AcDbSpline
 70
8
 71
3
 72
8
 73
4
 74
0
 40
0
 40
0
 40
0
 40
0
 40
1
 40
1
 40
1
 40
1
 10
14.269920
 20
25.301982
 30
0.0
 10
14.270195
 20
26.052423
 30
0.0
 10
13.869998
 20
26.745977
 30
0.0
 10
13.220142
 20
27.121277
 30
0.0
  0
SPLINE
  5
114
100
AcDbEntity
  8
0
 62
7
100
AcDbSpline
 70
8
 71
3
 72
8
 73
4
 74
0
 40
0
 40
0
 40
0
 40
0
 40
1
 40
1
 40
1
 40
1
 10
13.220142
 20
27.121277
 30
0.0
 10
12.570287
 20
27.496577
 30
0.0
 10
11.769553
 20
27.496577
 30
0.0
 10
11.119698
 20
27.121277
 30
0.0
  0
SPLINE
  5
115
100
AcDbEntity
  8
0
 62
7
100
AcDbSpline
 70
8
 71
3
 72
8
 73
4
 74
0
 40
0
 40
0
 40
0
 40
0
 40
1
 40
1
 40
1
 40
1
 10
11.119698
 20
27.121277
 30
0.0
 10
10.469843
 20
26.745977
 30
0.0
 10
10.069645
 20
26.052423
 30
0.0
 10
10.069920
 20
25.301982
 30
0.0
  0
SPLINE
  5
116
100
AcDbEntity
  8
0
 62
7
100
AcDbSpline
 70
8
 71
3
 72
8
 73
4
 74
0
 40
0
 40
0
 40
0
 40
0
 40
1
 40
1
 40
1
 40
1
 10
10.069920
 20
25.301982
 30
0.0
 10
10.069645
 20
24.551541
 30
0.0
 10
10.469843
 20
23.857987
 30
0.0
 10
11.119698
 20
23.482687
 30
0.0
  0
SPLINE
  5
117
100
AcDbEntity
  8
0
 62
7
100
AcDbSpline
 70
8
 71
3
 72
8
 73
4
 74
0
 40
0
 40
0
 40
0
 40
0
 40
1
 40
1
 40
1
 40
1
 10
11.119698
 20
23.482687
 30
0.0
 10
11.769553
 20
23.107387
 30
0.0
 10
12.570287
 20
23.107387
 30
0.0
 10
13.220142
 20
23.482687
 30
0.0
  0
SPLINE
  5
118
100
AcDbEntity
  8
0
 62
7
100
AcDbSpline
 70
8
 71
3
 72
8
 73
4
 74
0
 40
0
 40
0
 40
0
 40
0
 40
1
 40
1
 40
1
 40
1
 10
13.220142
 20
23.482687
 30
0.0
 10
13.869998
 20
23.857987
 30
0.0
 10
14.270195
 20
24.551541
 30
0.0
 10
14.269920
 20
25.301982
 30
0.0
  0
LWPOLYLINE
  5
119
100
AcDbEntity
  8
0
 62
7
100
AcDbPolyline
 90
2
 70
1
 10
146.711069
 20
25.301982
 30
0.0
 10
146.711069
 20
25.301982
 30
0.0
  0
SPLINE
  5
11a
100
AcDbEntity
  8
0
 62
7
100
AcDbSpline
 70
8
 71
3
 72
8
 73
4
 74
0
 40
0
 40
0
 40
0
 40
0
 40
1
 40
1
 40
1
 40
1
 10
146.211070
 20
272.995119
 30
0.0
 10
146.211070
 20
273.745377
 30
0.0
 10
145.810813
 20
274.438644
 30
0.0
 10
145.161070
 20
274.813773
 30
0.0
  0
SPLINE
  5
11b
100
AcDbEntity
  8
0
 62
7
100
AcDbSpline
 70
8
 71
3
 72
8
 73
4
 74
0
 40
0
 40
0
 40
0
 40
0
 40
1
 40
1
 40
1
 40
1
 10
145.161070
 20
274.813773
 30
0.0
 10
144.511328
 20
275.188902
 30
0.0
 10
143.710813
 20
275.188902
 30
0.0
 10
143.061070
 20
274.813773
 30
0.0
  0
SPLINE
  5
11c
100
AcDbEntity
  8
0
 62
7
100
AcDbSpline
 70
8
 71
3
 72
8
 73
4
 74
0
 40
0
 40
0
 40
0
 40
0
 40
1
 40
1
 40
1
 40
1
 10
143.061070
 20
274.813773
 30
0.0
 10
142.411328
 20
274.438644
 30
0.0
 10
142.011070
 20
273.745377
 30
0.0
 10
142.011070
 20
272.995119
 30
0.0
  0
SPLINE
  5
11d
100
AcDbEntity
  8
0
 62
7
100
AcDbSpline
 70
8
 71
3
 72
8
 73
4
 74
0
 40
0
 40
0
 40
0
 40
0
 40
1
 40
1
 40
1
 40
1
 10
142.011070
 20
272.995119
 30
0.0
 10
142.011070
 20
272.244862
 30
0.0
 10
142.411328
 20
271.551595
 30
0.0
 10
143.061070
 20
271.176466
 30
0.0
  0
SPLINE
  5
11e
100
AcDbEntity
  8
0
 62
7
100
AcDbSpline
 70
8
 71
3
 72
8
 73
4
 74
0
 40
0
 40
0
 40
0
 40
0
 40
1
 40
1
 40
1
 40
1
 10
143.061070
 20
271.176466
 30
0.0
 10
143.710813
 20
270.801337
 30
0.0
 10
144.511328
 20
270.801337
 30
0.0
 10
145.161070
 20
271.176466
 30
0.0
  0
SPLINE
  5
11f
100
AcDbEntity
  8
0
 62
7
100
AcDbSpline
 70
8
 71
3
 72
8
 73
4
 74
0
 40
0
 40
0
 40
0
 40
0
 40
1
 40
1
 40
1
 40
1
 10
145.161070
 20
271.176466
 30
0.0
 10
145.810813
 20
271.551595
 30
0.0
 10
146.211070
 20
272.244862
 30
0.0
 10
146.211070
 20
272.995119
 30
0.0
  0
LWPOLYLINE
  5
120
100
AcDbEntity
  8
0
 62
7
100
AcDbPolyline
 90
2
 70
1
 10
14.269920
 20
25.301982
 30
0.0
 10
14.269920
 20
25.301982
 30
0.0
  0
SPLINE
  5
121
100
AcDbEntity
  8
0
 62
7
100
AcDbSpline
 70
8
 71
3
 72
8
 73
4
 74
0
 40
0
 40
0
 40
0
 40
0
 40
1
 40
1
 40
1
 40
1
 10
146.211070
 20
232.045118
 30
0.0
 10
146.211070
 20
232.795376
 30
0.0
 10
145.810813
 20
233.488642
 30
0.0
 10
145.161070
 20
233.863771
 30
0.0
  0
SPLINE
  5
122
100
AcDbEntity
  8
0
 62
7
100
AcDbSpline
 70
8
 71
3
 72
8
 73
4
 74
0
 40
0
 40
0
 40
0
 40
0
 40
1
 40
1
 40
1
 40
1
 10
145.161070
 20
233.863771
 30
0.0
 10
144.511328
 20
234.238900
 30
0.0
 10
143.710813
 20
234.238900
 30
0.0
 10
143.061070
 20
233.863771
 30
0.0
  0
SPLINE
  5
123
100
AcDbEntity
  8
0
 62
7
100
AcDbSpline
 70
8
 71
3
 72
8
 73
4
 74
0
 40
0
 40
0
 40
0
 40
0
 40
1
 40
1
 40
1
 40
1
 10
143.061070
 20
233.863771
 30
0.0
 10
142.411328
 20
233.488642
 30
0.0
 10
142.011070
 20
232.795376
 30
0.0
 10
142.011070
 20
232.045118
 30
0.0
  0
SPLINE
  5
124
100
AcDbEntity
  8
0
 62
7
100
AcDbSpline
 70
8
 71
3
 72
8
 73
4
 74
0
 40
0
 40
0
 40
0
 40
0
 40
1
 40
1
 40
1
 40
1
 10
142.011070
 20
232.045118
 30
0.0
 10
142.011070
 20
231.294860
 30
0.0
 10
142.411328
 20
230.601593
 30
0.0
 10
143.061070
 20
230.226464
 30
0.0
  0
SPLINE
  5
125
100
AcDbEntity
  8
0
 62
7
100
AcDbSpline
 70
8
 71
3
 72
8
 73
4
 74
0
 40
0
 40
0
 40
0
 40
0
 40
1
 40
1
 40
1
 40
1
 10
143.061070
 20
230.226464
 30
0.0
 10
143.710813
 20
229.851336
 30
0.0
 10
144.511328
 20
229.851336
 30
0.0
 10
145.161070
 20
230.226464
 30
0.0
  0
SPLINE
  5
126
100
AcDbEntity
  8
0
 62
7
100
AcDbSpline
 70
8
 71
3
 72
8
 73
4
 74
0
 40
0
 40
0
 40
0
 40
0
 40
1
 40
1
 40
1
 40
1
 10
145.161070
 20
230.226464
 30
0.0
 10
145.810813
 20
230.601593
 30
0.0
 10
146.211070
 20
231.294860
 30
0.0
 10
146.211070
 20
232.045118
 30
0.0
  0
LWPOLYLINE
  5
127
100
AcDbEntity
  8
0
 62
7
100
AcDbPolyline
 90
2
 70
1
 10
146.211070
 20
272.995119
 30
0.0
 10
146.211070
 20
272.995119
 30
0.0
  0
SPLINE
  5
128
100
AcDbEntity
  8
0
 62
7
100
AcDbSpline
 70
8
 71
3
 72
8
 73
4
 74
0
 40
0
 40
0
 40
0
 40
0
 40
1
 40
1
 40
1
 40
1
 10
14.727000
 20
272.995119
 30
0.0
 10
14.727000
 20
273.745377
 30
0.0
 10
14.326742
 20
274.438644
 30
0.0
 10
13.677000
 20
274.813773
 30
0.0
  0
SPLINE
  5
129
100
AcDbEntity
  8
0
 62
7
100
AcDbSpline
 70
8
 71
3
 72
8
 73
4
 74
0
 40
0
 40
0
 40
0
 40
0
 40
1
 40
1
 40
1
 40
1
 10
13.677000
 20
274.813773
 30
0.0
 10
13.027258
 20
275.188902
 30
0.0
 10
12.226742
 20
275.188902
 30
0.0
 10
11.577000
 20
274.813773
 30
0.0
  0
SPLINE
  5
12a
100
AcDbEntity
  8
0
 62
7
100
AcDbSpline
 70
8
 71
3
 72
8
 73
4
 74
0
 40
0
 40
0
 40
0
 40
0
 40
1
 40
1
 40
1
 40
1
 10
11.577000
 20
274.813773
 30
0.0
 10
10.927258
 20
274.438644
 30
0.0
 10
10.527000
 20
273.745377
 30
0.0
 10
10.527000
 20
272.995119
 30
0.0
  0
SPLINE
  5
12b
100
AcDbEntity
  8
0
 62
7
100
AcDbSpline
 70
8
 71
3
 72
8
 73
4
 74
0
 40
0
 40
0
 40
0
 40
0
 40
1
 40
1
 40
1
 40
1
 10
10.527000
 20
272.995119
 30
0.0
 10
10.527000
 20
272.244862
 30
0.0
 10
10.927258
 20
271.551595
 30
0.0
 10
11.577000
 20
271.176466
 30
0.0
  0
SPLINE
  5
12c
100
AcDbEntity
  8
0
 62
7
100
AcDbSpline
 70
8
 71
3
 72
8
 73
4
 74
0
 40
0
 40
0
 40
0
 40
0
 40
1
 40
1
 40
1
 40
1
 10
11.577000
 20
271.176466
 30
0.0
 10
12.226742
 20
270.801337
 30
0.0
 10
13.027258
 20
270.801337
 30
0.0
 10
13.677000
 20
271.176466
 30
0.0
  0
SPLINE
  5
12d
100
AcDbEntity
  8
0
 62
7
100
AcDbSpline
 70
8
 71
3
 72
8
 73
4
 74
0
 40
0
 40
0
 40
0
 40
0
 40
1
 40
1
 40
1
 40
1
 10
13.677000
 20
271.176466
 30
0.0
 10
14.326742
 20
271.551595
 30
0.0
 10
14.727000
 20
272.244862
 30
0.0
 10
14.727000
 20
272.995119
 30
0.0
  0
LWPOLYLINE
  5
12e
100
AcDbEntity
  8
0
 62
7
100
AcDbPolyline
 90
2
 70
1
 10
146.211070
 20
232.045118
 30
0.0
 10
146.211070
 20
232.045118
 30
0.0
  0
SPLINE
  5
12f
100
AcDbEntity
  8
0
 62
7
100
AcDbSpline
 70
8
 71
3
 72
8
 73
4
 74
0
 40
0
 40
0
 40
0
 40
0
 40
1
 40
1
 40
1
 40
1
 10
14.727000
 20
232.045118
 30
0.0
 10
14.727000
 20
232.795376
 30
0.0
 10
14.326742
 20
233.488642
 30
0.0
 10
13.677000
 20
233.863771
 30
0.0
  0
SPLINE
  5
130
100
AcDbEntity
  8
0
 62
7
100
AcDbSpline
 70
8
 71
3
 72
8
 73
4
 74
0
 40
0
 40
0
 40
0
 40
0
 40
1
 40
1
 40
1
 40
1
 10
13.677000
 20
233.863771
 30
0.0
 10
13.027258
 20
234.238900
 30
0.0
 10
12.226742
 20
234.238900
 30
0.0
 10
11.577000
 20
233.863771
 30
0.0
  0
SPLINE
  5
131
100
AcDbEntity
  8
0
 62
7
100
AcDbSpline
 70
8
 71
3
 72
8
 73
4
 74
0
 40
0
 40
0
 40
0
 40
0
 40
1
 40
1
 40
1
 40
1
 10
11.577000
 20
233.863771
 30
0.0
 10
10.927258
 20
233.488642
 30
0.0
 10
10.527000
 20
232.795376
 30
0.0
 10
10.527000
 20
232.045118
 30
0.0
  0
SPLINE
  5
132
100
AcDbEntity
  8
0
 62
7
100
AcDbSpline
 70
8
 71
3
 72
8
 73
4
 74
0
 40
0
 40
0
 40
0
 40
0
 40
1
 40
1
 40
1
 40
1
 10
10.527000
 20
232.045118
 30
0.0
 10
10.527000
 20
231.294860
 30
0.0
 10
10.927258
 20
230.601593
 30
0.0
 10
11.577000
 20
230.226465
 30
0.0
  0
SPLINE
  5
133
100
AcDbEntity
  8
0
 62
7
100
AcDbSpline
 70
8
 71
3
 72
8
 73
4
 74
0
 40
0
 40
0
 40
0
 40
0
 40
1
 40
1
 40
1
 40
1
 10
11.577000
 20
230.226465
 30
0.0
 10
12.226742
 20
229.851336
 30
0.0
 10
13.027258
 20
229.851336
 30
0.0
 10
13.677000
 20
230.226465
 30
0.0
  0
SPLINE
  5
134
100
AcDbEntity
  8
0
 62
7
100
AcDbSpline
 70
8
 71
3
 72
8
 73
4
 74
0
 40
0
 40
0
 40
0
 40
0
 40
1
 40
1
 40
1
 40
1
 10
13.677000
 20
230.226465
 30
0.0
 10
14.326742
 20
230.601593
 30
0.0
 10
14.727000
 20
231.294860
 30
0.0
 10
14.727000
 20
232.045118
 30
0.0
  0
LWPOLYLINE
  5
135
100
AcDbEntity
  8
0
 62
7
100
AcDbPolyline
 90
2
 70
1
 10
14.727000
 20
272.995119
 30
0.0
 10
14.727000
 20
272.995119
 30
0.0
  0
SPLINE
  5
136
100
AcDbEntity
  8
0
 62
7
100
AcDbSpline
 70
8
 71
3
 72
8
 73
4
 74
0
 40
0
 40
0
 40
0
 40
0
 40
1
 40
1
 40
1
 40
1
 10
14.227000
 20
75.561049
 30
0.0
 10
14.227000
 20
76.311307
 30
0.0
 10
13.826742
 20
77.004574
 30
0.0
 10
13.177000
 20
77.379703
 30
0.0
  0
SPLINE
  5
137
100
AcDbEntity
  8
0
 62
7
100
AcDbSpline
 70
8
 71
3
 72
8
 73
4
 74
0
 40
0
 40
0
 40
0
 40
0
 40
1
 40
1
 40
1
 40
1
 10
13.177000
 20
77.379703
 30
0.0
 10
12.527257
 20
77.754831
 30
0.0
 10
11.726742
 20
77.754831
 30
0.0
 10
11.077000
 20
77.379703
 30
0.0
  0
SPLINE
  5
138
100
AcDbEntity
  8
0
 62
7
100
AcDbSpline
 70
8
 71
3
 72
8
 73
4
 74
0
 40
0
 40
0
 40
0
 40
0
 40
1
 40
1
 40
1
 40
1
 10
11.077000
 20
77.379703
 30
0.0
 10
10.427257
 20
77.004574
 30
0.0
 10
10.027000
 20
76.311307
 30
0.0
 10
10.027000
 20
75.561049
 30
0.0
  0
SPLINE
  5
139
100
AcDbEntity
  8
0
 62
7
100
AcDbSpline
 70
8
 71
3
 72
8
 73
4
 74
0
 40
0
 40
0
 40
0
 40
0
 40
1
 40
1
 40
1
 40
1
 10
10.027000
 20
75.561049
 30
0.0
 10
10.027000
 20
74.810791
 30
0.0
 10
10.427257
 20
74.117525
 30
0.0
 10
11.077000
 20
73.742396
 30
0.0
  0
SPLINE
  5
13a
100
AcDbEntity
  8
0
 62
7
100
AcDbSpline
 70
8
 71
3
 72
8
 73
4
 74
0
 40
0
 40
0
 40
0
 40
0
 40
1
 40
1
 40
1
 40
1
 10
11.077000
 20
73.742396
 30
0.0
 10
11.726742
 20
73.367267
 30
0.0
 10
12.527257
 20
73.367267
 30
0.0
 10
13.177000
 20
73.742396
 30
0.0
  0
SPLINE
  5
13b
100
AcDbEntity
  8
0
 62
7
100
AcDbSpline
 70
8
 71
3
 72
8
 73
4
 74
0
 40
0
 40
0
 40
0
 40
0
 40
1
 40
1
 40
1
 40
1
 10
13.177000
 20
73.742396
 30
0.0
 10
13.826742
 20
74.117525
 30
0.0
 10
14.227000
 20
74.810791
 30
0.0
 10
14.227000
 20
75.561049
 30
0.0
  0
LWPOLYLINE
  5
13c
100
AcDbEntity
  8
0
 62
7
100
AcDbPolyline
 90
2
 70
1
 10
14.727000
 20
232.045118
 30
0.0
 10
14.727000
 20
232.045118
 30
0.0
  0
SPLINE
  5
13d
100
AcDbEntity
  8
0
 62
7
100
AcDbSpline
 70
8
 71
3
 72
8
 73
4
 74
0
 40
0
 40
0
 40
0
 40
0
 40
1
 40
1
 40
1
 40
1
 10
146.711069
 20
75.561049
 30
0.0
 10
146.711069
 20
76.311307
 30
0.0
 10
146.310812
 20
77.004574
 30
0.0
 10
145.661069
 20
77.379703
 30
0.0
  0
SPLINE
  5
13e
100
AcDbEntity
  8
0
 62
7
100
AcDbSpline
 70
8
 71
3
 72
8
 73
4
 74
0
 40
0
 40
0
 40
0
 40
0
 40
1
 40
1
 40
1
 40
1
 10
145.661069
 20
77.379703
 30
0.0
 10
145.011327
 20
77.754831
 30
0.0
 10
144.210812
 20
77.754831
 30
0.0
 10
143.561069
 20
77.379703
 30
0.0
  0
SPLINE
  5
13f
100
AcDbEntity
  8
0
 62
7
100
AcDbSpline
 70
8
 71
3
 72
8
 73
4
 74
0
 40
0
 40
0
 40
0
 40
0
 40
1
 40
1
 40
1
 40
1
 10
143.561069
 20
77.379703
 30
0.0
 10
142.911327
 20
77.004574
 30
0.0
 10
142.511069
 20
76.311307
 30
0.0
 10
142.511069
 20
75.561049
 30
0.0
  0
SPLINE
  5
140
100
AcDbEntity
  8
0
 62
7
100
AcDbSpline
 70
8
 71
3
 72
8
 73
4
 74
0
 40
0
 40
0
 40
0
 40
0
 40
1
 40
1
 40
1
 40
1
 10
142.511069
 20
75.561049
 30
0.0
 10
142.511069
 20
74.810791
 30
0.0
 10
142.911327
 20
74.117525
 30
0.0
 10
143.561069
 20
73.742396
 30
0.0
  0
SPLINE
  5
141
100
AcDbEntity
  8
0
 62
7
100
AcDbSpline
 70
8
 71
3
 72
8
 73
4
 74
0
 40
0
 40
0
 40
0
 40
0
 40
1
 40
1
 40
1
 40
1
 10
143.561069
 20
73.742396
 30
0.0
 10
144.210812
 20
73.367267
 30
0.0
 10
145.011327
 20
73.367267
 30
0.0
 10
145.661069
 20
73.742396
 30
0.0
  0
SPLINE
  5
142
100
AcDbEntity
  8
0
 62
7
100
AcDbSpline
 70
8
 71
3
 72
8
 73
4
 74
0
 40
0
 40
0
 40
0
 40
0
 40
1
 40
1
 40
1
 40
1
 10
145.661069
 20
73.742396
 30
0.0
 10
146.310812
 20
74.117525
 30
0.0
 10
146.711069
 20
74.810791
 30
0.0
 10
146.711069
 20
75.561049
 30
0.0
  0
LWPOLYLINE
  5
143
100
AcDbEntity
  8
0
 62
7
100
AcDbPolyline
 90
2
 70
1
 10
14.227000
 20
75.561049
 30
0.0
 10
14.227000
 20
75.561049
 30
0.0
  0
SPLINE
  5
144
100
AcDbEntity
  8
0
 62
7
100
AcDbSpline
 70
8
 71
3
 72
8
 73
4
 74
0
 40
0
 40
0
 40
0
 40
0
 40
1
 40
1
 40
1
 40
1
 10
35.135925
 20
81.908653
 30
0.0
 10
35.135925
 20
82.462415
 30
0.0
 10
34.840497
 20
82.974112
 30
0.0
 10
34.360925
 20
83.250992
 30
0.0
  0
SPLINE
  5
145
100
AcDbEntity
  8
0
 62
7
100
AcDbSpline
 70
8
 71
3
 72
8
 73
4
 74
0
 40
0
 40
0
 40
0
 40
0
 40
1
 40
1
 40
1
 40
1
 10
34.360925
 20
83.250992
 30
0.0
 10
33.881353
 20
83.527873
 30
0.0
 10
33.290497
 20
83.527873
 30
0.0
 10
32.810925
 20
83.250992
 30
0.0
  0
SPLINE
  5
146
100
AcDbEntity
  8
0
 62
7
100
AcDbSpline
 70
8
 71
3
 72
8
 73
4
 74
0
 40
0
 40
0
 40
0
 40
0
 40
1
 40
1
 40
1
 40
1
 10
32.810925
 20
83.250992
 30
0.0
 10
32.331353
 20
82.974112
 30
0.0
 10
32.035925
 20
82.462415
 30
0.0
 10
32.035925
 20
81.908653
 30
0.0
  0
SPLINE
  5
147
100
AcDbEntity
  8
0
 62
7
100
AcDbSpline
 70
8
 71
3
 72
8
 73
4
 74
0
 40
0
 40
0
 40
0
 40
0
 40
1
 40
1
 40
1
 40
1
 10
32.035925
 20
81.908653
 30
0.0
 10
32.035925
 20
81.354891
 30
0.0
 10
32.331353
 20
80.843194
 30
0.0
 10
32.810925
 20
80.566314
 30
0.0
  0
SPLINE
  5
148
100
AcDbEntity
  8
0
 62
7
100
AcDbSpline
 70
8
 71
3
 72
8
 73
4
 74
0
 40
0
 40
0
 40
0
 40
0
 40
1
 40
1
 40
1
 40
1
 10
32.810925
 20
80.566314
 30
0.0
 10
33.290497
 20
80.289433
 30
0.0
 10
33.881353
 20
80.289433
 30
0.0
 10
34.360925
 20
80.566314
 30
0.0
  0
SPLINE
  5
149
100
AcDbEntity
  8
0
 62
7
100
AcDbSpline
 70
8
 71
3
 72
8
 73
4
 74
0
 40
0
 40
0
 40
0
 40
0
 40
1
 40
1
 40
1
 40
1
 10
34.360925
 20
80.566314
 30
0.0
 10
34.840497
 20
80.843194
 30
0.0
 10
35.135925
 20
81.354891
 30
0.0
 10
35.135925
 20
81.908653
 30
0.0
  0
LWPOLYLINE
  5
14a
100
AcDbEntity
  8
0
 62
7
100
AcDbPolyline
 90
2
 70
1
 10
146.711069
 20
75.561049
 30
0.0
 10
146.711069
 20
75.561049
 30
0.0
  0
SPLINE
  5
14b
100
AcDbEntity
  8
0
 62
7
100
AcDbSpline
 70
8
 71
3
 72
8
 73
4
 74
0
 40
0
 40
0
 40
0
 40
0
 40
1
 40
1
 40
1
 40
1
 10
35.135925
 20
75.429407
 30
0.0
 10
35.135925
 20
75.983168
 30
0.0
 10
34.840497
 20
76.494865
 30
0.0
 10
34.360925
 20
76.771746
 30
0.0
  0
SPLINE
  5
14c
100
AcDbEntity
  8
0
 62
7
100
AcDbSpline
 70
8
 71
3
 72
8
 73
4
 74
0
 40
0
 40
0
 40
0
 40
0
 40
1
 40
1
 40
1
 40
1
 10
34.360925
 20
76.771746
 30
0.0
 10
33.881353
 20
77.048627
 30
0.0
 10
33.290497
 20
77.048627
 30
0.0
 10
32.810925
 20
76.771746
 30
0.0
  0
SPLINE
  5
14d
100
AcDbEntity
  8
0
 62
7
100
AcDbSpline
 70
8
 71
3
 72
8
 73
4
 74
0
 40
0
 40
0
 40
0
 40
0
 40
1
 40
1
 40
1
 40
1
 10
32.810925
 20
76.771746
 30
0.0
 10
32.331353
 20
76.494865
 30
0.0
 10
32.035925
 20
75.983168
 30
0.0
 10
32.035925
 20
75.429407
 30
0.0
  0
SPLINE
  5
14e
100
AcDbEntity
  8
0
 62
7
100
AcDbSpline
 70
8
 71
3
 72
8
 73
4
 74
0
 40
0
 40
0
 40
0
 40
0
 40
1
 40
1
 40
1
 40
1
 10
32.035925
 20
75.429407
 30
0.0
 10
32.035925
 20
74.875645
 30
0.0
 10
32.331353
 20
74.363948
 30
0.0
 10
32.810925
 20
74.087067
 30
0.0
  0
SPLINE
  5
14f
100
AcDbEntity
  8
0
 62
7
100
AcDbSpline
 70
8
 71
3
 72
8
 73
4
 74
0
 40
0
 40
0
 40
0
 40
0
 40
1
 40
1
 40
1
 40
1
 10
32.810925
 20
74.087067
 30
0.0
 10
33.290497
 20
73.810186
 30
0.0
 10
33.881353
 20
73.810186
 30
0.0
 10
34.360925
 20
74.087067
 30
0.0
  0
SPLINE
  5
150
100
AcDbEntity
  8
0
 62
7
100
AcDbSpline
 70
8
 71
3
 72
8
 73
4
 74
0
 40
0
 40
0
 40
0
 40
0
 40
1
 40
1
 40
1
 40
1
 10
34.360925
 20
74.087067
 30
0.0
 10
34.840497
 20
74.363948
 30
0.0
 10
35.135925
 20
74.875645
 30
0.0
 10
35.135925
 20
75.429407
 30
0.0
  0
LWPOLYLINE
  5
151
100
AcDbEntity
  8
0
 62
7
100
AcDbPolyline
 90
2
 70
1
 10
35.135925
 20
81.908653
 30
0.0
 10
35.135925
 20
81.908653
 30
0.0
  0
SPLINE
  5
152
100
AcDbEntity
  8
0
 62
7
100
AcDbSpline
 70
8
 71
3
 72
8
 73
4
 74
0
 40
0
 40
0
 40
0
 40
0
 40
1
 40
1
 40
1
 40
1
 10
35.135925
 20
69.077205
 30
0.0
 10
35.135925
 20
69.630967
 30
0.0
 10
34.840497
 20
70.142664
 30
0.0
 10
34.360925
 20
70.419545
 30
0.0
  0
SPLINE
  5
153
100
AcDbEntity
  8
0
 62
7
100
AcDbSpline
 70
8
 71
3
 72
8
 73
4
 74
0
 40
0
 40
0
 40
0
 40
0
 40
1
 40
1
 40
1
 40
1
 10
34.360925
 20
70.419545
 30
0.0
 10
33.881353
 20
70.696426
 30
0.0
 10
33.290497
 20
70.696426
 30
0.0
 10
32.810925
 20
70.419545
 30
0.0
  0
SPLINE
  5
154
100
AcDbEntity
  8
0
 62
7
100
AcDbSpline
 70
8
 71
3
 72
8
 73
4
 74
0
 40
0
 40
0
 40
0
 40
0
 40
1
 40
1
 40
1
 40
1
 10
32.810925
 20
70.419545
 30
0.0
 10
32.331353
 20
70.142664
 30
0.0
 10
32.035925
 20
69.630967
 30
0.0
 10
32.035925
 20
69.077205
 30
0.0
  0
SPLINE
  5
155
100
AcDbEntity
  8
0
 62
7
100
AcDbSpline
 70
8
 71
3
 72
8
 73
4
 74
0
 40
0
 40
0
 40
0
 40
0
 40
1
 40
1
 40
1
 40
1
 10
32.035925
 20
69.077205
 30
0.0
 10
32.035925
 20
68.523444
 30
0.0
 10
32.331353
 20
68.011747
 30
0.0
 10
32.810925
 20
67.734866
 30
0.0
  0
SPLINE
  5
156
100
AcDbEntity
  8
0
 62
7
100
AcDbSpline
 70
8
 71
3
 72
8
 73
4
 74
0
 40
0
 40
0
 40
0
 40
0
 40
1
 40
1
 40
1
 40
1
 10
32.810925
 20
67.734866
 30
0.0
 10
33.290497
 20
67.457985
 30
0.0
 10
33.881353
 20
67.457985
 30
0.0
 10
34.360925
 20
67.734866
 30
0.0
  0
SPLINE
  5
157
100
AcDbEntity
  8
0
 62
7
100
AcDbSpline
 70
8
 71
3
 72
8
 73
4
 74
0
 40
0
 40
0
 40
0
 40
0
 40
1
 40
1
 40
1
 40
1
 10
34.360925
 20
67.734866
 30
0.0
 10
34.840497
 20
68.011747
 30
0.0
 10
35.135925
 20
68.523444
 30
0.0
 10
35.135925
 20
69.077205
 30
0.0
  0
LWPOLYLINE
  5
158
100
AcDbEntity
  8
0
 62
7
100
AcDbPolyline
 90
2
 70
1
 10
35.135925
 20
75.429407
 30
0.0
 10
35.135925
 20
75.429407
 30
0.0
  0
SPLINE
  5
159
100
AcDbEntity
  8
0
 62
7
100
AcDbSpline
 70
8
 71
3
 72
8
 73
4
 74
0
 40
0
 40
0
 40
0
 40
0
 40
1
 40
1
 40
1
 40
1
 10
35.135925
 20
62.725015
 30
0.0
 10
35.135925
 20
63.278777
 30
0.0
 10
34.840497
 20
63.790474
 30
0.0
 10
34.360925
 20
64.067355
 30
0.0
  0
SPLINE
  5
15a
100
AcDbEntity
  8
0
 62
7
100
AcDbSpline
 70
8
 71
3
 72
8
 73
4
 74
0
 40
0
 40
0
 40
0
 40
0
 40
1
 40
1
 40
1
 40
1
 10
34.360925
 20
64.067355
 30
0.0
 10
33.881353
 20
64.344235
 30
0.0
 10
33.290497
 20
64.344235
 30
0.0
 10
32.810925
 20
64.067355
 30
0.0
  0
SPLINE
  5
15b
100
AcDbEntity
  8
0
 62
7
100
AcDbSpline
 70
8
 71
3
 72
8
 73
4
 74
0
 40
0
 40
0
 40
0
 40
0
 40
1
 40
1
 40
1
 40
1
 10
32.810925
 20
64.067355
 30
0.0
 10
32.331353
 20
63.790474
 30
0.0
 10
32.035925
 20
63.278777
 30
0.0
 10
32.035925
 20
62.725015
 30
0.0
  0
SPLINE
  5
15c
100
AcDbEntity
  8
0
 62
7
100
AcDbSpline
 70
8
 71
3
 72
8
 73
4
 74
0
 40
0
 40
0
 40
0
 40
0
 40
1
 40
1
 40
1
 40
1
 10
32.035925
 20
62.725015
 30
0.0
 10
32.035925
 20
62.171254
 30
0.0
 10
32.331353
 20
61.659557
 30
0.0
 10
32.810925
 20
61.382676
 30
0.0
  0
SPLINE
  5
15d
100
AcDbEntity
  8
0
 62
7
100
AcDbSpline
 70
8
 71
3
 72
8
 73
4
 74
0
 40
0
 40
0
 40
0
 40
0
 40
1
 40
1
 40
1
 40
1
 10
32.810925
 20
61.382676
 30
0.0
 10
33.290497
 20
61.105795
 30
0.0
 10
33.881353
 20
61.105795
 30
0.0
 10
34.360925
 20
61.382676
 30
0.0
  0
SPLINE
  5
15e
100
AcDbEntity
  8
0
 62
7
100
AcDbSpline
 70
8
 71
3
 72
8
 73
4
 74
0
 40
0
 40
0
 40
0
 40
0
 40
1
 40
1
 40
1
 40
1
 10
34.360925
 20
61.382676
 30
0.0
 10
34.840497
 20
61.659557
 30
0.0
 10
35.135925
 20
62.171254
 30
0.0
 10
35.135925
 20
62.725015
 30
0.0
  0
LWPOLYLINE
  5
15f
100
AcDbEntity
  8
0
 62
7
100
AcDbPolyline
 90
2
 70
1
 10
35.135925
 20
69.077205
 30
0.0
 10
35.135925
 20
69.077205
 30
0.0
  0
SPLINE
  5
160
100
AcDbEntity
  8
0
 62
7
100
AcDbSpline
 70
8
 71
3
 72
8
 73
4
 74
0
 40
0
 40
0
 40
0
 40
0
 40
1
 40
1
 40
1
 40
1
 10
118.406771
 20
88.261049
 30
0.0
 10
118.407111
 20
88.832900
 30
0.0
 10
118.102227
 20
89.361458
 30
0.0
 10
117.607046
 20
89.647482
 30
0.0
  0
SPLINE
  5
161
100
AcDbEntity
  8
0
 62
7
100
AcDbSpline
 70
8
 71
3
 72
8
 73
4
 74
0
 40
0
 40
0
 40
0
 40
0
 40
1
 40
1
 40
1
 40
1
 10
117.607046
 20
89.647482
 30
0.0
 10
117.111865
 20
89.933505
 30
0.0
 10
116.501679
 20
89.933505
 30
0.0
 10
116.006497
 20
89.647482
 30
0.0
  0
SPLINE
  5
162
100
AcDbEntity
  8
0
 62
7
100
AcDbSpline
 70
8
 71
3
 72
8
 73
4
 74
0
 40
0
 40
0
 40
0
 40
0
 40
1
 40
1
 40
1
 40
1
 10
116.006497
 20
89.647482
 30
0.0
 10
115.511316
 20
89.361458
 30
0.0
 10
115.206432
 20
88.832900
 30
0.0
 10
115.206772
 20
88.261049
 30
0.0
  0
SPLINE
  5
163
100
AcDbEntity
  8
0
 62
7
100
AcDbSpline
 70
8
 71
3
 72
8
 73
4
 74
0
 40
0
 40
0
 40
0
 40
0
 40
1
 40
1
 40
1
 40
1
 10
115.206772
 20
88.261049
 30
0.0
 10
115.206432
 20
87.689198
 30
0.0
 10
115.511316
 20
87.160640
 30
0.0
 10
116.006497
 20
86.874617
 30
0.0
  0
SPLINE
  5
164
100
AcDbEntity
  8
0
 62
7
100
AcDbSpline
 70
8
 71
3
 72
8
 73
4
 74
0
 40
0
 40
0
 40
0
 40
0
 40
1
 40
1
 40
1
 40
1
 10
116.006497
 20
86.874617
 30
0.0
 10
116.501679
 20
86.588593
 30
0.0
 10
117.111865
 20
86.588593
 30
0.0
 10
117.607046
 20
86.874617
 30
0.0
  0
SPLINE
  5
165
100
AcDbEntity
  8
0
 62
7
100
AcDbSpline
 70
8
 71
3
 72
8
 73
4
 74
0
 40
0
 40
0
 40
0
 40
0
 40
1
 40
1
 40
1
 40
1
 10
117.607046
 20
86.874617
 30
0.0
 10
118.102227
 20
87.160640
 30
0.0
 10
118.407111
 20
87.689198
 30
0.0
 10
118.406771
 20
88.261049
 30
0.0
  0
LWPOLYLINE
  5
166
100
AcDbEntity
  8
0
 62
7
100
AcDbPolyline
 90
2
 70
1
 10
35.135925
 20
62.725015
 30
0.0
 10
35.135925
 20
62.725015
 30
0.0
  0
SPLINE
  5
167
100
AcDbEntity
  8
0
 62
7
100
AcDbSpline
 70
8
 71
3
 72
8
 73
4
 74
0
 40
0
 40
0
 40
0
 40
0
 40
1
 40
1
 40
1
 40
1
 10
118.406771
 20
57.261052
 30
0.0
 10
118.407111
 20
57.832903
 30
0.0
 10
118.102227
 20
58.361461
 30
0.0
 10
117.607046
 20
58.647484
 30
0.0
  0
SPLINE
  5
168
100
AcDbEntity
  8
0
 62
7
100
AcDbSpline
 70
8
 71
3
 72
8
 73
4
 74
0
 40
0
 40
0
 40
0
 40
0
 40
1
 40
1
 40
1
 40
1
 10
117.607046
 20
58.647484
 30
0.0
 10
117.111865
 20
58.933508
 30
0.0
 10
116.501679
 20
58.933508
 30
0.0
 10
116.006497
 20
58.647484
 30
0.0
  0
SPLINE
  5
169
100
AcDbEntity
  8
0
 62
7
100
AcDbSpline
 70
8
 71
3
 72
8
 73
4
 74
0
 40
0
 40
0
 40
0
 40
0
 40
1
 40
1
 40
1
 40
1
 10
116.006497
 20
58.647484
 30
0.0
 10
115.511316
 20
58.361461
 30
0.0
 10
115.206432
 20
57.832903
 30
0.0
 10
115.206772
 20
57.261052
 30
0.0
  0
SPLINE
  5
16a
100
AcDbEntity
  8
0
 62
7
100
AcDbSpline
 70
8
 71
3
 72
8
 73
4
 74
0
 40
0
 40
0
 40
0
 40
0
 40
1
 40
1
 40
1
 40
1
 10
115.206772
 20
57.261052
 30
0.0
 10
115.206432
 20
56.689201
 30
0.0
 10
115.511316
 20
56.160643
 30
0.0
 10
116.006497
 20
55.874619
 30
0.0
  0
SPLINE
  5
16b
100
AcDbEntity
  8
0
 62
7
100
AcDbSpline
 70
8
 71
3
 72
8
 73
4
 74
0
 40
0
 40
0
 40
0
 40
0
 40
1
 40
1
 40
1
 40
1
 10
116.006497
 20
55.874619
 30
0.0
 10
116.501679
 20
55.588596
 30
0.0
 10
117.111865
 20
55.588596
 30
0.0
 10
117.607046
 20
55.874619
 30
0.0
  0
SPLINE
  5
16c
100
AcDbEntity
  8
0
 62
7
100
AcDbSpline
 70
8
 71
3
 72
8
 73
4
 74
0
 40
0
 40
0
 40
0
 40
0
 40
1
 40
1
 40
1
 40
1
 10
117.607046
 20
55.874619
 30
0.0
 10
118.102227
 20
56.160643
 30
0.0
 10
118.407111
 20
56.689201
 30
0.0
 10
118.406771
 20
57.261052
 30
0.0
  0
LWPOLYLINE
  5
16d
100
AcDbEntity
  8
0
 62
7
100
AcDbPolyline
 90
2
 70
1
 10
118.406771
 20
88.261049
 30
0.0
 10
118.406771
 20
88.261049
 30
0.0
  0
SPLINE
  5
16e
100
AcDbEntity
  8
0
 62
7
100
AcDbSpline
 70
8
 71
3
 72
8
 73
4
 74
0
 40
0
 40
0
 40
0
 40
0
 40
1
 40
1
 40
1
 40
1
 10
43.406771
 20
57.261052
 30
0.0
 10
43.406771
 20
57.832677
 30
0.0
 10
43.101813
 20
58.360880
 30
0.0
 10
42.606771
 20
58.646693
 30
0.0
  0
SPLINE
  5
16f
100
AcDbEntity
  8
0
 62
7
100
AcDbSpline
 70
8
 71
3
 72
8
 73
4
 74
0
 40
0
 40
0
 40
0
 40
0
 40
1
 40
1
 40
1
 40
1
 10
42.606771
 20
58.646693
 30
0.0
 10
42.111729
 20
58.932505
 30
0.0
 10
41.501813
 20
58.932505
 30
0.0
 10
41.006771
 20
58.646693
 30
0.0
  0
SPLINE
  5
170
100
AcDbEntity
  8
0
 62
7
100
AcDbSpline
 70
8
 71
3
 72
8
 73
4
 74
0
 40
0
 40
0
 40
0
 40
0
 40
1
 40
1
 40
1
 40
1
 10
41.006771
 20
58.646693
 30
0.0
 10
40.511729
 20
58.360880
 30
0.0
 10
40.206771
 20
57.832677
 30
0.0
 10
40.206771
 20
57.261052
 30
0.0
  0
SPLINE
  5
171
100
AcDbEntity
  8
0
 62
7
100
AcDbSpline
 70
8
 71
3
 72
8
 73
4
 74
0
 40
0
 40
0
 40
0
 40
0
 40
1
 40
1
 40
1
 40
1
 10
40.206771
 20
57.261052
 30
0.0
 10
40.206771
 20
56.689427
 30
0.0
 10
40.511729
 20
56.161224
 30
0.0
 10
41.006771
 20
55.875411
 30
0.0
  0
SPLINE
  5
172
100
AcDbEntity
  8
0
 62
7
100
AcDbSpline
 70
8
 71
3
 72
8
 73
4
 74
0
 40
0
 40
0
 40
0
 40
0
 40
1
 40
1
 40
1
 40
1
 10
41.006771
 20
55.875411
 30
0.0
 10
41.501813
 20
55.589599
 30
0.0
 10
42.111729
 20
55.589599
 30
0.0
 10
42.606771
 20
55.875411
 30
0.0
  0
SPLINE
  5
173
100
AcDbEntity
  8
0
 62
7
100
AcDbSpline
 70
8
 71
3
 72
8
 73
4
 74
0
 40
0
 40
0
 40
0
 40
0
 40
1
 40
1
 40
1
 40
1
 10
42.606771
 20
55.875411
 30
0.0
 10
43.101813
 20
56.161224
 30
0.0
 10
43.406771
 20
56.689427
 30
0.0
 10
43.406771
 20
57.261052
 30
0.0
  0
LWPOLYLINE
  5
174
100
AcDbEntity
  8
0
 62
7
100
AcDbPolyline
 90
2
 70
1
 10
118.406771
 20
57.261052
 30
0.0
 10
118.406771
 20
57.261052
 30
0.0
  0
SPLINE
  5
175
100
AcDbEntity
  8
0
 62
7
100
AcDbSpline
 70
8
 71
3
 72
8
 73
4
 74
0
 40
0
 40
0
 40
0
 40
0
 40
1
 40
1
 40
1
 40
1
 10
43.406771
 20
88.261049
 30
0.0
 10
43.406771
 20
88.832674
 30
0.0
 10
43.101813
 20
89.360877
 30
0.0
 10
42.606771
 20
89.646690
 30
0.0
  0
SPLINE
  5
176
100
AcDbEntity
  8
0
 62
7
100
AcDbSpline
 70
8
 71
3
 72
8
 73
4
 74
0
 40
0
 40
0
 40
0
 40
0
 40
1
 40
1
 40
1
 40
1
 10
42.606771
 20
89.646690
 30
0.0
 10
42.111729
 20
89.932502
 30
0.0
 10
41.501813
 20
89.932502
 30
0.0
 10
41.006771
 20
89.646690
 30
0.0
  0
SPLINE
  5
177
100
AcDbEntity
  8
0
 62
7
100
AcDbSpline
 70
8
 71
3
 72
8
 73
4
 74
0
 40
0
 40
0
 40
0
 40
0
 40
1
 40
1
 40
1
 40
1
 10
41.006771
 20
89.646690
 30
0.0
 10
40.511729
 20
89.360877
 30
0.0
 10
40.206771
 20
88.832674
 30
0.0
 10
40.206771
 20
88.261049
 30
0.0
  0
SPLINE
  5
178
100
AcDbEntity
  8
0
 62
7
100
AcDbSpline
 70
8
 71
3
 72
8
 73
4
 74
0
 40
0
 40
0
 40
0
 40
0
 40
1
 40
1
 40
1
 40
1
 10
40.206771
 20
88.261049
 30
0.0
 10
40.206771
 20
87.689424
 30
0.0
 10
40.511729
 20
87.161221
 30
0.0
 10
41.006771
 20
86.875408
 30
0.0
  0
SPLINE
  5
179
100
AcDbEntity
  8
0
 62
7
100
AcDbSpline
 70
8
 71
3
 72
8
 73
4
 74
0
 40
0
 40
0
 40
0
 40
0
 40
1
 40
1
 40
1
 40
1
 10
41.006771
 20
86.875408
 30
0.0
 10
41.501813
 20
86.589596
 30
0.0
 10
42.111729
 20
86.589596
 30
0.0
 10
42.606771
 20
86.875408
 30
0.0
  0
SPLINE
  5
17a
100
AcDbEntity
  8
0
 62
7
100
AcDbSpline
 70
8
 71
3
 72
8
 73
4
 74
0
 40
0
 40
0
 40
0
 40
0
 40
1
 40
1
 40
1
 40
1
 10
42.606771
 20
86.875408
 30
0.0
 10
43.101813
 20
87.161221
 30
0.0
 10
43.406771
 20
87.689424
 30
0.0
 10
43.406771
 20
88.261049
 30
0.0
  0
LWPOLYLINE
  5
17b
100
AcDbEntity
  8
0
 62
7
100
AcDbPolyline
 90
2
 70
1
 10
43.406771
 20
57.261052
 30
0.0
 10
43.406771
 20
57.261052
 30
0.0
  0
LWPOLYLINE
  5
17c
100
AcDbEntity
  8
0
 62
7
100
AcDbPolyline
 90
2
 70
1
 10
43.406771
 20
88.261049
 30
0.0
 10
43.406771
 20
88.261049
 30
0.0
  0
LWPOLYLINE
  5
17d
100
AcDbEntity
  8
0
 62
7
100
AcDbPolyline
 90
5
 70
0
 10
110.702110
 20
36.821644
 30
0.0
 10
104.402112
 20
36.821644
 30
0.0
 10
104.402112
 20
30.521653
 30
0.0
 10
110.702110
 20
30.521653
 30
0.0
 10
110.702110
 20
36.821644
 30
0.0
  0
LWPOLYLINE
  5
17e
100
AcDbEntity
  8
0
 62
7
100
AcDbPolyline
 90
5
 70
0
 10
66.083186
 20
36.945229
 30
0.0
 10
59.783185
 20
36.945229
 30
0.0
 10
59.783185
 20
30.645210
 30
0.0
 10
66.083186
 20
30.645210
 30
0.0
 10
66.083186
 20
36.945229
 30
0.0
  0
LWPOLYLINE
  5
17f
100
AcDbEntity
  8
0
 62
7
100
AcDbPolyline
 90
5
 70
0
 10
81.328469
 20
43.297430
 30
0.0
 10
75.028468
 20
43.297430
 30
0.0
 10
75.028468
 20
36.997412
 30
0.0
 10
81.328469
 20
36.997412
 30
0.0
 10
81.328469
 20
43.297430
 30
0.0
  0
LWPOLYLINE
  5
180
100
AcDbEntity
  8
0
 62
7
100
AcDbPolyline
 90
5
 70
0
 10
81.328469
 20
31.736423
 30
0.0
 10
75.028468
 20
31.736423
 30
0.0
 10
75.028468
 20
25.436404
 30
0.0
 10
81.328469
 20
25.436404
 30
0.0
 10
81.328469
 20
31.736423
 30
0.0
  0
LWPOLYLINE
  5
181
100
AcDbEntity
  8
0
 62
7
100
AcDbPolyline
 90
5
 70
0
 10
96.573753
 20
36.945229
 30
0.0
 10
90.273751
 20
36.945229
 30
0.0
 10
90.273751
 20
30.645210
 30
0.0
 10
96.573753
 20
30.645210
 30
0.0
 10
96.573753
 20
36.945229
 30
0.0
  0
LWPOLYLINE
  5
182
100
AcDbEntity
  8
0
 62
7
100
AcDbPolyline
 90
5
 70
0
 10
52.108343
 20
36.945229
 30
0.0
 10
45.808343
 20
36.945229
 30
0.0
 10
45.808343
 20
30.645210
 30
0.0
 10
52.108343
 20
30.645210
 30
0.0
 10
52.108343
 20
36.945229
 30
0.0
  0
LWPOLYLINE
  5
183
100
AcDbEntity
  8
0
 62
7
100
AcDbPolyline
 90
5
 70
0
 10
114.980356
 20
26.876979
 30
0.0
 10
124.780357
 20
26.876979
 30
0.0
 10
124.780357
 20
40.876979
 30
0.0
 10
114.980356
 20
40.876979
 30
0.0
 10
114.980356
 20
26.876979
 30
0.0
  0
LWPOLYLINE
  5
184
100
AcDbEntity
  8
0
 62
7
100
AcDbPolyline
 90
2
 70
0
 10
138.369035
 20
33.401985
 30
0.0
 10
138.369035
 20
67.461043
 30
0.0
  0
LWPOLYLINE
  5
185
100
AcDbEntity
  8
0
 62
7
100
AcDbPolyline
 90
2
 70
0
 10
135.869034
 20
33.401985
 30
0.0
 10
138.369035
 20
33.401985
 30
0.0
  0
LWPOLYLINE
  5
186
100
AcDbEntity
  8
0
 62
7
100
AcDbPolyline
 90
2
 70
0
 10
135.869034
 20
32.801981
 30
0.0
 10
135.869034
 20
33.401985
 30
0.0
  0
LWPOLYLINE
  5
187
100
AcDbEntity
  8
0
 62
7
100
AcDbPolyline
 90
2
 70
0
 10
146.611070
 20
32.801981
 30
0.0
 10
135.869034
 20
32.801981
 30
0.0
  0
LWPOLYLINE
  5
188
100
AcDbEntity
  8
0
 62
7
100
AcDbPolyline
 90
2
 70
0
 10
151.611071
 20
22.801973
 30
0.0
 10
151.611071
 20
27.801991
 30
0.0
  0
LWPOLYLINE
  5
189
100
AcDbEntity
  8
0
 62
7
100
AcDbPolyline
 90
2
 70
0
 10
135.869034
 20
17.801983
 30
0.0
 10
146.611070
 20
17.801983
 30
0.0
  0
LWPOLYLINE
  5
18a
100
AcDbEntity
  8
0
 62
7
100
AcDbPolyline
 90
2
 70
0
 10
135.869034
 20
17.201978
 30
0.0
 10
135.869034
 20
17.801983
 30
0.0
  0
LWPOLYLINE
  5
18b
100
AcDbEntity
  8
0
 62
7
100
AcDbPolyline
 90
2
 70
0
 10
138.369035
 20
17.201978
 30
0.0
 10
135.869034
 20
17.201978
 30
0.0
  0
LWPOLYLINE
  5
18c
100
AcDbEntity
  8
0
 62
7
100
AcDbPolyline
 90
2
 70
0
 10
138.369035
 20
17.201978
 30
0.0
 10
138.369035
 20
7.226975
 30
0.0
  0
LWPOLYLINE
  5
18d
100
AcDbEntity
  8
0
 62
7
100
AcDbPolyline
 90
2
 70
0
 10
136.269036
 20
5.126987
 30
0.0
 10
20.469035
 20
5.126987
 30
0.0
  0
LWPOLYLINE
  5
18e
100
AcDbEntity
  8
0
 62
7
100
AcDbPolyline
 90
2
 70
0
 10
18.369035
 20
7.226975
 30
0.0
 10
18.369035
 20
17.201978
 30
0.0
  0
LWPOLYLINE
  5
18f
100
AcDbEntity
  8
0
 62
7
100
AcDbPolyline
 90
2
 70
0
 10
20.969035
 20
17.201978
 30
0.0
 10
18.369035
 20
17.201978
 30
0.0
  0
LWPOLYLINE
  5
190
100
AcDbEntity
  8
0
 62
7
100
AcDbPolyline
 90
2
 70
0
 10
20.969035
 20
17.801983
 30
0.0
 10
20.969035
 20
17.201978
 30
0.0
  0
LWPOLYLINE
  5
191
100
AcDbEntity
  8
0
 62
7
100
AcDbPolyline
 90
2
 70
0
 10
10.169920
 20
17.801983
 30
0.0
 10
20.969035
 20
17.801983
 30
0.0
  0
LWPOLYLINE
  5
192
100
AcDbEntity
  8
0
 62
7
100
AcDbPolyline
 90
2
 70
0
 10
5.169920
 20
27.801991
 30
0.0
 10
5.169920
 20
22.801973
 30
0.0
  0
LWPOLYLINE
  5
193
100
AcDbEntity
  8
0
 62
7
100
AcDbPolyline
 90
2
 70
0
 10
20.969035
 20
32.801981
 30
0.0
 10
10.169920
 20
32.801981
 30
0.0
  0
LWPOLYLINE
  5
194
100
AcDbEntity
  8
0
 62
7
100
AcDbPolyline
 90
2
 70
0
 10
20.969035
 20
33.401985
 30
0.0
 10
20.969035
 20
32.801981
 30
0.0
  0
LWPOLYLINE
  5
195
100
AcDbEntity
  8
0
 62
7
100
AcDbPolyline
 90
2
 70
0
 10
18.369035
 20
33.401985
 30
0.0
 10
20.969035
 20
33.401985
 30
0.0
  0
LWPOLYLINE
  5
196
100
AcDbEntity
  8
0
 62
7
100
AcDbPolyline
 90
2
 70
0
 10
18.369035
 20
67.461043
 30
0.0
 10
18.369035
 20
33.401985
 30
0.0
  0
LWPOLYLINE
  5
197
100
AcDbEntity
  8
0
 62
7
100
AcDbPolyline
 90
4
 70
0
 10
18.369035
 20
67.461043
 30
0.0
 10
20.869035
 20
67.461043
 30
0.0
 10
20.869035
 20
68.061047
 30
0.0
 10
10.127000
 20
68.061047
 30
0.0
  0
LWPOLYLINE
  5
198
100
AcDbEntity
  8
0
 62
7
100
AcDbPolyline
 90
2
 70
0
 10
5.127000
 20
78.061047
 30
0.0
 10
5.127000
 20
73.061048
 30
0.0
  0
LWPOLYLINE
  5
199
100
AcDbEntity
  8
0
 62
7
100
AcDbPolyline
 90
4
 70
0
 10
10.127000
 20
83.061048
 30
0.0
 10
20.869035
 20
83.061048
 30
0.0
 10
20.869035
 20
83.661047
 30
0.0
 10
18.369035
 20
83.661047
 30
0.0
  0
LWPOLYLINE
  5
19a
100
AcDbEntity
  8
0
 62
7
100
AcDbPolyline
 90
2
 70
0
 10
18.369035
 20
223.945117
 30
0.0
 10
18.369035
 20
83.661047
 30
0.0
  0
LWPOLYLINE
  5
19b
100
AcDbEntity
  8
0
 62
7
100
AcDbPolyline
 90
2
 70
0
 10
20.869035
 20
223.945117
 30
0.0
 10
18.369035
 20
223.945117
 30
0.0
  0
LWPOLYLINE
  5
19c
100
AcDbEntity
  8
0
 62
7
100
AcDbPolyline
 90
2
 70
0
 10
20.869035
 20
224.545119
 30
0.0
 10
20.869035
 20
223.945117
 30
0.0
  0
LWPOLYLINE
  5
19d
100
AcDbEntity
  8
0
 62
7
100
AcDbPolyline
 90
2
 70
0
 10
10.127000
 20
224.545119
 30
0.0
 10
20.869035
 20
224.545119
 30
0.0
  0
LWPOLYLINE
  5
19e
100
AcDbEntity
  8
0
 62
7
100
AcDbPolyline
 90
2
 70
0
 10
5.127000
 20
275.495117
 30
0.0
 10
5.127000
 20
229.545117
 30
0.0
  0
LWPOLYLINE
  5
19f
100
AcDbEntity
  8
0
 62
7
100
AcDbPolyline
 90
2
 70
0
 10
20.869035
 20
280.495118
 30
0.0
 10
10.127000
 20
280.495118
 30
0.0
  0
LWPOLYLINE
  5
1a0
100
AcDbEntity
  8
0
 62
7
100
AcDbPolyline
 90
2
 70
0
 10
20.869035
 20
281.095117
 30
0.0
 10
20.869035
 20
280.495118
 30
0.0
  0
LWPOLYLINE
  5
1a1
100
AcDbEntity
  8
0
 62
7
100
AcDbPolyline
 90
2
 70
0
 10
18.369035
 20
281.095117
 30
0.0
 10
20.869035
 20
281.095117
 30
0.0
  0
LWPOLYLINE
  5
1a2
100
AcDbEntity
  8
0
 62
7
100
AcDbPolyline
 90
12
 70
0
 10
18.369035
 20
281.095117
 30
0.0
 10
18.369035
 20
300.579189
 30
0.0
 10
27.769035
 20
300.579189
 30
0.0
 10
27.769035
 20
286.495118
 30
0.0
 10
28.369035
 20
286.495118
 30
0.0
 10
28.369035
 20
287.995118
 30
0.0
 10
128.369035
 20
287.995118
 30
0.0
 10
128.369035
 20
286.695117
 30
0.0
 10
128.969034
 20
286.695117
 30
0.0
 10
128.969034
 20
300.779189
 30
0.0
 10
138.369035
 20
300.779189
 30
0.0
 10
138.369035
 20
281.095117
 30
0.0
  0
LWPOLYLINE
  5
1a3
100
AcDbEntity
  8
0
 62
7
100
AcDbPolyline
 90
2
 70
0
 10
135.869034
 20
281.095117
 30
0.0
 10
138.369035
 20
281.095117
 30
0.0
  0
LWPOLYLINE
  5
1a4
100
AcDbEntity
  8
0
 62
7
100
AcDbPolyline
 90
2
 70
0
 10
135.869034
 20
280.495118
 30
0.0
 10
135.869034
 20
281.095117
 30
0.0
  0
LWPOLYLINE
  5
1a5
100
AcDbEntity
  8
0
 62
7
100
AcDbPolyline
 90
2
 70
0
 10
146.611070
 20
280.495118
 30
0.0
 10
135.869034
 20
280.495118
 30
0.0
  0
LWPOLYLINE
  5
1a6
100
AcDbEntity
  8
0
 62
7
100
AcDbPolyline
 90
2
 70
0
 10
151.611071
 20
229.545117
 30
0.0
 10
151.611071
 20
275.495117
 30
0.0
  0
LWPOLYLINE
  5
1a7
100
AcDbEntity
  8
0
 62
7
100
AcDbPolyline
 90
2
 70
0
 10
135.869034
 20
224.545119
 30
0.0
 10
146.611070
 20
224.545119
 30
0.0
  0
LWPOLYLINE
  5
1a8
100
AcDbEntity
  8
0
 62
7
100
AcDbPolyline
 90
2
 70
0
 10
135.869034
 20
223.945117
 30
0.0
 10
135.869034
 20
224.545119
 30
0.0
  0
LWPOLYLINE
  5
1a9
100
AcDbEntity
  8
0
 62
7
100
AcDbPolyline
 90
2
 70
0
 10
138.369035
 20
223.945117
 30
0.0
 10
135.869034
 20
223.945117
 30
0.0
  0
LWPOLYLINE
  5
1aa
100
AcDbEntity
  8
0
 62
7
100
AcDbPolyline
 90
2
 70
0
 10
138.369035
 20
83.661047
 30
0.0
 10
138.369035
 20
223.945117
 30
0.0
  0
LWPOLYLINE
  5
1ab
100
AcDbEntity
  8
0
 62
7
100
AcDbPolyline
 90
4
 70
0
 10
138.369035
 20
83.661047
 30
0.0
 10
135.869034
 20
83.661047
 30
0.0
 10
135.869034
 20
83.061048
 30
0.0
 10
146.611070
 20
83.061048
 30
0.0
  0
LWPOLYLINE
  5
1ac
100
AcDbEntity
  8
0
 62
7
100
AcDbPolyline
 90
2
 70
0
 10
151.611071
 20
73.061048
 30
0.0
 10
151.611071
 20
78.061047
 30
0.0
  0
SPLINE
  5
1ad
100
AcDbEntity
  8
0
 62
7
100
AcDbSpline
 70
8
 71
3
 72
8
 73
4
 74
0
 40
0
 40
0
 40
0
 40
0
 40
1
 40
1
 40
1
 40
1
 10
151.611071
 20
27.801991
 30
0.0
 10
151.611065
 20
30.563411
 30
0.0
 10
149.372490
 20
32.801982
 30
0.0
 10
146.611070
 20
32.801981
 30
0.0
  0
SPLINE
  5
1ae
100
AcDbEntity
  8
0
 62
7
100
AcDbSpline
 70
8
 71
3
 72
8
 73
4
 74
0
 40
0
 40
0
 40
0
 40
0
 40
1
 40
1
 40
1
 40
1
 10
146.611070
 20
17.801983
 30
0.0
 10
149.372490
 20
17.801982
 30
0.0
 10
151.611065
 20
20.040552
 30
0.0
 10
151.611071
 20
22.801973
 30
0.0
  0
SPLINE
  5
1af
100
AcDbEntity
  8
0
 62
7
100
AcDbSpline
 70
8
 71
3
 72
8
 73
4
 74
0
 40
0
 40
0
 40
0
 40
0
 40
1
 40
1
 40
1
 40
1
 10
136.269036
 20
5.126987
 30
0.0
 10
137.428829
 20
5.126988
 30
0.0
 10
138.369028
 20
6.067182
 30
0.0
 10
138.369035
 20
7.226975
 30
0.0
  0
SPLINE
  5
1b0
100
AcDbEntity
  8
0
 62
7
100
AcDbSpline
 70
8
 71
3
 72
8
 73
4
 74
0
 40
0
 40
0
 40
0
 40
0
 40
1
 40
1
 40
1
 40
1
 10
18.369035
 20
7.226975
 30
0.0
 10
18.369042
 20
6.067182
 30
0.0
 10
19.309242
 20
5.126987
 30
0.0
 10
20.469035
 20
5.126987
 30
0.0
  0
SPLINE
  5
1b1
100
AcDbEntity
  8
0
 62
7
100
AcDbSpline
 70
8
 71
3
 72
8
 73
4
 74
0
 40
0
 40
0
 40
0
 40
0
 40
1
 40
1
 40
1
 40
1
 10
5.169920
 20
22.801973
 30
0.0
 10
5.169926
 20
20.040553
 30
0.0
 10
7.408500
 20
17.801983
 30
0.0
 10
10.169920
 20
17.801983
 30
0.0
  0
SPLINE
  5
1b2
100
AcDbEntity
  8
0
 62
7
100
AcDbSpline
 70
8
 71
3
 72
8
 73
4
 74
0
 40
0
 40
0
 40
0
 40
0
 40
1
 40
1
 40
1
 40
1
 10
10.169920
 20
32.801981
 30
0.0
 10
7.408500
 20
32.801981
 30
0.0
 10
5.169926
 20
30.563411
 30
0.0
 10
5.169920
 20
27.801991
 30
0.0
  0
SPLINE
  5
1b3
100
AcDbEntity
  8
0
 62
7
100
AcDbSpline
 70
8
 71
3
 72
8
 73
4
 74
0
 40
0
 40
0
 40
0
 40
0
 40
1
 40
1
 40
1
 40
1
 10
5.127000
 20
73.061048
 30
0.0
 10
5.127000
 20
71.734966
 30
0.0
 10
5.653784
 20
70.463196
 30
0.0
 10
6.591465
 20
69.525514
 30
0.0
  0
SPLINE
  5
1b4
100
AcDbEntity
  8
0
 62
7
100
AcDbSpline
 70
8
 71
3
 72
8
 73
4
 74
0
 40
0
 40
0
 40
0
 40
0
 40
1
 40
1
 40
1
 40
1
 10
6.591465
 20
69.525514
 30
0.0
 10
7.529147
 20
68.587832
 30
0.0
 10
8.800917
 20
68.061047
 30
0.0
 10
10.127000
 20
68.061047
 30
0.0
  0
SPLINE
  5
1b5
100
AcDbEntity
  8
0
 62
7
100
AcDbSpline
 70
8
 71
3
 72
8
 73
4
 74
0
 40
0
 40
0
 40
0
 40
0
 40
1
 40
1
 40
1
 40
1
 10
10.127000
 20
83.061048
 30
0.0
 10
8.800917
 20
83.061048
 30
0.0
 10
7.529147
 20
82.534264
 30
0.0
 10
6.591465
 20
81.596582
 30
0.0
  0
SPLINE
  5
1b6
100
AcDbEntity
  8
0
 62
7
100
AcDbSpline
 70
8
 71
3
 72
8
 73
4
 74
0
 40
0
 40
0
 40
0
 40
0
 40
1
 40
1
 40
1
 40
1
 10
6.591465
 20
81.596582
 30
0.0
 10
5.653784
 20
80.658900
 30
0.0
 10
5.127000
 20
79.387130
 30
0.0
 10
5.127000
 20
78.061047
 30
0.0
  0
SPLINE
  5
1b7
100
AcDbEntity
  8
0
 62
7
100
AcDbSpline
 70
8
 71
3
 72
8
 73
4
 74
0
 40
0
 40
0
 40
0
 40
0
 40
1
 40
1
 40
1
 40
1
 10
5.127000
 20
229.545117
 30
0.0
 10
5.127001
 20
226.783694
 30
0.0
 10
7.365577
 20
224.545119
 30
0.0
 10
10.127000
 20
224.545119
 30
0.0
  0
SPLINE
  5
1b8
100
AcDbEntity
  8
0
 62
7
100
AcDbSpline
 70
8
 71
3
 72
8
 73
4
 74
0
 40
0
 40
0
 40
0
 40
0
 40
1
 40
1
 40
1
 40
1
 10
10.127000
 20
280.495118
 30
0.0
 10
8.800917
 20
280.495118
 30
0.0
 10
7.529147
 20
279.968334
 30
0.0
 10
6.591465
 20
279.030652
 30
0.0
  0
SPLINE
  5
1b9
100
AcDbEntity
  8
0
 62
7
100
AcDbSpline
 70
8
 71
3
 72
8
 73
4
 74
0
 40
0
 40
0
 40
0
 40
0
 40
1
 40
1
 40
1
 40
1
 10
6.591465
 20
279.030652
 30
0.0
 10
5.653784
 20
278.092970
 30
0.0
 10
5.127000
 20
276.821200
 30
0.0
 10
5.127000
 20
275.495117
 30
0.0
  0
SPLINE
  5
1ba
100
AcDbEntity
  8
0
 62
7
100
AcDbSpline
 70
8
 71
3
 72
8
 73
4
 74
0
 40
0
 40
0
 40
0
 40
0
 40
1
 40
1
 40
1
 40
1
 10
151.611071
 20
275.495117
 30
0.0
 10
151.611071
 20
276.821200
 30
0.0
 10
151.084287
 20
278.092970
 30
0.0
 10
150.146605
 20
279.030652
 30
0.0
  0
SPLINE
  5
1bb
100
AcDbEntity
  8
0
 62
7
100
AcDbSpline
 70
8
 71
3
 72
8
 73
4
 74
0
 40
0
 40
0
 40
0
 40
0
 40
1
 40
1
 40
1
 40
1
 10
150.146605
 20
279.030652
 30
0.0
 10
149.208923
 20
279.968335
 30
0.0
 10
147.937153
 20
280.495119
 30
0.0
 10
146.611070
 20
280.495118
 30
0.0
  0
SPLINE
  5
1bc
100
AcDbEntity
  8
0
 62
7
100
AcDbSpline
 70
8
 71
3
 72
8
 73
4
 74
0
 40
0
 40
0
 40
0
 40
0
 40
1
 40
1
 40
1
 40
1
 10
146.611070
 20
224.545119
 30
0.0
 10
147.937152
 20
224.545118
 30
0.0
 10
149.208922
 20
225.071902
 30
0.0
 10
150.146604
 20
226.009584
 30
0.0
  0
SPLINE
  5
1bd
100
AcDbEntity
  8
0
 62
7
100
AcDbSpline
 70
8
 71
3
 72
8
 73
4
 74
0
 40
0
 40
0
 40
0
 40
0
 40
1
 40
1
 40
1
 40
1
 10
150.146604
 20
226.009584
 30
0.0
 10
151.084286
 20
226.947266
 30
0.0
 10
151.611071
 20
228.219035
 30
0.0
 10
151.611071
 20
229.545117
 30
0.0
  0
SPLINE
  5
1be
100
AcDbEntity
  8
0
 62
7
100
AcDbSpline
 70
8
 71
3
 72
8
 73
4
 74
0
 40
0
 40
0
 40
0
 40
0
 40
1
 40
1
 40
1
 40
1
 10
151.611071
 20
78.061047
 30
0.0
 10
151.611071
 20
79.387130
 30
0.0
 10
151.084287
 20
80.658900
 30
0.0
 10
150.146605
 20
81.596582
 30
0.0
  0
SPLINE
  5
1bf
100
AcDbEntity
  8
0
 62
7
100
AcDbSpline
 70
8
 71
3
 72
8
 73
4
 74
0
 40
0
 40
0
 40
0
 40
0
 40
1
 40
1
 40
1
 40
1
 10
150.146605
 20
81.596582
 30
0.0
 10
149.208923
 20
82.534264
 30
0.0
 10
147.937153
 20
83.061049
 30
0.0
 10
146.611070
 20
83.061048
 30
0.0
  0
SPLINE
  5
1c0
100
AcDbEntity
  8
0
 62
7
100
AcDbSpline
 70
8
 71
3
 72
8
 73
4
 74
0
 40
0
 40
0
 40
0
 40
0
 40
1
 40
1
 40
1
 40
1
 10
146.611070
 20
68.061047
 30
0.0
 10
147.937153
 20
68.061047
 30
0.0
 10
149.208923
 20
68.587831
 30
0.0
 10
150.146605
 20
69.525513
 30
0.0
  0
SPLINE
  5
1c1
100
AcDbEntity
  8
0
 62
7
100
AcDbSpline
 70
8
 71
3
 72
8
 73
4
 74
0
 40
0
 40
0
 40
0
 40
0
 40
1
 40
1
 40
1
 40
1
 10
150.146605
 20
69.525513
 30
0.0
 10
151.084287
 20
70.463195
 30
0.0
 10
151.611071
 20
71.734966
 30
0.0
 10
151.611071
 20
73.061048
 30
0.0
  0
SPLINE
  5
1c2
100
AcDbEntity
  8
0
 62
1
100
AcDbSpline
 70
8
 71
3
 72
8
 73
4
 74
0
 40
0
 40
0
 40
0
 40
0
 40
1
 40
1
 40
1
 40
1
 10
35.112266
 20
81.915082
 30
0.0
 10
35.112601
 20
82.469066
 30
0.0
 10
34.817245
 20
82.981112
 30
0.0
 10
34.337537
 20
83.258201
 30
0.0
  0
SPLINE
  5
1c3
100
AcDbEntity
  8
0
 62
1
100
AcDbSpline
 70
8
 71
3
 72
8
 73
4
 74
0
 40
0
 40
0
 40
0
 40
0
 40
1
 40
1
 40
1
 40
1
 10
34.337537
 20
83.258201
 30
0.0
 10
33.857828
 20
83.535290
 30
0.0
 10
33.266705
 20
83.535290
 30
0.0
 10
32.786997
 20
83.258201
 30
0.0
  0
SPLINE
  5
1c4
100
AcDbEntity
  8
0
 62
1
100
AcDbSpline
 70
8
 71
3
 72
8
 73
4
 74
0
 40
0
 40
0
 40
0
 40
0
 40
1
 40
1
 40
1
 40
1
 10
32.786997
 20
83.258201
 30
0.0
 10
32.307288
 20
82.981112
 30
0.0
 10
32.011933
 20
82.469066
 30
0.0
 10
32.012267
 20
81.915082
 30
0.0
  0
SPLINE
  5
1c5
100
AcDbEntity
  8
0
 62
1
100
AcDbSpline
 70
8
 71
3
 72
8
 73
4
 74
0
 40
0
 40
0
 40
0
 40
0
 40
1
 40
1
 40
1
 40
1
 10
32.012267
 20
81.915082
 30
0.0
 10
32.011933
 20
81.361098
 30
0.0
 10
32.307288
 20
80.849052
 30
0.0
 10
32.786997
 20
80.571963
 30
0.0
  0
SPLINE
  5
1c6
100
AcDbEntity
  8
0
 62
1
100
AcDbSpline
 70
8
 71
3
 72
8
 73
4
 74
0
 40
0
 40
0
 40
0
 40
0
 40
1
 40
1
 40
1
 40
1
 10
32.786997
 20
80.571963
 30
0.0
 10
33.266705
 20
80.294875
 30
0.0
 10
33.857828
 20
80.294875
 30
0.0
 10
34.337537
 20
80.571963
 30
0.0
  0
SPLINE
  5
1c7
100
AcDbEntity
  8
0
 62
1
100
AcDbSpline
 70
8
 71
3
 72
8
 73
4
 74
0
 40
0
 40
0
 40
0
 40
0
 40
1
 40
1
 40
1
 40
1
 10
34.337537
 20
80.571963
 30
0.0
 10
34.817245
 20
80.849052
 30
0.0
 10
35.112601
 20
81.361098
 30
0.0
 10
35.112266
 20
81.915082
 30
0.0
  0
LWPOLYLINE
  5
1c8
100
AcDbEntity
  8
0
 62
7
100
AcDbPolyline
 90
4
 70
0
 10
146.611070
 20
68.061047
 30
0.0
 10
135.869034
 20
68.061047
 30
0.0
 10
135.869034
 20
67.461043
 30
0.0
 10
138.369035
 20
67.461043
 30
0.0
  0
SPLINE
  5
1c9
100
AcDbEntity
  8
0
 62
1
100
AcDbSpline
 70
8
 71
3
 72
8
 73
4
 74
0
 40
0
 40
0
 40
0
 40
0
 40
1
 40
1
 40
1
 40
1
 10
35.112266
 20
75.435853
 30
0.0
 10
35.112601
 20
75.989837
 30
0.0
 10
34.817245
 20
76.501883
 30
0.0
 10
34.337537
 20
76.778971
 30
0.0
  0
SPLINE
  5
1ca
100
AcDbEntity
  8
0
 62
1
100
AcDbSpline
 70
8
 71
3
 72
8
 73
4
 74
0
 40
0
 40
0
 40
0
 40
0
 40
1
 40
1
 40
1
 40
1
 10
34.337537
 20
76.778971
 30
0.0
 10
33.857828
 20
77.056060
 30
0.0
 10
33.266705
 20
77.056060
 30
0.0
 10
32.786997
 20
76.778971
 30
0.0
  0
SPLINE
  5
1cb
100
AcDbEntity
  8
0
 62
1
100
AcDbSpline
 70
8
 71
3
 72
8
 73
4
 74
0
 40
0
 40
0
 40
0
 40
0
 40
1
 40
1
 40
1
 40
1
 10
32.786997
 20
76.778971
 30
0.0
 10
32.307288
 20
76.501883
 30
0.0
 10
32.011933
 20
75.989837
 30
0.0
 10
32.012267
 20
75.435853
 30
0.0
  0
SPLINE
  5
1cc
100
AcDbEntity
  8
0
 62
1
100
AcDbSpline
 70
8
 71
3
 72
8
 73
4
 74
0
 40
0
 40
0
 40
0
 40
0
 40
1
 40
1
 40
1
 40
1
 10
32.012267
 20
75.435853
 30
0.0
 10
32.011933
 20
74.881868
 30
0.0
 10
32.307288
 20
74.369822
 30
0.0
 10
32.786997
 20
74.092734
 30
0.0
  0
SPLINE
  5
1cd
100
AcDbEntity
  8
0
 62
1
100
AcDbSpline
 70
8
 71
3
 72
8
 73
4
 74
0
 40
0
 40
0
 40
0
 40
0
 40
1
 40
1
 40
1
 40
1
 10
32.786997
 20
74.092734
 30
0.0
 10
33.266705
 20
73.815645
 30
0.0
 10
33.857828
 20
73.815645
 30
0.0
 10
34.337537
 20
74.092734
 30
0.0
  0
SPLINE
  5
1ce
100
AcDbEntity
  8
0
 62
1
100
AcDbSpline
 70
8
 71
3
 72
8
 73
4
 74
0
 40
0
 40
0
 40
0
 40
0
 40
1
 40
1
 40
1
 40
1
 10
34.337537
 20
74.092734
 30
0.0
 10
34.817245
 20
74.369822
 30
0.0
 10
35.112601
 20
74.881868
 30
0.0
 10
35.112266
 20
75.435853
 30
0.0
  0
LWPOLYLINE
  5
1cf
100
AcDbEntity
  8
0
 62
1
100
AcDbPolyline
 90
2
 70
1
 10
35.112266
 20
81.915082
 30
0.0
 10
35.112266
 20
81.915082
 30
0.0
  0
SPLINE
  5
1d0
100
AcDbEntity
  8
0
 62
1
100
AcDbSpline
 70
8
 71
3
 72
8
 73
4
 74
0
 40
0
 40
0
 40
0
 40
0
 40
1
 40
1
 40
1
 40
1
 10
35.112266
 20
69.083651
 30
0.0
 10
35.112601
 20
69.637636
 30
0.0
 10
34.817245
 20
70.149681
 30
0.0
 10
34.337537
 20
70.426770
 30
0.0
  0
SPLINE
  5
1d1
100
AcDbEntity
  8
0
 62
1
100
AcDbSpline
 70
8
 71
3
 72
8
 73
4
 74
0
 40
0
 40
0
 40
0
 40
0
 40
1
 40
1
 40
1
 40
1
 10
34.337537
 20
70.426770
 30
0.0
 10
33.857828
 20
70.703859
 30
0.0
 10
33.266705
 20
70.703859
 30
0.0
 10
32.786997
 20
70.426770
 30
0.0
  0
SPLINE
  5
1d2
100
AcDbEntity
  8
0
 62
1
100
AcDbSpline
 70
8
 71
3
 72
8
 73
4
 74
0
 40
0
 40
0
 40
0
 40
0
 40
1
 40
1
 40
1
 40
1
 10
32.786997
 20
70.426770
 30
0.0
 10
32.307288
 20
70.149681
 30
0.0
 10
32.011933
 20
69.637636
 30
0.0
 10
32.012267
 20
69.083651
 30
0.0
  0
SPLINE
  5
1d3
100
AcDbEntity
  8
0
 62
1
100
AcDbSpline
 70
8
 71
3
 72
8
 73
4
 74
0
 40
0
 40
0
 40
0
 40
0
 40
1
 40
1
 40
1
 40
1
 10
32.012267
 20
69.083651
 30
0.0
 10
32.011933
 20
68.529667
 30
0.0
 10
32.307288
 20
68.017621
 30
0.0
 10
32.786997
 20
67.740532
 30
0.0
  0
SPLINE
  5
1d4
100
AcDbEntity
  8
0
 62
1
100
AcDbSpline
 70
8
 71
3
 72
8
 73
4
 74
0
 40
0
 40
0
 40
0
 40
0
 40
1
 40
1
 40
1
 40
1
 10
32.786997
 20
67.740532
 30
0.0
 10
33.266705
 20
67.463444
 30
0.0
 10
33.857828
 20
67.463444
 30
0.0
 10
34.337537
 20
67.740532
 30
0.0
  0
SPLINE
  5
1d5
100
AcDbEntity
  8
0
 62
1
100
AcDbSpline
 70
8
 71
3
 72
8
 73
4
 74
0
 40
0
 40
0
 40
0
 40
0
 40
1
 40
1
 40
1
 40
1
 10
34.337537
 20
67.740532
 30
0.0
 10
34.817245
 20
68.017621
 30
0.0
 10
35.112601
 20
68.529667
 30
0.0
 10
35.112266
 20
69.083651
 30
0.0
  0
LWPOLYLINE
  5
1d6
100
AcDbEntity
  8
0
 62
1
100
AcDbPolyline
 90
2
 70
1
 10
35.112266
 20
75.435853
 30
0.0
 10
35.112266
 20
75.435853
 30
0.0
  0
SPLINE
  5
1d7
100
AcDbEntity
  8
0
 62
1
100
AcDbSpline
 70
8
 71
3
 72
8
 73
4
 74
0
 40
0
 40
0
 40
0
 40
0
 40
1
 40
1
 40
1
 40
1
 10
35.112266
 20
62.731450
 30
0.0
 10
35.112601
 20
63.285434
 30
0.0
 10
34.817245
 20
63.797480
 30
0.0
 10
34.337537
 20
64.074569
 30
0.0
  0
SPLINE
  5
1d8
100
AcDbEntity
  8
0
 62
1
100
AcDbSpline
 70
8
 71
3
 72
8
 73
4
 74
0
 40
0
 40
0
 40
0
 40
0
 40
1
 40
1
 40
1
 40
1
 10
34.337537
 20
64.074569
 30
0.0
 10
33.857828
 20
64.351657
 30
0.0
 10
33.266705
 20
64.351657
 30
0.0
 10
32.786997
 20
64.074569
 30
0.0
  0
SPLINE
  5
1d9
100
AcDbEntity
  8
0
 62
1
100
AcDbSpline
 70
8
 71
3
 72
8
 73
4
 74
0
 40
0
 40
0
 40
0
 40
0
 40
1
 40
1
 40
1
 40
1
 10
32.786997
 20
64.074569
 30
0.0
 10
32.307288
 20
63.797480
 30
0.0
 10
32.011933
 20
63.285434
 30
0.0
 10
32.012267
 20
62.731450
 30
0.0
  0
SPLINE
  5
1da
100
AcDbEntity
  8
0
 62
1
100
AcDbSpline
 70
8
 71
3
 72
8
 73
4
 74
0
 40
0
 40
0
 40
0
 40
0
 40
1
 40
1
 40
1
 40
1
 10
32.012267
 20
62.731450
 30
0.0
 10
32.011933
 20
62.177466
 30
0.0
 10
32.307288
 20
61.665420
 30
0.0
 10
32.786997
 20
61.388331
 30
0.0
  0
SPLINE
  5
1db
100
AcDbEntity
  8
0
 62
1
100
AcDbSpline
 70
8
 71
3
 72
8
 73
4
 74
0
 40
0
 40
0
 40
0
 40
0
 40
1
 40
1
 40
1
 40
1
 10
32.786997
 20
61.388331
 30
0.0
 10
33.266705
 20
61.111242
 30
0.0
 10
33.857828
 20
61.111242
 30
0.0
 10
34.337537
 20
61.388331
 30
0.0
  0
SPLINE
  5
1dc
100
AcDbEntity
  8
0
 62
1
100
AcDbSpline
 70
8
 71
3
 72
8
 73
4
 74
0
 40
0
 40
0
 40
0
 40
0
 40
1
 40
1
 40
1
 40
1
 10
34.337537
 20
61.388331
 30
0.0
 10
34.817245
 20
61.665420
 30
0.0
 10
35.112601
 20
62.177466
 30
0.0
 10
35.112266
 20
62.731450
 30
0.0
  0
LWPOLYLINE
  5
1dd
100
AcDbEntity
  8
0
 62
1
100
AcDbPolyline
 90
2
 70
1
 10
35.112266
 20
69.083651
 30
0.0
 10
35.112266
 20
69.083651
 30
0.0
  0
SPLINE
  5
1de
100
AcDbEntity
  8
0
 62
1
100
AcDbSpline
 70
8
 71
3
 72
8
 73
4
 74
0
 40
0
 40
0
 40
0
 40
0
 40
1
 40
1
 40
1
 40
1
 10
43.411855
 20
57.276046
 30
0.0
 10
43.411855
 20
57.847672
 30
0.0
 10
43.106896
 20
58.375875
 30
0.0
 10
42.611854
 20
58.661688
 30
0.0
  0
SPLINE
  5
1df
100
AcDbEntity
  8
0
 62
1
100
AcDbSpline
 70
8
 71
3
 72
8
 73
4
 74
0
 40
0
 40
0
 40
0
 40
0
 40
1
 40
1
 40
1
 40
1
 10
42.611854
 20
58.661688
 30
0.0
 10
42.116812
 20
58.947501
 30
0.0
 10
41.506895
 20
58.947501
 30
0.0
 10
41.011853
 20
58.661688
 30
0.0
  0
SPLINE
  5
1e0
100
AcDbEntity
  8
0
 62
1
100
AcDbSpline
 70
8
 71
3
 72
8
 73
4
 74
0
 40
0
 40
0
 40
0
 40
0
 40
1
 40
1
 40
1
 40
1
 10
41.011853
 20
58.661688
 30
0.0
 10
40.516811
 20
58.375875
 30
0.0
 10
40.211852
 20
57.847672
 30
0.0
 10
40.211853
 20
57.276046
 30
0.0
  0
SPLINE
  5
1e1
100
AcDbEntity
  8
0
 62
1
100
AcDbSpline
 70
8
 71
3
 72
8
 73
4
 74
0
 40
0
 40
0
 40
0
 40
0
 40
1
 40
1
 40
1
 40
1
 10
40.211853
 20
57.276046
 30
0.0
 10
40.211853
 20
56.392390
 30
0.0
 10
40.928197
 20
55.676045
 30
0.0
 10
41.811854
 20
55.676045
 30
0.0
  0
SPLINE
  5
1e2
100
AcDbEntity
  8
0
 62
1
100
AcDbSpline
 70
8
 71
3
 72
8
 73
4
 74
0
 40
0
 40
0
 40
0
 40
0
 40
1
 40
1
 40
1
 40
1
 10
41.811854
 20
55.676045
 30
0.0
 10
42.695510
 20
55.676045
 30
0.0
 10
43.411854
 20
56.392390
 30
0.0
 10
43.411855
 20
57.276046
 30
0.0
  0
LWPOLYLINE
  5
1e3
100
AcDbEntity
  8
0
 62
1
100
AcDbPolyline
 90
2
 70
1
 10
35.112266
 20
62.731450
 30
0.0
 10
35.112266
 20
62.731450
 30
0.0
  0
SPLINE
  5
1e4
100
AcDbEntity
  8
0
 62
1
100
AcDbSpline
 70
8
 71
3
 72
8
 73
4
 74
0
 40
0
 40
0
 40
0
 40
0
 40
1
 40
1
 40
1
 40
1
 10
43.411855
 20
88.276041
 30
0.0
 10
43.411855
 20
88.847666
 30
0.0
 10
43.106896
 20
89.375870
 30
0.0
 10
42.611854
 20
89.661682
 30
0.0
  0
SPLINE
  5
1e5
100
AcDbEntity
  8
0
 62
1
100
AcDbSpline
 70
8
 71
3
 72
8
 73
4
 74
0
 40
0
 40
0
 40
0
 40
0
 40
1
 40
1
 40
1
 40
1
 10
42.611854
 20
89.661682
 30
0.0
 10
42.116812
 20
89.947495
 30
0.0
 10
41.506895
 20
89.947495
 30
0.0
 10
41.011853
 20
89.661682
 30
0.0
  0
SPLINE
  5
1e6
100
AcDbEntity
  8
0
 62
1
100
AcDbSpline
 70
8
 71
3
 72
8
 73
4
 74
0
 40
0
 40
0
 40
0
 40
0
 40
1
 40
1
 40
1
 40
1
 10
41.011853
 20
89.661682
 30
0.0
 10
40.516811
 20
89.375870
 30
0.0
 10
40.211852
 20
88.847666
 30
0.0
 10
40.211853
 20
88.276041
 30
0.0
  0
SPLINE
  5
1e7
100
AcDbEntity
  8
0
 62
1
100
AcDbSpline
 70
8
 71
3
 72
8
 73
4
 74
0
 40
0
 40
0
 40
0
 40
0
 40
1
 40
1
 40
1
 40
1
 10
40.211853
 20
88.276041
 30
0.0
 10
40.211853
 20
87.392385
 30
0.0
 10
40.928197
 20
86.676040
 30
0.0
 10
41.811854
 20
86.676040
 30
0.0
  0
SPLINE
  5
1e8
100
AcDbEntity
  8
0
 62
1
100
AcDbSpline
 70
8
 71
3
 72
8
 73
4
 74
0
 40
0
 40
0
 40
0
 40
0
 40
1
 40
1
 40
1
 40
1
 10
41.811854
 20
86.676040
 30
0.0
 10
42.695510
 20
86.676040
 30
0.0
 10
43.411854
 20
87.392385
 30
0.0
 10
43.411855
 20
88.276041
 30
0.0
  0
LWPOLYLINE
  5
1e9
100
AcDbEntity
  8
0
 62
1
100
AcDbPolyline
 90
2
 70
1
 10
43.411855
 20
57.276046
 30
0.0
 10
43.411855
 20
57.276046
 30
0.0
  0
SPLINE
  5
1ea
100
AcDbEntity
  8
0
 62
1
100
AcDbSpline
 70
8
 71
3
 72
8
 73
4
 74
0
 40
0
 40
0
 40
0
 40
0
 40
1
 40
1
 40
1
 40
1
 10
118.411854
 20
57.276046
 30
0.0
 10
118.412194
 20
57.847897
 30
0.0
 10
118.107310
 20
58.376455
 30
0.0
 10
117.612129
 20
58.662479
 30
0.0
  0
SPLINE
  5
1eb
100
AcDbEntity
  8
0
 62
1
100
AcDbSpline
 70
8
 71
3
 72
8
 73
4
 74
0
 40
0
 40
0
 40
0
 40
0
 40
1
 40
1
 40
1
 40
1
 10
117.612129
 20
58.662479
 30
0.0
 10
117.116948
 20
58.948502
 30
0.0
 10
116.506761
 20
58.948502
 30
0.0
 10
116.011580
 20
58.662479
 30
0.0
  0
SPLINE
  5
1ec
100
AcDbEntity
  8
0
 62
1
100
AcDbSpline
 70
8
 71
3
 72
8
 73
4
 74
0
 40
0
 40
0
 40
0
 40
0
 40
1
 40
1
 40
1
 40
1
 10
116.011580
 20
58.662479
 30
0.0
 10
115.516399
 20
58.376455
 30
0.0
 10
115.211515
 20
57.847897
 30
0.0
 10
115.211855
 20
57.276046
 30
0.0
  0
SPLINE
  5
1ed
100
AcDbEntity
  8
0
 62
1
100
AcDbSpline
 70
8
 71
3
 72
8
 73
4
 74
0
 40
0
 40
0
 40
0
 40
0
 40
1
 40
1
 40
1
 40
1
 10
115.211855
 20
57.276046
 30
0.0
 10
115.211515
 20
56.704195
 30
0.0
 10
115.516399
 20
56.175638
 30
0.0
 10
116.011580
 20
55.889614
 30
0.0
  0
SPLINE
  5
1ee
100
AcDbEntity
  8
0
 62
1
100
AcDbSpline
 70
8
 71
3
 72
8
 73
4
 74
0
 40
0
 40
0
 40
0
 40
0
 40
1
 40
1
 40
1
 40
1
 10
116.011580
 20
55.889614
 30
0.0
 10
116.506761
 20
55.603590
 30
0.0
 10
117.116948
 20
55.603590
 30
0.0
 10
117.612129
 20
55.889614
 30
0.0
  0
SPLINE
  5
1ef
100
AcDbEntity
  8
0
 62
1
100
AcDbSpline
 70
8
 71
3
 72
8
 73
4
 74
0
 40
0
 40
0
 40
0
 40
0
 40
1
 40
1
 40
1
 40
1
 10
117.612129
 20
55.889614
 30
0.0
 10
118.107310
 20
56.175638
 30
0.0
 10
118.412194
 20
56.704195
 30
0.0
 10
118.411854
 20
57.276046
 30
0.0
  0
LWPOLYLINE
  5
1f0
100
AcDbEntity
  8
0
 62
1
100
AcDbPolyline
 90
2
 70
1
 10
43.411855
 20
88.276041
 30
0.0
 10
43.411855
 20
88.276041
 30
0.0
  0
SPLINE
  5
1f1
100
AcDbEntity
  8
0
 62
1
100
AcDbSpline
 70
8
 71
3
 72
8
 73
4
 74
0
 40
0
 40
0
 40
0
 40
0
 40
1
 40
1
 40
1
 40
1
 10
118.411854
 20
88.276041
 30
0.0
 10
118.412194
 20
88.847892
 30
0.0
 10
118.107310
 20
89.376450
 30
0.0
 10
117.612129
 20
89.662473
 30
0.0
  0
SPLINE
  5
1f2
100
AcDbEntity
  8
0
 62
1
100
AcDbSpline
 70
8
 71
3
 72
8
 73
4
 74
0
 40
0
 40
0
 40
0
 40
0
 40
1
 40
1
 40
1
 40
1
 10
117.612129
 20
89.662473
 30
0.0
 10
117.116948
 20
89.948497
 30
0.0
 10
116.506761
 20
89.948497
 30
0.0
 10
116.011580
 20
89.662473
 30
0.0
  0
SPLINE
  5
1f3
100
AcDbEntity
  8
0
 62
1
100
AcDbSpline
 70
8
 71
3
 72
8
 73
4
 74
0
 40
0
 40
0
 40
0
 40
0
 40
1
 40
1
 40
1
 40
1
 10
116.011580
 20
89.662473
 30
0.0
 10
115.516399
 20
89.376450
 30
0.0
 10
115.211515
 20
88.847892
 30
0.0
 10
115.211855
 20
88.276041
 30
0.0
  0
SPLINE
  5
1f4
100
AcDbEntity
  8
0
 62
1
100
AcDbSpline
 70
8
 71
3
 72
8
 73
4
 74
0
 40
0
 40
0
 40
0
 40
0
 40
1
 40
1
 40
1
 40
1
 10
115.211855
 20
88.276041
 30
0.0
 10
115.211515
 20
87.704190
 30
0.0
 10
115.516399
 20
87.175632
 30
0.0
 10
116.011580
 20
86.889608
 30
0.0
  0
SPLINE
  5
1f5
100
AcDbEntity
  8
0
 62
1
100
AcDbSpline
 70
8
 71
3
 72
8
 73
4
 74
0
 40
0
 40
0
 40
0
 40
0
 40
1
 40
1
 40
1
 40
1
 10
116.011580
 20
86.889608
 30
0.0
 10
116.506761
 20
86.603585
 30
0.0
 10
117.116948
 20
86.603585
 30
0.0
 10
117.612129
 20
86.889608
 30
0.0
  0
SPLINE
  5
1f6
100
AcDbEntity
  8
0
 62
1
100
AcDbSpline
 70
8
 71
3
 72
8
 73
4
 74
0
 40
0
 40
0
 40
0
 40
0
 40
1
 40
1
 40
1
 40
1
 10
117.612129
 20
86.889608
 30
0.0
 10
118.107310
 20
87.175632
 30
0.0
 10
118.412194
 20
87.704190
 30
0.0
 10
118.411854
 20
88.276041
 30
0.0
  0
LWPOLYLINE
  5
1f7
100
AcDbEntity
  8
0
 62
1
100
AcDbPolyline
 90
2
 70
1
 10
118.411854
 20
57.276046
 30
0.0
 10
118.411854
 20
57.276046
 30
0.0
  0
SPLINE
  5
1f8
100
AcDbEntity
  8
0
 62
1
100
AcDbSpline
 70
8
 71
3
 72
8
 73
4
 74
0
 40
0
 40
0
 40
0
 40
0
 40
1
 40
1
 40
1
 40
1
 10
111.061853
 20
65.526051
 30
0.0
 10
111.614137
 20
65.526051
 30
0.0
 10
112.061854
 20
65.973768
 30
0.0
 10
112.061854
 20
66.526049
 30
0.0
  0
LWPOLYLINE
  5
1f9
100
AcDbEntity
  8
0
 62
1
100
AcDbPolyline
 90
2
 70
1
 10
118.411854
 20
88.276041
 30
0.0
 10
118.411854
 20
88.276041
 30
0.0
  0
SPLINE
  5
1fa
100
AcDbEntity
  8
0
 62
1
100
AcDbSpline
 70
8
 71
3
 72
8
 73
4
 74
0
 40
0
 40
0
 40
0
 40
0
 40
1
 40
1
 40
1
 40
1
 10
112.061854
 20
79.026038
 30
0.0
 10
112.061854
 20
79.578319
 30
0.0
 10
111.614140
 20
80.026036
 30
0.0
 10
111.061853
 20
80.026036
 30
0.0
  0
LWPOLYLINE
  5
1fb
100
AcDbEntity
  8
0
 62
1
100
AcDbPolyline
 90
2
 70
1
 10
112.061854
 20
66.526049
 30
0.0
 10
112.061854
 20
79.026038
 30
0.0
  0
SPLINE
  5
1fc
100
AcDbEntity
  8
0
 62
1
100
AcDbSpline
 70
8
 71
3
 72
8
 73
4
 74
0
 40
0
 40
0
 40
0
 40
0
 40
1
 40
1
 40
1
 40
1
 10
47.561853
 20
80.026036
 30
0.0
 10
47.009567
 20
80.026036
 30
0.0
 10
46.561853
 20
79.578319
 30
0.0
 10
46.561853
 20
79.026038
 30
0.0
  0
LWPOLYLINE
  5
1fd
100
AcDbEntity
  8
0
 62
1
100
AcDbPolyline
 90
2
 70
1
 10
111.061853
 20
80.026036
 30
0.0
 10
47.561853
 20
80.026036
 30
0.0
  0
SPLINE
  5
1fe
100
AcDbEntity
  8
0
 62
1
100
AcDbSpline
 70
8
 71
3
 72
8
 73
4
 74
0
 40
0
 40
0
 40
0
 40
0
 40
1
 40
1
 40
1
 40
1
 10
46.561853
 20
66.526049
 30
0.0
 10
46.561855
 20
65.973768
 30
0.0
 10
47.009570
 20
65.526051
 30
0.0
 10
47.561853
 20
65.526051
 30
0.0
  0
LWPOLYLINE
  5
1ff
100
AcDbEntity
  8
0
 62
1
100
AcDbPolyline
 90
2
 70
1
 10
46.561853
 20
79.026038
 30
0.0
 10
46.561853
 20
66.526049
 30
0.0
  0
LWPOLYLINE
  5
200
100
AcDbEntity
  8
0
 62
1
100
AcDbPolyline
 90
2
 70
1
 10
47.561853
 20
65.526051
 30
0.0
 10
111.061853
 20
65.526051
 30
0.0
  0
LWPOLYLINE
  5
201
100
AcDbEntity
  8
0
 62
7
100
AcDbPolyline
 90
6
 70
1
 10
56.996187
 20
90.463628
 30
0.0
 10
55.765346
 20
90.463628
 30
0.0
 10
55.765346
 20
90.362734
 30
0.0
 10
56.996187
 20
90.362734
 30
0.0
 10
56.996187
 20
90.463628
 30
0.0
 10
56.996187
 20
90.463628
 30
0.0
  0
LWPOLYLINE
  5
202
100
AcDbEntity
  8
0
 62
7
100
AcDbPolyline
 90
6
 70
1
 10
56.996187
 20
90.668945
 30
0.0
 10
55.765346
 20
90.668945
 30
0.0
 10
55.765346
 20
90.569461
 30
0.0
 10
56.996187
 20
90.569461
 30
0.0
 10
56.996187
 20
90.668945
 30
0.0
 10
56.996187
 20
90.668945
 30
0.0
  0
LWPOLYLINE
  5
203
100
AcDbEntity
  8
0
 62
7
100
AcDbPolyline
 90
6
 70
1
 10
56.996187
 20
90.878495
 30
0.0
 10
55.765346
 20
90.878495
 30
0.0
 10
55.765346
 20
90.775836
 30
0.0
 10
56.996187
 20
90.775836
 30
0.0
 10
56.996187
 20
90.878495
 30
0.0
 10
56.996187
 20
90.878495
 30
0.0
  0
LWPOLYLINE
  5
204
100
AcDbEntity
  8
0
 62
7
100
AcDbPolyline
 90
6
 70
1
 10
56.996187
 20
91.082753
 30
0.0
 10
55.765346
 20
91.082753
 30
0.0
 10
55.765346
 20
90.983270
 30
0.0
 10
56.996187
 20
90.983270
 30
0.0
 10
56.996187
 20
91.082753
 30
0.0
 10
56.996187
 20
91.082753
 30
0.0
  0
LWPOLYLINE
  5
205
100
AcDbEntity
  8
0
 62
7
100
AcDbPolyline
 90
6
 70
1
 10
56.996187
 20
91.290539
 30
0.0
 10
55.765346
 20
91.290539
 30
0.0
 10
55.765346
 20
91.188586
 30
0.0
 10
56.996187
 20
91.188586
 30
0.0
 10
56.996187
 20
91.290539
 30
0.0
 10
56.996187
 20
91.290539
 30
0.0
  0
LWPOLYLINE
  5
206
100
AcDbEntity
  8
0
 62
7
100
AcDbPolyline
 90
6
 70
1
 10
56.996187
 20
91.497267
 30
0.0
 10
55.765346
 20
91.497267
 30
0.0
 10
55.765346
 20
91.396020
 30
0.0
 10
56.996187
 20
91.396020
 30
0.0
 10
56.996187
 20
91.497267
 30
0.0
 10
56.996187
 20
91.497267
 30
0.0
  0
LWPOLYLINE
  5
207
100
AcDbEntity
  8
0
 62
7
100
AcDbPolyline
 90
6
 70
1
 10
56.996187
 20
91.705053
 30
0.0
 10
55.765346
 20
91.705053
 30
0.0
 10
55.765346
 20
91.604511
 30
0.0
 10
56.996187
 20
91.604511
 30
0.0
 10
56.996187
 20
91.705053
 30
0.0
 10
56.996187
 20
91.705053
 30
0.0
  0
LWPOLYLINE
  5
208
100
AcDbEntity
  8
0
 62
7
100
AcDbPolyline
 90
6
 70
1
 10
56.996187
 20
91.910017
 30
0.0
 10
55.765346
 20
91.910017
 30
0.0
 10
55.765346
 20
91.810534
 30
0.0
 10
56.996187
 20
91.810534
 30
0.0
 10
56.996187
 20
91.910017
 30
0.0
 10
56.996187
 20
91.910017
 30
0.0
  0
LWPOLYLINE
  5
209
100
AcDbEntity
  8
0
 62
7
100
AcDbPolyline
 90
6
 70
1
 10
56.996187
 20
92.115334
 30
0.0
 10
55.765346
 20
92.115334
 30
0.0
 10
55.765346
 20
92.016909
 30
0.0
 10
56.996187
 20
92.016909
 30
0.0
 10
56.996187
 20
92.115334
 30
0.0
 10
56.996187
 20
92.115334
 30
0.0
  0
LWPOLYLINE
  5
20a
100
AcDbEntity
  8
0
 62
7
100
AcDbPolyline
 90
10
 70
1
 10
57.606846
 20
92.327706
 30
0.0
 10
57.606846
 20
91.692000
 30
0.0
 10
57.209971
 20
91.692000
 30
0.0
 10
57.209971
 20
90.788536
 30
0.0
 10
57.606846
 20
90.788536
 30
0.0
 10
57.606846
 20
90.163061
 30
0.0
 10
55.568143
 20
90.163061
 30
0.0
 10
55.568143
 20
92.327706
 30
0.0
 10
57.606846
 20
92.327706
 30
0.0
 10
57.606846
 20
92.327706
 30
0.0
  0
LWPOLYLINE
  5
20b
100
AcDbEntity
  8
0
 62
7
100
AcDbPolyline
 90
6
 70
1
 10
102.862943
 20
90.463628
 30
0.0
 10
101.630337
 20
90.463628
 30
0.0
 10
101.630337
 20
90.362734
 30
0.0
 10
102.862943
 20
90.362734
 30
0.0
 10
102.862943
 20
90.463628
 30
0.0
 10
102.862943
 20
90.463628
 30
0.0
  0
LWPOLYLINE
  5
20c
100
AcDbEntity
  8
0
 62
7
100
AcDbPolyline
 90
6
 70
1
 10
102.862943
 20
90.668945
 30
0.0
 10
101.630337
 20
90.668945
 30
0.0
 10
101.630337
 20
90.569461
 30
0.0
 10
102.862943
 20
90.569461
 30
0.0
 10
102.862943
 20
90.668945
 30
0.0
 10
102.862943
 20
90.668945
 30
0.0
  0
LWPOLYLINE
  5
20d
100
AcDbEntity
  8
0
 62
7
100
AcDbPolyline
 90
6
 70
1
 10
102.862943
 20
90.878495
 30
0.0
 10
101.630337
 20
90.878495
 30
0.0
 10
101.630337
 20
90.775836
 30
0.0
 10
102.862943
 20
90.775836
 30
0.0
 10
102.862943
 20
90.878495
 30
0.0
 10
102.862943
 20
90.878495
 30
0.0
  0
LWPOLYLINE
  5
20e
100
AcDbEntity
  8
0
 62
7
100
AcDbPolyline
 90
6
 70
1
 10
102.862943
 20
91.082753
 30
0.0
 10
101.630337
 20
91.082753
 30
0.0
 10
101.630337
 20
90.983270
 30
0.0
 10
102.862943
 20
90.983270
 30
0.0
 10
102.862943
 20
91.082753
 30
0.0
 10
102.862943
 20
91.082753
 30
0.0
  0
LWPOLYLINE
  5
20f
100
AcDbEntity
  8
0
 62
7
100
AcDbPolyline
 90
6
 70
1
 10
102.862943
 20
91.290539
 30
0.0
 10
101.630337
 20
91.290539
 30
0.0
 10
101.630337
 20
91.188586
 30
0.0
 10
102.862943
 20
91.188586
 30
0.0
 10
102.862943
 20
91.290539
 30
0.0
 10
102.862943
 20
91.290539
 30
0.0
  0
LWPOLYLINE
  5
210
100
AcDbEntity
  8
0
 62
7
100
AcDbPolyline
 90
6
 70
1
 10
102.862943
 20
91.497267
 30
0.0
 10
101.630337
 20
91.497267
 30
0.0
 10
101.630337
 20
91.396020
 30
0.0
 10
102.862943
 20
91.396020
 30
0.0
 10
102.862943
 20
91.497267
 30
0.0
 10
102.862943
 20
91.497267
 30
0.0
  0
LWPOLYLINE
  5
211
100
AcDbEntity
  8
0
 62
7
100
AcDbPolyline
 90
6
 70
1
 10
102.862943
 20
91.705053
 30
0.0
 10
101.630337
 20
91.705053
 30
0.0
 10
101.630337
 20
91.604511
 30
0.0
 10
102.862943
 20
91.604511
 30
0.0
 10
102.862943
 20
91.705053
 30
0.0
 10
102.862943
 20
91.705053
 30
0.0
  0
LWPOLYLINE
  5
212
100
AcDbEntity
  8
0
 62
7
100
AcDbPolyline
 90
6
 70
1
 10
102.862943
 20
91.910017
 30
0.0
 10
101.630337
 20
91.910017
 30
0.0
 10
101.630337
 20
91.810534
 30
0.0
 10
102.862943
 20
91.810534
 30
0.0
 10
102.862943
 20
91.910017
 30
0.0
 10
102.862943
 20
91.910017
 30
0.0
  0
LWPOLYLINE
  5
213
100
AcDbEntity
  8
0
 62
7
100
AcDbPolyline
 90
6
 70
1
 10
102.862943
 20
92.115334
 30
0.0
 10
101.630337
 20
92.115334
 30
0.0
 10
101.630337
 20
92.016909
 30
0.0
 10
102.862943
 20
92.016909
 30
0.0
 10
102.862943
 20
92.115334
 30
0.0
 10
102.862943
 20
92.115334
 30
0.0
  0
LWPOLYLINE
  5
214
100
AcDbEntity
  8
0
 62
7
100
AcDbPolyline
 90
10
 70
1
 10
103.055559
 20
92.320298
 30
0.0
 10
103.055559
 20
90.158123
 30
0.0
 10
101.024971
 20
90.158123
 30
0.0
 10
101.024971
 20
90.786067
 30
0.0
 10
101.425373
 20
90.786067
 30
0.0
 10
101.425373
 20
91.706817
 30
0.0
 10
101.024971
 20
91.706817
 30
0.0
 10
101.024971
 20
92.320298
 30
0.0
 10
103.055559
 20
92.320298
 30
0.0
 10
103.055559
 20
92.320298
 30
0.0
  0
SPLINE
  5
215
100
AcDbEntity
  8
0
 62
7
100
AcDbSpline
 70
8
 71
3
 72
8
 73
4
 74
0
 40
0
 40
0
 40
0
 40
0
 40
1
 40
1
 40
1
 40
1
 10
64.661696
 20
92.740562
 30
0.0
 10
64.661696
 20
92.938117
 30
0.0
 10
64.741423
 20
93.114153
 30
0.0
 10
64.896293
 20
93.270434
 30
0.0
  0
SPLINE
  5
216
100
AcDbEntity
  8
0
 62
7
100
AcDbSpline
 70
8
 71
3
 72
8
 73
4
 74
0
 40
0
 40
0
 40
0
 40
0
 40
1
 40
1
 40
1
 40
1
 10
64.896293
 20
93.270434
 30
0.0
 10
65.051162
 20
93.425303
 30
0.0
 10
65.228609
 20
93.503267
 30
0.0
 10
65.426165
 20
93.503267
 30
0.0
  0
LWPOLYLINE
  5
217
100
AcDbEntity
  8
0
 62
7
100
AcDbPolyline
 90
3
 70
1
 10
64.661696
 20
92.240676
 30
0.0
 10
64.661696
 20
92.336631
 30
0.0
 10
64.661696
 20
92.740562
 30
0.0
  0
SPLINE
  5
218
100
AcDbEntity
  8
0
 62
7
100
AcDbSpline
 70
8
 71
3
 72
8
 73
4
 74
0
 40
0
 40
0
 40
0
 40
0
 40
1
 40
1
 40
1
 40
1
 10
68.485101
 20
93.503267
 30
0.0
 10
68.694651
 20
93.503267
 30
0.0
 10
68.875273
 20
93.430242
 30
0.0
 10
69.023440
 20
93.279253
 30
0.0
  0
SPLINE
  5
219
100
AcDbEntity
  8
0
 62
7
100
AcDbSpline
 70
8
 71
3
 72
8
 73
4
 74
0
 40
0
 40
0
 40
0
 40
0
 40
1
 40
1
 40
1
 40
1
 10
69.023440
 20
93.279253
 30
0.0
 10
69.174429
 20
93.130028
 30
0.0
 10
69.249923
 20
92.949759
 30
0.0
 10
69.249923
 20
92.740562
 30
0.0
  0
SPLINE
  5
21a
100
AcDbEntity
  8
0
 62
7
100
AcDbSpline
 70
8
 71
3
 72
8
 73
4
 74
0
 40
0
 40
0
 40
0
 40
0
 40
1
 40
1
 40
1
 40
1
 10
69.249923
 20
92.740562
 30
0.0
 10
69.249923
 20
92.535598
 30
0.0
 10
69.174429
 20
92.356740
 30
0.0
 10
69.027321
 20
92.205751
 30
0.0
  0
SPLINE
  5
21b
100
AcDbEntity
  8
0
 62
7
100
AcDbSpline
 70
8
 71
3
 72
8
 73
4
 74
0
 40
0
 40
0
 40
0
 40
0
 40
1
 40
1
 40
1
 40
1
 10
69.027321
 20
92.205751
 30
0.0
 10
68.883034
 20
92.051587
 30
0.0
 10
68.705940
 20
91.975387
 30
0.0
 10
68.504857
 20
91.975387
 30
0.0
  0
LWPOLYLINE
  5
21c
100
AcDbEntity
  8
0
 62
7
100
AcDbPolyline
 90
2
 70
1
 10
65.426165
 20
93.503267
 30
0.0
 10
68.485101
 20
93.503267
 30
0.0
  0
LWPOLYLINE
  5
21d
100
AcDbEntity
  8
0
 62
7
100
AcDbPolyline
 90
4
 70
1
 10
68.504857
 20
91.975387
 30
0.0
 10
64.661696
 20
91.975387
 30
0.0
 10
64.661696
 20
92.240676
 30
0.0
 10
64.661696
 20
92.240676
 30
0.0
  0
SPLINE
  5
21e
100
AcDbEntity
  8
0
 62
7
100
AcDbSpline
 70
8
 71
3
 72
8
 73
4
 74
0
 40
0
 40
0
 40
0
 40
0
 40
1
 40
1
 40
1
 40
1
 10
93.904857
 20
89.681978
 30
0.0
 10
93.904857
 20
89.483365
 30
0.0
 10
93.829362
 20
89.308034
 30
0.0
 10
93.672729
 20
89.150342
 30
0.0
  0
SPLINE
  5
21f
100
AcDbEntity
  8
0
 62
7
100
AcDbSpline
 70
8
 71
3
 72
8
 73
4
 74
0
 40
0
 40
0
 40
0
 40
0
 40
1
 40
1
 40
1
 40
1
 10
93.672729
 20
89.150342
 30
0.0
 10
93.516448
 20
88.995473
 30
0.0
 10
93.339001
 20
88.917509
 30
0.0
 10
93.143209
 20
88.917509
 30
0.0
  0
LWPOLYLINE
  5
220
100
AcDbEntity
  8
0
 62
7
100
AcDbPolyline
 90
3
 70
1
 10
93.904857
 20
90.443978
 30
0.0
 10
93.904857
 20
90.070740
 30
0.0
 10
93.904857
 20
89.681978
 30
0.0
  0
SPLINE
  5
221
100
AcDbEntity
  8
0
 62
7
100
AcDbSpline
 70
8
 71
3
 72
8
 73
4
 74
0
 40
0
 40
0
 40
0
 40
0
 40
1
 40
1
 40
1
 40
1
 10
90.084273
 20
88.917509
 30
0.0
 10
89.885659
 20
88.917509
 30
0.0
 10
89.709271
 20
88.995473
 30
0.0
 10
89.555459
 20
89.150342
 30
0.0
  0
SPLINE
  5
222
100
AcDbEntity
  8
0
 62
7
100
AcDbSpline
 70
8
 71
3
 72
8
 73
4
 74
0
 40
0
 40
0
 40
0
 40
0
 40
1
 40
1
 40
1
 40
1
 10
89.555459
 20
89.150342
 30
0.0
 10
89.398473
 20
89.308034
 30
0.0
 10
89.318746
 20
89.483365
 30
0.0
 10
89.318746
 20
89.681978
 30
0.0
  0
SPLINE
  5
223
100
AcDbEntity
  8
0
 62
7
100
AcDbSpline
 70
8
 71
3
 72
8
 73
4
 74
0
 40
0
 40
0
 40
0
 40
0
 40
1
 40
1
 40
1
 40
1
 10
89.318746
 20
89.681978
 30
0.0
 10
89.318746
 20
89.885531
 30
0.0
 10
89.393887
 20
90.064742
 30
0.0
 10
89.538879
 20
90.217495
 30
0.0
  0
SPLINE
  5
224
100
AcDbEntity
  8
0
 62
7
100
AcDbSpline
 70
8
 71
3
 72
8
 73
4
 74
0
 40
0
 40
0
 40
0
 40
0
 40
1
 40
1
 40
1
 40
1
 10
89.538879
 20
90.217495
 30
0.0
 10
89.685634
 20
90.369895
 30
0.0
 10
89.862376
 20
90.446448
 30
0.0
 10
90.065223
 20
90.446448
 30
0.0
  0
LWPOLYLINE
  5
225
100
AcDbEntity
  8
0
 62
7
100
AcDbPolyline
 90
2
 70
1
 10
93.143209
 20
88.917509
 30
0.0
 10
90.084273
 20
88.917509
 30
0.0
  0
LWPOLYLINE
  5
226
100
AcDbEntity
  8
0
 62
7
100
AcDbPolyline
 90
4
 70
1
 10
90.065223
 20
90.446448
 30
0.0
 10
93.578537
 20
90.442920
 30
0.0
 10
93.904857
 20
90.443978
 30
0.0
 10
93.904857
 20
90.443978
 30
0.0
  0
SPLINE
  5
227
100
AcDbEntity
  8
0
 62
7
100
AcDbSpline
 70
8
 71
3
 72
8
 73
4
 74
0
 40
0
 40
0
 40
0
 40
0
 40
1
 40
1
 40
1
 40
1
 10
95.433443
 20
92.740562
 30
0.0
 10
95.433443
 20
93.363567
 30
0.0
 10
95.208723
 20
93.903317
 30
0.0
 10
94.757873
 20
94.356637
 30
0.0
  0
SPLINE
  5
228
100
AcDbEntity
  8
0
 62
7
100
AcDbSpline
 70
8
 71
3
 72
8
 73
4
 74
0
 40
0
 40
0
 40
0
 40
0
 40
1
 40
1
 40
1
 40
1
 10
94.757873
 20
94.356637
 30
0.0
 10
94.304907
 20
94.806781
 30
0.0
 10
93.766568
 20
95.034323
 30
0.0
 10
93.143209
 20
95.034323
 30
0.0
  0
LWPOLYLINE
  5
229
100
AcDbEntity
  8
0
 62
7
100
AcDbPolyline
 90
57
 70
1
 10
95.711079
 20
90.442920
 30
0.0
 10
96.280109
 20
90.442920
 30
0.0
 10
96.303040
 20
90.347670
 30
0.0
 10
96.487543
 20
90.312040
 30
0.0
 10
96.463201
 20
90.443978
 30
0.0
 10
96.646293
 20
90.443978
 30
0.0
 10
96.670634
 20
90.265473
 30
0.0
 10
96.858312
 20
90.225962
 30
0.0
 10
96.836087
 20
90.443978
 30
0.0
 10
97.019532
 20
90.443978
 30
0.0
 10
97.043521
 20
90.183981
 30
0.0
 10
97.228729
 20
90.145528
 30
0.0
 10
97.204387
 20
90.443978
 30
0.0
 10
97.389596
 20
90.443978
 30
0.0
 10
97.413584
 20
90.103548
 30
0.0
 10
97.598087
 20
90.062978
 30
0.0
 10
97.573746
 20
90.443978
 30
0.0
 10
97.758954
 20
90.443978
 30
0.0
 10
97.784354
 20
90.155053
 30
0.0
 10
97.887718
 20
90.155053
 30
0.0
 10
97.887718
 20
89.998067
 30
0.0
 10
98.612676
 20
89.845667
 30
0.0
 10
100.858107
 20
89.851665
 30
0.0
 10
100.858107
 20
90.783351
 30
0.0
 10
100.756154
 20
90.780176
 30
0.0
 10
100.756154
 20
90.986198
 30
0.0
 10
99.015901
 20
90.986198
 30
0.0
 10
99.011315
 20
91.497373
 30
0.0
 10
100.759682
 20
91.495962
 30
0.0
 10
100.759682
 20
91.704806
 30
0.0
 10
100.855284
 20
91.704806
 30
0.0
 10
100.858107
 20
92.634728
 30
0.0
 10
98.617968
 20
92.640726
 30
0.0
 10
97.885601
 20
92.482681
 30
0.0
 10
97.886307
 20
92.317934
 30
0.0
 10
97.786118
 20
92.317934
 30
0.0
 10
97.784354
 20
91.973270
 30
0.0
 10
97.598087
 20
91.973270
 30
0.0
 10
97.600204
 20
92.422356
 30
0.0
 10
97.413584
 20
92.380023
 30
0.0
 10
97.413584
 20
91.973270
 30
0.0
 10
97.228729
 20
91.973270
 30
0.0
 10
97.227671
 20
92.341217
 30
0.0
 10
97.044226
 20
92.295709
 30
0.0
 10
97.044226
 20
91.973270
 30
0.0
 10
96.858312
 20
91.973270
 30
0.0
 10
96.860076
 20
92.261842
 30
0.0
 10
96.673457
 20
92.219509
 30
0.0
 10
96.670634
 20
91.973270
 30
0.0
 10
96.490012
 20
91.973270
 30
0.0
 10
96.487543
 20
92.181056
 30
0.0
 10
96.303040
 20
92.138723
 30
0.0
 10
96.303040
 20
91.976092
 30
0.0
 10
95.711079
 20
91.975387
 30
0.0
 10
95.433443
 20
91.975387
 30
0.0
 10
95.433443
 20
92.494676
 30
0.0
 10
95.433443
 20
92.740562
 30
0.0
  0
SPLINE
  5
22a
100
AcDbEntity
  8
0
 62
7
100
AcDbSpline
 70
8
 71
3
 72
8
 73
4
 74
0
 40
0
 40
0
 40
0
 40
0
 40
1
 40
1
 40
1
 40
1
 10
81.866315
 20
95.034323
 30
0.0
 10
81.239782
 20
95.034323
 30
0.0
 10
80.700032
 20
94.806781
 30
0.0
 10
80.248123
 20
94.356637
 30
0.0
  0
SPLINE
  5
22b
100
AcDbEntity
  8
0
 62
7
100
AcDbSpline
 70
8
 71
3
 72
8
 73
4
 74
0
 40
0
 40
0
 40
0
 40
0
 40
1
 40
1
 40
1
 40
1
 10
80.248123
 20
94.356637
 30
0.0
 10
79.795862
 20
93.903317
 30
0.0
 10
79.572554
 20
93.363567
 30
0.0
 10
79.572554
 20
92.740562
 30
0.0
  0
SPLINE
  5
22c
100
AcDbEntity
  8
0
 62
7
100
AcDbSpline
 70
8
 71
3
 72
8
 73
4
 74
0
 40
0
 40
0
 40
0
 40
0
 40
1
 40
1
 40
1
 40
1
 10
79.572554
 20
92.740562
 30
0.0
 10
79.572554
 20
92.115087
 30
0.0
 10
79.795862
 20
91.577453
 30
0.0
 10
80.248123
 20
91.125545
 30
0.0
  0
SPLINE
  5
22d
100
AcDbEntity
  8
0
 62
7
100
AcDbSpline
 70
8
 71
3
 72
8
 73
4
 74
0
 40
0
 40
0
 40
0
 40
0
 40
1
 40
1
 40
1
 40
1
 10
80.248123
 20
91.125545
 30
0.0
 10
80.700032
 20
90.671873
 30
0.0
 10
81.239782
 20
90.446448
 30
0.0
 10
81.866315
 20
90.446448
 30
0.0
  0
LWPOLYLINE
  5
22e
100
AcDbEntity
  8
0
 62
7
100
AcDbPolyline
 90
2
 70
1
 10
93.143209
 20
95.034323
 30
0.0
 10
81.866315
 20
95.034323
 30
0.0
  0
SPLINE
  5
22f
100
AcDbEntity
  8
0
 62
7
100
AcDbSpline
 70
8
 71
3
 72
8
 73
4
 74
0
 40
0
 40
0
 40
0
 40
0
 40
1
 40
1
 40
1
 40
1
 10
84.923134
 20
90.446448
 30
0.0
 10
85.148912
 20
90.446448
 30
0.0
 10
85.327065
 20
90.374481
 30
0.0
 10
85.474526
 20
90.230901
 30
0.0
  0
SPLINE
  5
230
100
AcDbEntity
  8
0
 62
7
100
AcDbSpline
 70
8
 71
3
 72
8
 73
4
 74
0
 40
0
 40
0
 40
0
 40
0
 40
1
 40
1
 40
1
 40
1
 10
85.474526
 20
90.230901
 30
0.0
 10
85.616343
 20
90.088731
 30
0.0
 10
85.688662
 20
89.905640
 30
0.0
 10
85.688662
 20
89.681978
 30
0.0
  0
SPLINE
  5
231
100
AcDbEntity
  8
0
 62
7
100
AcDbSpline
 70
8
 71
3
 72
8
 73
4
 74
0
 40
0
 40
0
 40
0
 40
0
 40
1
 40
1
 40
1
 40
1
 10
85.688662
 20
89.681978
 30
0.0
 10
85.688662
 20
89.471723
 30
0.0
 10
85.613521
 20
89.291453
 30
0.0
 10
85.462179
 20
89.140817
 30
0.0
  0
SPLINE
  5
232
100
AcDbEntity
  8
0
 62
7
100
AcDbSpline
 70
8
 71
3
 72
8
 73
4
 74
0
 40
0
 40
0
 40
0
 40
0
 40
1
 40
1
 40
1
 40
1
 10
85.462179
 20
89.140817
 30
0.0
 10
85.315071
 20
88.993356
 30
0.0
 10
85.134096
 20
88.917509
 30
0.0
 10
84.923134
 20
88.917509
 30
0.0
  0
LWPOLYLINE
  5
233
100
AcDbEntity
  8
0
 62
7
100
AcDbPolyline
 90
2
 70
1
 10
81.866315
 20
90.446448
 30
0.0
 10
84.923134
 20
90.446448
 30
0.0
  0
SPLINE
  5
234
100
AcDbEntity
  8
0
 62
7
100
AcDbSpline
 70
8
 71
3
 72
8
 73
4
 74
0
 40
0
 40
0
 40
0
 40
0
 40
1
 40
1
 40
1
 40
1
 10
78.668384
 20
88.917509
 30
0.0
 10
77.805490
 20
88.948201
 30
0.0
 10
77.363107
 20
88.830373
 30
0.0
 10
76.928132
 20
88.082131
 30
0.0
  0
LWPOLYLINE
  5
235
100
AcDbEntity
  8
0
 62
7
100
AcDbPolyline
 90
2
 70
1
 10
84.923134
 20
88.917509
 30
0.0
 10
78.668384
 20
88.917509
 30
0.0
  0
SPLINE
  5
236
100
AcDbEntity
  8
0
 62
7
100
AcDbSpline
 70
8
 71
3
 72
8
 73
4
 74
0
 40
0
 40
0
 40
0
 40
0
 40
1
 40
1
 40
1
 40
1
 10
74.883784
 20
84.534951
 30
0.0
 10
74.783596
 20
84.365970
 30
0.0
 10
74.641779
 20
84.236853
 30
0.0
 10
74.429054
 20
84.181115
 30
0.0
  0
SPLINE
  5
237
100
AcDbEntity
  8
0
 62
7
100
AcDbSpline
 70
8
 71
3
 72
8
 73
4
 74
0
 40
0
 40
0
 40
0
 40
0
 40
1
 40
1
 40
1
 40
1
 10
74.429054
 20
84.181115
 30
0.0
 10
74.216329
 20
84.121848
 30
0.0
 10
74.023007
 20
84.143720
 30
0.0
 10
73.854379
 20
84.242498
 30
0.0
  0
SPLINE
  5
238
100
AcDbEntity
  8
0
 62
7
100
AcDbSpline
 70
8
 71
3
 72
8
 73
4
 74
0
 40
0
 40
0
 40
0
 40
0
 40
1
 40
1
 40
1
 40
1
 10
73.854379
 20
84.242498
 30
0.0
 10
73.681871
 20
84.343745
 30
0.0
 10
73.569687
 20
84.498967
 30
0.0
 10
73.509362
 20
84.710987
 30
0.0
  0
SPLINE
  5
239
100
AcDbEntity
  8
0
 62
7
100
AcDbSpline
 70
8
 71
3
 72
8
 73
4
 74
0
 40
0
 40
0
 40
0
 40
0
 40
1
 40
1
 40
1
 40
1
 10
73.509362
 20
84.710987
 30
0.0
 10
73.454329
 20
84.924417
 30
0.0
 10
73.475143
 20
85.115976
 30
0.0
 10
73.573215
 20
85.287426
 30
0.0
  0
LWPOLYLINE
  5
23a
100
AcDbEntity
  8
0
 62
7
100
AcDbPolyline
 90
2
 70
1
 10
76.928132
 20
88.082131
 30
0.0
 10
74.883784
 20
84.534951
 30
0.0
  0
SPLINE
  5
23b
100
AcDbEntity
  8
0
 62
7
100
AcDbSpline
 70
8
 71
3
 72
8
 73
4
 74
0
 40
0
 40
0
 40
0
 40
0
 40
1
 40
1
 40
1
 40
1
 10
78.534329
 20
93.882151
 30
0.0
 10
78.856415
 20
94.438128
 30
0.0
 10
78.936496
 20
95.021270
 30
0.0
 10
78.774923
 20
95.623462
 30
0.0
  0
SPLINE
  5
23c
100
AcDbEntity
  8
0
 62
7
100
AcDbSpline
 70
8
 71
3
 72
8
 73
4
 74
0
 40
0
 40
0
 40
0
 40
0
 40
1
 40
1
 40
1
 40
1
 10
78.774923
 20
95.623462
 30
0.0
 10
78.613351
 20
96.230240
 30
0.0
 10
78.252107
 20
96.693437
 30
0.0
 10
77.694718
 20
97.012701
 30
0.0
  0
SPLINE
  5
23d
100
AcDbEntity
  8
0
 62
7
100
AcDbSpline
 70
8
 71
3
 72
8
 73
4
 74
0
 40
0
 40
0
 40
0
 40
0
 40
1
 40
1
 40
1
 40
1
 10
77.694718
 20
97.012701
 30
0.0
 10
77.149323
 20
97.328790
 30
0.0
 10
76.568651
 20
97.405695
 30
0.0
 10
75.956582
 20
97.241653
 30
0.0
  0
SPLINE
  5
23e
100
AcDbEntity
  8
0
 62
7
100
AcDbSpline
 70
8
 71
3
 72
8
 73
4
 74
0
 40
0
 40
0
 40
0
 40
0
 40
1
 40
1
 40
1
 40
1
 10
75.956582
 20
97.241653
 30
0.0
 10
75.341337
 20
97.076553
 30
0.0
 10
74.878493
 20
96.720248
 30
0.0
 10
74.561346
 20
96.174501
 30
0.0
  0
LWPOLYLINE
  5
23f
100
AcDbEntity
  8
0
 62
7
100
AcDbPolyline
 90
2
 70
1
 10
73.573215
 20
85.287426
 30
0.0
 10
78.534329
 20
93.882151
 30
0.0
  0
SPLINE
  5
240
100
AcDbEntity
  8
0
 62
7
100
AcDbSpline
 70
8
 71
3
 72
8
 73
4
 74
0
 40
0
 40
0
 40
0
 40
0
 40
1
 40
1
 40
1
 40
1
 10
65.426165
 20
88.917509
 30
0.0
 10
65.228609
 20
88.917509
 30
0.0
 10
65.051162
 20
88.995473
 30
0.0
 10
64.896293
 20
89.150342
 30
0.0
  0
SPLINE
  5
241
100
AcDbEntity
  8
0
 62
7
100
AcDbSpline
 70
8
 71
3
 72
8
 73
4
 74
0
 40
0
 40
0
 40
0
 40
0
 40
1
 40
1
 40
1
 40
1
 10
64.896293
 20
89.150342
 30
0.0
 10
64.741423
 20
89.308034
 30
0.0
 10
64.661696
 20
89.483365
 30
0.0
 10
64.661696
 20
89.681978
 30
0.0
  0
LWPOLYLINE
  5
242
100
AcDbEntity
  8
0
 62
7
100
AcDbPolyline
 90
3
 70
1
 10
74.561346
 20
96.174501
 30
0.0
 10
70.371051
 20
88.917509
 30
0.0
 10
65.426165
 20
88.917509
 30
0.0
  0
SPLINE
  5
243
100
AcDbEntity
  8
0
 62
7
100
AcDbSpline
 70
8
 71
3
 72
8
 73
4
 74
0
 40
0
 40
0
 40
0
 40
0
 40
1
 40
1
 40
1
 40
1
 10
68.504857
 20
90.446448
 30
0.0
 10
69.133507
 20
90.446448
 30
0.0
 10
69.670082
 20
90.671167
 30
0.0
 10
70.112818
 20
91.121665
 30
0.0
  0
SPLINE
  5
244
100
AcDbEntity
  8
0
 62
7
100
AcDbSpline
 70
8
 71
3
 72
8
 73
4
 74
0
 40
0
 40
0
 40
0
 40
0
 40
1
 40
1
 40
1
 40
1
 10
70.112818
 20
91.121665
 30
0.0
 10
70.555907
 20
91.568634
 30
0.0
 10
70.778509
 20
92.110148
 30
0.0
 10
70.778509
 20
92.740562
 30
0.0
  0
SPLINE
  5
245
100
AcDbEntity
  8
0
 62
7
100
AcDbSpline
 70
8
 71
3
 72
8
 73
4
 74
0
 40
0
 40
0
 40
0
 40
0
 40
1
 40
1
 40
1
 40
1
 10
70.778509
 20
92.740562
 30
0.0
 10
70.778509
 20
93.370623
 30
0.0
 10
70.552379
 20
93.909667
 30
0.0
 10
70.104704
 20
94.360517
 30
0.0
  0
SPLINE
  5
246
100
AcDbEntity
  8
0
 62
7
100
AcDbSpline
 70
8
 71
3
 72
8
 73
4
 74
0
 40
0
 40
0
 40
0
 40
0
 40
1
 40
1
 40
1
 40
1
 10
70.104704
 20
94.360517
 30
0.0
 10
69.654559
 20
94.808898
 30
0.0
 10
69.115868
 20
95.034323
 30
0.0
 10
68.485101
 20
95.034323
 30
0.0
  0
LWPOLYLINE
  5
247
100
AcDbEntity
  8
0
 62
7
100
AcDbPolyline
 90
4
 70
1
 10
64.661696
 20
89.681978
 30
0.0
 10
64.661696
 20
90.210087
 30
0.0
 10
64.661696
 20
90.446448
 30
0.0
 10
68.504857
 20
90.446448
 30
0.0
  0
SPLINE
  5
248
100
AcDbEntity
  8
0
 62
7
100
AcDbSpline
 70
8
 71
3
 72
8
 73
4
 74
0
 40
0
 40
0
 40
0
 40
0
 40
1
 40
1
 40
1
 40
1
 10
65.426165
 20
95.034323
 30
0.0
 10
64.802101
 20
95.034323
 30
0.0
 10
64.263409
 20
94.806781
 30
0.0
 10
63.809737
 20
94.356637
 30
0.0
  0
SPLINE
  5
249
100
AcDbEntity
  8
0
 62
7
100
AcDbSpline
 70
8
 71
3
 72
8
 73
4
 74
0
 40
0
 40
0
 40
0
 40
0
 40
1
 40
1
 40
1
 40
1
 10
63.809737
 20
94.356637
 30
0.0
 10
63.359240
 20
93.903317
 30
0.0
 10
63.132404
 20
93.363567
 30
0.0
 10
63.132404
 20
92.740562
 30
0.0
  0
LWPOLYLINE
  5
24a
100
AcDbEntity
  8
0
 62
7
100
AcDbPolyline
 90
2
 70
1
 10
68.485101
 20
95.034323
 30
0.0
 10
65.426165
 20
95.034323
 30
0.0
  0
SPLINE
  5
24b
100
AcDbEntity
  8
0
 62
7
100
AcDbSpline
 70
8
 71
3
 72
8
 73
4
 74
0
 40
0
 40
0
 40
0
 40
0
 40
1
 40
1
 40
1
 40
1
 10
63.132404
 20
89.681978
 30
0.0
 10
63.132404
 20
89.056151
 30
0.0
 10
63.359240
 20
88.519928
 30
0.0
 10
63.809737
 20
88.066609
 30
0.0
  0
SPLINE
  5
24c
100
AcDbEntity
  8
0
 62
7
100
AcDbSpline
 70
8
 71
3
 72
8
 73
4
 74
0
 40
0
 40
0
 40
0
 40
0
 40
1
 40
1
 40
1
 40
1
 10
63.809737
 20
88.066609
 30
0.0
 10
64.263409
 20
87.614348
 30
0.0
 10
64.787990
 20
87.388570
 30
0.0
 10
65.412759
 20
87.388570
 30
0.0
  0
LWPOLYLINE
  5
24d
100
AcDbEntity
  8
0
 62
7
100
AcDbPolyline
 90
59
 70
1
 10
63.132404
 20
92.740562
 30
0.0
 10
63.132404
 20
92.336631
 30
0.0
 10
63.132404
 20
92.240676
 30
0.0
 10
63.132404
 20
91.975387
 30
0.0
 10
62.269862
 20
91.973270
 30
0.0
 10
62.269862
 20
92.123201
 30
0.0
 10
62.098765
 20
92.161301
 30
0.0
 10
62.098765
 20
91.999023
 30
0.0
 10
61.902973
 20
91.994790
 30
0.0
 10
61.902973
 20
92.202928
 30
0.0
 10
61.729759
 20
92.241381
 30
0.0
 10
61.729759
 20
91.999023
 30
0.0
 10
61.545609
 20
91.999023
 30
0.0
 10
61.545609
 20
92.281598
 30
0.0
 10
61.355109
 20
92.323226
 30
0.0
 10
61.355109
 20
91.999023
 30
0.0
 10
61.161434
 20
91.999023
 30
0.0
 10
61.161434
 20
92.365559
 30
0.0
 10
60.977990
 20
92.406834
 30
0.0
 10
60.977990
 20
91.999023
 30
0.0
 10
60.794546
 20
91.990909
 30
0.0
 10
60.792076
 20
92.319698
 30
0.0
 10
60.688359
 20
92.319698
 30
0.0
 10
60.688359
 20
92.470687
 30
0.0
 10
59.976101
 20
92.599803
 30
0.0
 10
57.806165
 20
92.599803
 30
0.0
 10
57.806165
 20
91.580276
 30
0.0
 10
57.932459
 20
91.580276
 30
0.0
 10
57.932459
 20
91.476206
 30
0.0
 10
59.577462
 20
91.476206
 30
0.0
 10
59.577462
 20
90.959387
 30
0.0
 10
57.932459
 20
90.959387
 30
0.0
 10
57.932459
 20
90.809456
 30
0.0
 10
57.806165
 20
90.809456
 30
0.0
 10
57.806165
 20
89.822737
 30
0.0
 10
59.943998
 20
89.822737
 30
0.0
 10
60.686243
 20
89.980428
 30
0.0
 10
60.688359
 20
90.139531
 30
0.0
 10
60.794546
 20
90.139531
 30
0.0
 10
60.792076
 20
90.438334
 30
0.0
 10
60.981518
 20
90.434806
 30
0.0
 10
60.977990
 20
90.042517
 30
0.0
 10
61.161434
 20
90.080970
 30
0.0
 10
61.168137
 20
90.441862
 30
0.0
 10
61.351229
 20
90.441862
 30
0.0
 10
61.348759
 20
90.119776
 30
0.0
 10
61.536084
 20
90.160345
 30
0.0
 10
61.535026
 20
90.441862
 30
0.0
 10
61.722351
 20
90.441862
 30
0.0
 10
61.722351
 20
90.201267
 30
0.0
 10
61.902973
 20
90.237956
 30
0.0
 10
61.902973
 20
90.441862
 30
0.0
 10
62.100529
 20
90.441862
 30
0.0
 10
62.100529
 20
90.282406
 30
0.0
 10
62.276565
 20
90.318742
 30
0.0
 10
62.276565
 20
90.434806
 30
0.0
 10
63.132404
 20
90.446448
 30
0.0
 10
63.132404
 20
90.210087
 30
0.0
 10
63.132404
 20
89.681978
 30
0.0
  0
SPLINE
  5
24e
100
AcDbEntity
  8
0
 62
7
100
AcDbSpline
 70
8
 71
3
 72
8
 73
4
 74
0
 40
0
 40
0
 40
0
 40
0
 40
1
 40
1
 40
1
 40
1
 10
69.779796
 20
87.388570
 30
0.0
 10
70.845184
 20
87.388570
 30
0.0
 10
71.378937
 20
87.614348
 30
0.0
 10
71.989596
 20
88.670917
 30
0.0
  0
LWPOLYLINE
  5
24f
100
AcDbEntity
  8
0
 62
7
100
AcDbPolyline
 90
2
 70
1
 10
65.412759
 20
87.388570
 30
0.0
 10
69.779796
 20
87.388570
 30
0.0
  0
SPLINE
  5
250
100
AcDbEntity
  8
0
 62
7
100
AcDbSpline
 70
8
 71
3
 72
8
 73
4
 74
0
 40
0
 40
0
 40
0
 40
0
 40
1
 40
1
 40
1
 40
1
 10
75.877912
 20
95.407915
 30
0.0
 10
75.983746
 20
95.589242
 30
0.0
 10
76.146023
 20
95.709540
 30
0.0
 10
76.350987
 20
95.765278
 30
0.0
  0
SPLINE
  5
251
100
AcDbEntity
  8
0
 62
7
100
AcDbSpline
 70
8
 71
3
 72
8
 73
4
 74
0
 40
0
 40
0
 40
0
 40
0
 40
1
 40
1
 40
1
 40
1
 10
76.350987
 20
95.765278
 30
0.0
 10
76.555246
 20
95.821017
 30
0.0
 10
76.748921
 20
95.794206
 30
0.0
 10
76.930248
 20
95.690490
 30
0.0
  0
SPLINE
  5
252
100
AcDbEntity
  8
0
 62
7
100
AcDbSpline
 70
8
 71
3
 72
8
 73
4
 74
0
 40
0
 40
0
 40
0
 40
0
 40
1
 40
1
 40
1
 40
1
 10
76.930248
 20
95.690490
 30
0.0
 10
77.123923
 20
95.577953
 30
0.0
 10
77.247043
 20
95.423437
 30
0.0
 10
77.298901
 20
95.228703
 30
0.0
  0
SPLINE
  5
253
100
AcDbEntity
  8
0
 62
7
100
AcDbSpline
 70
8
 71
3
 72
8
 73
4
 74
0
 40
0
 40
0
 40
0
 40
0
 40
1
 40
1
 40
1
 40
1
 10
77.298901
 20
95.228703
 30
0.0
 10
77.350054
 20
95.032559
 30
0.0
 10
77.323243
 20
94.838884
 30
0.0
 10
77.210001
 20
94.644856
 30
0.0
  0
LWPOLYLINE
  5
254
100
AcDbEntity
  8
0
 62
7
100
AcDbPolyline
 90
2
 70
1
 10
71.989596
 20
88.670917
 30
0.0
 10
75.877912
 20
95.407915
 30
0.0
  0
SPLINE
  5
255
100
AcDbEntity
  8
0
 62
7
100
AcDbSpline
 70
8
 71
3
 72
8
 73
4
 74
0
 40
0
 40
0
 40
0
 40
0
 40
1
 40
1
 40
1
 40
1
 10
72.249593
 20
86.051895
 30
0.0
 10
71.935621
 20
85.511792
 30
0.0
 10
71.863654
 20
84.933237
 30
0.0
 10
72.029459
 20
84.312701
 30
0.0
  0
SPLINE
  5
256
100
AcDbEntity
  8
0
 62
7
100
AcDbSpline
 70
8
 71
3
 72
8
 73
4
 74
0
 40
0
 40
0
 40
0
 40
0
 40
1
 40
1
 40
1
 40
1
 10
72.029459
 20
84.312701
 30
0.0
 10
72.195618
 20
83.697456
 30
0.0
 10
72.547690
 20
83.230378
 30
0.0
 10
73.089557
 20
82.916406
 30
0.0
  0
SPLINE
  5
257
100
AcDbEntity
  8
0
 62
7
100
AcDbSpline
 70
8
 71
3
 72
8
 73
4
 74
0
 40
0
 40
0
 40
0
 40
0
 40
1
 40
1
 40
1
 40
1
 10
73.089557
 20
82.916406
 30
0.0
 10
73.628601
 20
82.606315
 30
0.0
 10
74.208215
 20
82.534348
 30
0.0
 10
74.825576
 20
82.699448
 30
0.0
  0
SPLINE
  5
258
100
AcDbEntity
  8
0
 62
7
100
AcDbSpline
 70
8
 71
3
 72
8
 73
4
 74
0
 40
0
 40
0
 40
0
 40
0
 40
1
 40
1
 40
1
 40
1
 10
74.825576
 20
82.699448
 30
0.0
 10
75.443996
 20
82.864901
 30
0.0
 10
75.910015
 20
83.217326
 30
0.0
 10
76.222223
 20
83.760603
 30
0.0
  0
LWPOLYLINE
  5
259
100
AcDbEntity
  8
0
 62
7
100
AcDbPolyline
 90
2
 70
1
 10
77.210001
 20
94.644856
 30
0.0
 10
72.249593
 20
86.051895
 30
0.0
  0
SPLINE
  5
25a
100
AcDbEntity
  8
0
 62
7
100
AcDbSpline
 70
8
 71
3
 72
8
 73
4
 74
0
 40
0
 40
0
 40
0
 40
0
 40
1
 40
1
 40
1
 40
1
 10
84.923134
 20
87.387159
 30
0.0
 10
85.553548
 20
87.387159
 30
0.0
 10
86.094004
 20
87.612937
 30
0.0
 10
86.544501
 20
88.060965
 30
0.0
  0
SPLINE
  5
25b
100
AcDbEntity
  8
0
 62
7
100
AcDbSpline
 70
8
 71
3
 72
8
 73
4
 74
0
 40
0
 40
0
 40
0
 40
0
 40
1
 40
1
 40
1
 40
1
 10
86.544501
 20
88.060965
 30
0.0
 10
86.991118
 20
88.511815
 30
0.0
 10
87.216543
 20
89.050859
 30
0.0
 10
87.216543
 20
89.681978
 30
0.0
  0
SPLINE
  5
25c
100
AcDbEntity
  8
0
 62
7
100
AcDbSpline
 70
8
 71
3
 72
8
 73
4
 74
0
 40
0
 40
0
 40
0
 40
0
 40
1
 40
1
 40
1
 40
1
 10
87.216543
 20
89.681978
 30
0.0
 10
87.216543
 20
90.324034
 30
0.0
 10
86.996409
 20
90.869076
 30
0.0
 10
86.552615
 20
91.311106
 30
0.0
  0
SPLINE
  5
25d
100
AcDbEntity
  8
0
 62
7
100
AcDbSpline
 70
8
 71
3
 72
8
 73
4
 74
0
 40
0
 40
0
 40
0
 40
0
 40
1
 40
1
 40
1
 40
1
 10
86.552615
 20
91.311106
 30
0.0
 10
86.111290
 20
91.753490
 30
0.0
 10
85.564484
 20
91.975387
 30
0.0
 10
84.923134
 20
91.975387
 30
0.0
  0
LWPOLYLINE
  5
25e
100
AcDbEntity
  8
0
 62
7
100
AcDbPolyline
 90
3
 70
1
 10
76.222223
 20
83.760603
 30
0.0
 10
78.315607
 20
87.387159
 30
0.0
 10
84.923134
 20
87.387159
 30
0.0
  0
SPLINE
  5
25f
100
AcDbEntity
  8
0
 62
7
100
AcDbSpline
 70
8
 71
3
 72
8
 73
4
 74
0
 40
0
 40
0
 40
0
 40
0
 40
1
 40
1
 40
1
 40
1
 10
81.866315
 20
91.975387
 30
0.0
 10
81.666290
 20
91.975387
 30
0.0
 10
81.489548
 20
92.053351
 30
0.0
 10
81.335384
 20
92.209631
 30
0.0
  0
SPLINE
  5
260
100
AcDbEntity
  8
0
 62
7
100
AcDbSpline
 70
8
 71
3
 72
8
 73
4
 74
0
 40
0
 40
0
 40
0
 40
0
 40
1
 40
1
 40
1
 40
1
 10
81.335384
 20
92.209631
 30
0.0
 10
81.177340
 20
92.365559
 30
0.0
 10
81.100787
 20
92.542653
 30
0.0
 10
81.100787
 20
92.740562
 30
0.0
  0
SPLINE
  5
261
100
AcDbEntity
  8
0
 62
7
100
AcDbSpline
 70
8
 71
3
 72
8
 73
4
 74
0
 40
0
 40
0
 40
0
 40
0
 40
1
 40
1
 40
1
 40
1
 10
81.100787
 20
92.740562
 30
0.0
 10
81.100787
 20
92.938117
 30
0.0
 10
81.177340
 20
93.114153
 30
0.0
 10
81.335384
 20
93.270434
 30
0.0
  0
SPLINE
  5
262
100
AcDbEntity
  8
0
 62
7
100
AcDbSpline
 70
8
 71
3
 72
8
 73
4
 74
0
 40
0
 40
0
 40
0
 40
0
 40
1
 40
1
 40
1
 40
1
 10
81.335384
 20
93.270434
 30
0.0
 10
81.489548
 20
93.425303
 30
0.0
 10
81.666290
 20
93.503267
 30
0.0
 10
81.866315
 20
93.503267
 30
0.0
  0
LWPOLYLINE
  5
263
100
AcDbEntity
  8
0
 62
7
100
AcDbPolyline
 90
2
 70
1
 10
84.923134
 20
91.975387
 30
0.0
 10
81.866315
 20
91.975387
 30
0.0
  0
SPLINE
  5
264
100
AcDbEntity
  8
0
 62
7
100
AcDbSpline
 70
8
 71
3
 72
8
 73
4
 74
0
 40
0
 40
0
 40
0
 40
0
 40
1
 40
1
 40
1
 40
1
 10
93.143209
 20
93.503267
 30
0.0
 10
93.339001
 20
93.503267
 30
0.0
 10
93.516448
 20
93.425303
 30
0.0
 10
93.672729
 20
93.270434
 30
0.0
  0
SPLINE
  5
265
100
AcDbEntity
  8
0
 62
7
100
AcDbSpline
 70
8
 71
3
 72
8
 73
4
 74
0
 40
0
 40
0
 40
0
 40
0
 40
1
 40
1
 40
1
 40
1
 10
93.672729
 20
93.270434
 30
0.0
 10
93.829362
 20
93.114153
 30
0.0
 10
93.904857
 20
92.938117
 30
0.0
 10
93.904857
 20
92.740562
 30
0.0
  0
LWPOLYLINE
  5
266
100
AcDbEntity
  8
0
 62
7
100
AcDbPolyline
 90
2
 70
1
 10
81.866315
 20
93.503267
 30
0.0
 10
93.143209
 20
93.503267
 30
0.0
  0
SPLINE
  5
267
100
AcDbEntity
  8
0
 62
7
100
AcDbSpline
 70
8
 71
3
 72
8
 73
4
 74
0
 40
0
 40
0
 40
0
 40
0
 40
1
 40
1
 40
1
 40
1
 10
90.065223
 20
91.975387
 30
0.0
 10
89.439748
 20
91.975387
 30
0.0
 10
88.907407
 20
91.748903
 30
0.0
 10
88.459026
 20
91.297701
 30
0.0
  0
SPLINE
  5
268
100
AcDbEntity
  8
0
 62
7
100
AcDbSpline
 70
8
 71
3
 72
8
 73
4
 74
0
 40
0
 40
0
 40
0
 40
0
 40
1
 40
1
 40
1
 40
1
 10
88.459026
 20
91.297701
 30
0.0
 10
88.013821
 20
90.844028
 30
0.0
 10
87.790865
 20
90.307101
 30
0.0
 10
87.790865
 20
89.681978
 30
0.0
  0
SPLINE
  5
269
100
AcDbEntity
  8
0
 62
7
100
AcDbSpline
 70
8
 71
3
 72
8
 73
4
 74
0
 40
0
 40
0
 40
0
 40
0
 40
1
 40
1
 40
1
 40
1
 10
87.790865
 20
89.681978
 30
0.0
 10
87.790865
 20
89.056151
 30
0.0
 10
88.015232
 20
88.519928
 30
0.0
 10
88.471021
 20
88.066609
 30
0.0
  0
SPLINE
  5
26a
100
AcDbEntity
  8
0
 62
7
100
AcDbSpline
 70
8
 71
3
 72
8
 73
4
 74
0
 40
0
 40
0
 40
0
 40
0
 40
1
 40
1
 40
1
 40
1
 10
88.471021
 20
88.066609
 30
0.0
 10
88.918343
 20
87.614348
 30
0.0
 10
89.460562
 20
87.387159
 30
0.0
 10
90.084273
 20
87.387159
 30
0.0
  0
LWPOLYLINE
  5
26b
100
AcDbEntity
  8
0
 62
7
100
AcDbPolyline
 90
5
 70
1
 10
93.904857
 20
92.740562
 30
0.0
 10
93.904857
 20
92.115440
 30
0.0
 10
93.904857
 20
91.975387
 30
0.0
 10
93.576773
 20
91.975387
 30
0.0
 10
90.065223
 20
91.975387
 30
0.0
  0
SPLINE
  5
26c
100
AcDbEntity
  8
0
 62
7
100
AcDbSpline
 70
8
 71
3
 72
8
 73
4
 74
0
 40
0
 40
0
 40
0
 40
0
 40
1
 40
1
 40
1
 40
1
 10
93.143209
 20
87.387159
 30
0.0
 10
93.766568
 20
87.387159
 30
0.0
 10
94.304907
 20
87.614348
 30
0.0
 10
94.757873
 20
88.066609
 30
0.0
  0
SPLINE
  5
26d
100
AcDbEntity
  8
0
 62
7
100
AcDbSpline
 70
8
 71
3
 72
8
 73
4
 74
0
 40
0
 40
0
 40
0
 40
0
 40
1
 40
1
 40
1
 40
1
 10
94.757873
 20
88.066609
 30
0.0
 10
95.208723
 20
88.519928
 30
0.0
 10
95.433443
 20
89.056151
 30
0.0
 10
95.433443
 20
89.681978
 30
0.0
  0
LWPOLYLINE
  5
26e
100
AcDbEntity
  8
0
 62
7
100
AcDbPolyline
 90
2
 70
1
 10
90.084273
 20
87.387159
 30
0.0
 10
93.143209
 20
87.387159
 30
0.0
  0
LWPOLYLINE
  5
26f
100
AcDbEntity
  8
0
 62
7
100
AcDbPolyline
 90
5
 70
1
 10
95.433443
 20
89.681978
 30
0.0
 10
95.433443
 20
89.926453
 30
0.0
 10
95.433443
 20
90.442920
 30
0.0
 10
95.711079
 20
90.442920
 30
0.0
 10
95.711079
 20
90.442920
 30
0.0
  0
LWPOLYLINE
  5
270
100
AcDbEntity
  8
0
 62
7
100
AcDbPolyline
 90
6
 70
1
 10
64.660284
 20
91.975282
 30
0.0
 10
63.132404
 20
91.975282
 30
0.0
 10
63.132404
 20
92.336527
 30
0.0
 10
64.660284
 20
92.336527
 30
0.0
 10
64.660284
 20
91.975282
 30
0.0
 10
64.660284
 20
91.975282
 30
0.0
  0
LWPOLYLINE
  5
271
100
AcDbEntity
  8
0
 62
7
100
AcDbPolyline
 90
6
 70
1
 10
63.133109
 20
90.446343
 30
0.0
 10
64.660990
 20
90.446343
 30
0.0
 10
64.660990
 20
90.085099
 30
0.0
 10
63.133109
 20
90.085099
 30
0.0
 10
63.133109
 20
90.446343
 30
0.0
 10
63.133109
 20
90.446343
 30
0.0
  0
LWPOLYLINE
  5
272
100
AcDbEntity
  8
0
 62
7
100
AcDbPolyline
 90
6
 70
1
 10
93.904857
 20
90.445638
 30
0.0
 10
93.543965
 20
90.445638
 30
0.0
 10
93.543965
 20
91.973518
 30
0.0
 10
93.904857
 20
91.973518
 30
0.0
 10
93.904857
 20
90.445638
 30
0.0
 10
93.904857
 20
90.445638
 30
0.0
  0
LWPOLYLINE
  5
273
100
AcDbEntity
  8
0
 62
7
100
AcDbPolyline
 90
6
 70
1
 10
95.434148
 20
91.973871
 30
0.0
 10
95.795040
 20
91.973871
 30
0.0
 10
95.795040
 20
90.445991
 30
0.0
 10
95.434148
 20
90.445991
 30
0.0
 10
95.434148
 20
91.973871
 30
0.0
 10
95.434148
 20
91.973871
 30
0.0
  0
ENDSEC
  0
SECTION
  2
OBJECTS
  0
DICTIONARY
  5
C
330
0
100
AcDbDictionary
  3
ACAD_GROUP
350
D
  3
ACAD_MLINESTYLE
350
17
  0
DICTIONARY
  5
D
330
C
100
AcDbDictionary
  0
DICTIONARY
  5
1A
330
C
100
AcDbDictionary
  0
DICTIONARY
  5
17
330
C
100
AcDbDictionary
  3
STANDARD
350
18
  0
DICTIONARY
  5
19
330
C
100
AcDbDictionary
  0
ENDSEC
  0
EOF
